<?xml version="1.0" encoding="utf-8"?>
<!-- Generator: Adobe Illustrator 27.8.1, SVG Export Plug-In . SVG Version: 6.00 Build 0)  -->
<svg version="1.1" id="Layer_1" xmlns="http://www.w3.org/2000/svg" xmlns:xlink="http://www.w3.org/1999/xlink" x="0px" y="0px"
	 viewBox="0 0 514 514" style="enable-background:new 0 0 514 514;" xml:space="preserve">
<style type="text/css">
	.st0{clip-path:url(#SVGID_00000039850455371832822560000004123561175244968633_);}
</style>
<g>
	<defs>
		<rect id="SVGID_1_" x="-103" y="-103" width="720" height="720"/>
	</defs>
	<clipPath id="SVGID_00000057134868159013096940000009216212676540106385_">
		<use xlink:href="#SVGID_1_"  style="overflow:visible;"/>
	</clipPath>
	<g style="clip-path:url(#SVGID_00000057134868159013096940000009216212676540106385_);">
		<path d="M97.8,141.9L239.7,0l5.1,5.1L95,154.8C96.4,150.7,97.4,146.4,97.8,141.9z M128.6,56.6l51.5-51.5L175.1,0l-51.3,51.3
			C125.9,52.9,127.5,54.7,128.6,56.6z M77.8,138.2c2.5-35.3,7.9-47.1,19.8-61.5c6.9-8.4,11.4-18.2,13.3-25.3c-0.3-0.2-0.7-0.3-1-0.5
			c-12.7-5.6-23.8-9.3-32.2-11c-9.1-1.8-13.6-2.3-16.2,0.6c14.9,19.2,1.7,45.6-22.2,47.6c0,0,0.5,5.2,1,12.9l16-8.2
			c1.8-0.9,3.9-0.2,4.8,1.6c0.9,1.8,0.2,3.9-1.6,4.8l-18.8,9.6c0.1,1.9,0.2,3.8,0.3,5.8l12.6-6.5c1.8-0.9,3.9-0.2,4.8,1.6
			c0.9,1.8,0.2,3.9-1.6,4.8l-15.6,8c0.1,2,0.1,4,0.1,5.9l9.6-4.9c1.8-0.9,3.9-0.2,4.8,1.6c0.9,1.8,0.2,3.9-1.6,4.8l-12.9,6.6
			c0,0.9,0,1.8-0.1,2.6c0,1.2-0.1,2.3-0.2,3.5l7.4-3.8c1.8-0.9,3.9-0.2,4.8,1.6c0.9,1.8,0.2,3.9-1.6,4.8l-11.9,6.1
			c-3.3,16.6-11.2,30.7-12.3,41.4c-0.1,0.5-0.1,1,0,1.5C58.4,179.2,76.2,159.4,77.8,138.2z M84.9,138.7c-1.7,24-21,45.8-54.3,61.9
			c1.9,1.5,4.5,2,7.6,1c1.5-0.5,5.1-2.1,9.7-4.8l3.3,3.8l-1.6-4.8c4.7-2.9,10.3-6.7,15.9-11.6l4.5,3.8l-2.9-5.1
			c5.3-4.7,10.4-10.3,14.5-16.7l4.1,1.9l-3.2-3.3c4.6-7.4,7.9-15.8,8.6-25.2c0.7-9,1.8-16.6,3.2-23.1c5.7-22,16.8-30.2,21.9-37.7
			c7.8-11.3,11-17.4,1.1-23.4c-2.4,8-7.2,17.6-14,25.9C92.6,93.9,87.4,103.8,84.9,138.7z M514,142.5l-45.8,45.8
			c0.7,20.7-3,41.5-10.9,60.9l48.7-48.7l8.1,8.1L297.6,425.1c-57.5,57.5-151.2,57.5-208.7,0C77.3,413.4,68,400.3,61,386.3l-53,53
			L0,431.2l56.1-56.1c-5.1-12.9-8.3-26.4-9.6-40L5,376.5l-5-5.1l45.8-45.8c-0.7-20.7,3-41.5,10.9-60.9L8.1,313.4L0,305.3L216.4,88.9
			c57.5-57.5,151.2-57.5,208.7,0c11.7,11.6,20.9,24.8,27.9,38.8l53-53l8.1,8.1l-56.1,56.1c5.1,12.9,8.3,26.4,9.6,40l41.4-41.4
			L514,142.5z M57.3,314.1l185.3-185.4c39.3-39.3,103.2-39.3,142.5,0c12,12,20.4,26.4,25,41.6l34.1-34.1
			C437.8,122,428.7,108.7,417,97c-53.1-53.1-139.5-53.1-192.5,0L97,224.4C72.1,249.3,58.9,281.5,57.3,314.1z M364.8,215.8l39.7-39.7
			c-4.1-15.5-12.1-30.2-24.3-42.3c-36.5-36.5-95.9-36.5-132.5,0L133.8,247.7c-20.9,20.9-29.8,49.2-26.8,76.5l158.6-158.6
			c22.8-22.8,60-22.8,82.8,0C362,179.3,367.5,198.1,364.8,215.8z M340.3,240.4L340.3,240.4c18.4-18.4,18.4-48.3,0-66.6
			c-18.4-18.4-48.3-18.4-66.6,0l-99.9,99.9c-18.4,18.4-18.4,48.3,0,66.6c18.4,18.4,48.3,18.4,66.6,0L340.3,240.4z M109.5,337.8
			c4.1,15.5,12.2,30.2,24.3,42.3c36.5,36.5,95.9,36.5,132.5,0l113.9-113.9c20.9-20.9,29.8-49.2,26.8-76.5L248.4,348.4
			c-22.8,22.8-60,22.8-82.8,0c-13.6-13.6-19.1-32.4-16.4-50.2L109.5,337.8z M65,366.2l35.7-35.7c-3.1-18.9-0.9-38.6,6.8-56.5
			l-50.2,50.2C57.6,338.5,60.2,352.7,65,366.2z M456.6,199.9L271.3,385.2c-39.3,39.3-103.3,39.3-142.5,0c-12-12-20.4-26.4-25-41.6
			l-34.1,34.1C76.2,392,85.3,405.3,97,417c53.1,53.1,139.5,53.1,192.5,0L417,289.6l0,0C441.9,264.7,455.1,232.5,456.6,199.9z
			 M456.7,189.7c-0.4-14.2-2.9-28.4-7.7-41.9l-35.7,35.7c3.1,18.9,0.9,38.6-6.8,56.5L456.7,189.7z M419,359.2L269.2,508.9l5.1,5.1
			l141.8-141.8C416.6,367.6,417.6,363.3,419,359.2z M385.4,457.4l-51.5,51.5l5.1,5.1l51.3-51.3C388.1,461.1,386.5,459.3,385.4,457.4
			z M436.2,375.8c-2.5,35.3-7.9,47.1-19.8,61.5c-6.9,8.4-11.4,18.2-13.3,25.3c0.3,0.2,0.7,0.3,1,0.5c12.7,5.6,23.8,9.3,32.2,11
			c9.1,1.8,13.6,2.3,16.2-0.6c-14.9-19.2-1.7-45.6,22.2-47.6c0,0-0.5-5.2-1-12.9l-16,8.2c-1.8,0.9-3.9,0.2-4.8-1.6
			c-0.9-1.8-0.2-3.9,1.6-4.8l18.8-9.6c-0.1-1.9-0.2-3.8-0.3-5.8l-12.6,6.5c-1.8,0.9-3.9,0.2-4.8-1.6c-0.9-1.8-0.2-3.9,1.6-4.8
			l15.6-8c-0.1-2-0.1-4-0.1-5.9l-9.6,4.9c-1.8,0.9-3.9,0.2-4.8-1.6c-0.9-1.8-0.2-3.9,1.6-4.8l12.9-6.6c0-0.9,0-1.8,0.1-2.6
			c0-1.2,0.1-2.3,0.2-3.5l-7.4,3.8c-1.8,0.9-3.9,0.2-4.8-1.6c-0.9-1.8-0.2-3.9,1.6-4.8l11.9-6.1c3.3-16.6,11.2-30.7,12.3-41.4
			c0.1-0.5,0.1-1,0-1.5C455.6,334.8,437.7,354.6,436.2,375.8z M429.1,375.3c1.7-24,21-45.8,54.3-61.9c-1.9-1.5-4.5-2-7.6-1
			c-1.5,0.5-5.1,2.1-9.7,4.8l-3.3-3.8l1.6,4.8c-4.7,2.9-10.3,6.7-15.9,11.6l-4.5-3.8l2.9,5.1c-5.3,4.7-10.4,10.3-14.5,16.7l-4.1-1.9
			l3.2,3.3c-4.6,7.4-7.9,15.8-8.6,25.2c-0.7,9-1.8,16.6-3.2,23.1c-5.7,22-16.8,30.2-21.9,37.7c-7.8,11.4-11,17.4-1.1,23.4
			c2.4-8,7.2-17.6,14-25.9C421.4,420.1,426.6,410.2,429.1,375.3z"/>
	</g>
</g>
</svg>
