<?xml version="1.0" encoding="utf-8"?>
<!-- Generator: Adobe Illustrator 27.8.1, SVG Export Plug-In . SVG Version: 6.00 Build 0)  -->
<svg version="1.1" id="Layer_1" xmlns="http://www.w3.org/2000/svg" xmlns:xlink="http://www.w3.org/1999/xlink" x="0px" y="0px"
	 viewBox="0 0 514 421.3" style="enable-background:new 0 0 514 421.3;" xml:space="preserve">
<style type="text/css">
	.st0{clip-path:url(#SVGID_00000178176590242435332990000005536429777825078425_);}
</style>
<g>
	<defs>
		<rect id="SVGID_1_" x="-103" y="-149.4" width="720" height="720"/>
	</defs>
	<clipPath id="SVGID_00000029752826952230185710000006037466781777708195_">
		<use xlink:href="#SVGID_1_"  style="overflow:visible;"/>
	</clipPath>
	<g style="clip-path:url(#SVGID_00000029752826952230185710000006037466781777708195_);">
		<path d="M30.7,251.4l-5.3-5.3l9.6-21.8l7.4,7.4L30.7,251.4z M108.5,113.1L46.3,51L97.3,0l62.1,62.1l-5.1,5.1l-11.4-11.4L125,73.7
			l11.4,11.4l-5.1,5.1L120,78.7l-17.9,17.9l11.4,11.4L108.5,113.1z M120.1,32.9l-17.9,17.9L120,68.6l17.9-17.9L120.1,32.9z M79.4,28
			l17.8,17.8l17.9-17.9L97.3,10.1L79.4,28z M74.2,68.7l17.9-17.9L74.3,33.1L56.4,51L74.2,68.7z M97.1,91.6L115,73.7L97.2,55.9
			L79.3,73.8L97.1,91.6z M54.6,285.4l-32.2-32.2l-5.1,5.1l32.2,32.2L54.6,285.4z M6.7,269c-8.9,8.9-8.9,23.3,0,32.2
			c8.9,8.9,23.3,8.9,32.2,0l5.7-5.7l-32.2-32.2L6.7,269z M87.3,156.9l-5.5-16.3c-0.7-2.1-2.6-3.5-4.8-3.6c-2.2-0.1-4.2,1.2-5.1,3.2
			L38,217.4l8.1,8.1L87.3,156.9z M93,151.4L238.3,6.1L233.3,1L90.4,143.9L93,151.4z M147.8,214.1l-1.8-16.3
			c-0.2-2.3-1.9-4.1-4.2-4.5l-18.9-3.4l-56.2,56.2l10.3,10.3L147.8,214.1z M35.9,256.6l5.1,5.1l15.7-15.7l-9.1-9.1L35.9,256.6z
			 M110,161.8L93.7,160l-42.3,70.7L61.7,241l56.2-56.2l-3.4-18.9C114.1,163.8,112.3,162.1,110,161.8z M163.9,217.4L375.3,6.1
			L370.3,1L156.4,214.9L163.9,217.4z M70.8,260.2l-9.1-9.1l-15.7,15.7l5.1,5.1L70.8,260.2z M83.4,272.9l-7.4-7.4l-19.6,11.7l5.3,5.3
			L83.4,272.9z M222.9,135.7l5.1-5.1l-16.5-16.5l-50.9,51l16.5,16.5l5.1-5.1l-11.4-11.4l17.9-17.9l11.4,11.4l5.1-5.1l-11.4-11.4
			l17.9-17.9L222.9,135.7z M131.3,125.8l-5.1,5.1l16.5,16.5l51-51l-16.5-16.5l-5.1,5.1l11.4,11.4l-17.9,17.9l-11.4-11.4l-5.1,5.1
			l11.4,11.4l-17.9,17.9L131.3,125.8z M167.6,235.9c2-0.9,3.3-2.9,3.2-5.1c-0.1-2.2-1.5-4.1-3.6-4.8l-16.3-5.5l-68.7,41.1l8.1,8.1
			L167.6,235.9z M124.8,183l4.3,0.8L306.8,6.1L301.8,1L124.1,178.7L124.8,183z M382.7,295.5l5.1-5.1L371.3,274l-51,51l16.5,16.5
			l5.1-5.1l-11.4-11.4l17.9-17.9l11.4,11.4l5.1-5.1l-11.4-11.4l17.9-17.9L382.7,295.5z M421,269.9L275.7,415.2l5.1,5.1l142.9-142.9
			L421,269.9z M291.1,285.6l-5.1,5.1l16.5,16.5l50.9-51L337,239.7l-5.1,5.1l11.4,11.4l-17.9,17.9l-11.4-11.4l-5.1,5.1l11.4,11.4
			L302.5,297L291.1,285.6z M405.5,308.2l62.1,62.1l-50.9,51l-62.1-62.1l5.1-5.1l11.4,11.4l17.9-17.9l-11.4-11.4l5.1-5.1l11.4,11.4
			l17.9-17.9l-11.4-11.4L405.5,308.2z M393.9,388.3l17.9-17.9L394,352.7l-17.9,17.9L393.9,388.3z M434.6,393.3l-17.8-17.8
			l-17.9,17.9l17.8,17.8L434.6,393.3z M439.8,352.6l-17.9,17.9l17.8,17.8l17.9-17.9L439.8,352.6z M416.9,329.7L399,347.6l17.8,17.8
			l17.9-17.9L416.9,329.7z M389.2,238.3l-4.3-0.8L207.2,415.2l5.1,5.1l177.7-177.7L389.2,238.3z M426.7,264.4l5.5,16.3
			c0.7,2.1,2.6,3.5,4.8,3.6c2.2,0.1,4.2-1.2,5.1-3.2l33.8-77.2l-8.1-8.1L426.7,264.4z M459.4,135.8l32.2,32.2l5-5.1l-32.2-32.2
			L459.4,135.8z M507.3,120.1c-8.9-8.9-23.3-8.9-32.2,0l-5.7,5.7l32.2,32.2l5.7-5.7C516.2,143.4,516.2,128.9,507.3,120.1z
			 M471.6,189.5l7.4,7.4l9.6-21.8l-5.3-5.3L471.6,189.5z M235.6,240.1L55.4,420.3l-8.1-8.1l180.1-180.1l-32.7-32.7l5.1-5.1
			l11.4,11.4l17.9-17.9l-11.4-11.4l5.1-5.1l11.4,11.4l17.9-17.9l-11.4-11.4l5.1-5.1l32.7,32.7L458.6,1l8.1,8.1L286.5,189.2
			l32.7,32.7l-5.1,5.1l-11.4-11.4l-17.9,17.9l11.4,11.4l-5.1,5.1l-11.4-11.4l-17.9,17.9l11.4,11.4l-5,5L235.6,240.1z M274.8,233.5
			l-16.3-16.3l-17.9,17.9l16.3,16.3L274.8,233.5z M263.6,212.2l16.3,16.3l17.9-17.9l-16.3-16.3L263.6,212.2z M239.2,187.8l16.3,16.3
			l17.9-17.9l-16.3-16.3L239.2,187.8z M232.5,227l17.9-17.9l-16.3-16.3l-17.9,17.9L232.5,227z M372.2,228l18.9,3.4l56.2-56.2
			l-10.3-10.3l-70.7,42.3l1.8,16.3C368.2,225.7,369.9,227.6,372.2,228z M350.1,203.9L138.7,415.2l5.1,5.1l213.9-213.9L350.1,203.9z
			 M346.3,185.3c-2,0.9-3.3,2.9-3.2,5.1c0.1,2.2,1.5,4.1,3.6,4.8l16.3,5.5l68.7-41.1l-8.1-8.1L346.3,185.3z M430.6,148.4l7.4,7.4
			l19.6-11.7l-5.3-5.3L430.6,148.4z M404,259.5l16.3,1.8l42.3-70.7l-10.3-10.3l-56.2,56.2l3.4,18.9
			C399.9,257.5,401.7,259.2,404,259.5z M443.2,161.1l9.1,9.1l15.7-15.7l-5.1-5.1L443.2,161.1z M478.1,164.7l-5.1-5.1l-15.7,15.7
			l9.1,9.1L478.1,164.7z"/>
	</g>
</g>
</svg>
