<?xml version="1.0" encoding="utf-8"?>
<!-- Generator: Adobe Illustrator 27.8.1, SVG Export Plug-In . SVG Version: 6.00 Build 0)  -->
<svg version="1.1" id="Layer_1" xmlns="http://www.w3.org/2000/svg" xmlns:xlink="http://www.w3.org/1999/xlink" x="0px" y="0px"
	 viewBox="0 0 514 514" style="enable-background:new 0 0 514 514;" xml:space="preserve">
<style type="text/css">
	.st0{clip-path:url(#SVGID_00000151522128060356482970000014349708841686771857_);}
</style>
<g>
	<defs>
		<rect id="SVGID_1_" x="-103" y="-103" width="720" height="720"/>
	</defs>
	<clipPath id="SVGID_00000002351626268920826090000017770020944753157529_">
		<use xlink:href="#SVGID_1_"  style="overflow:visible;"/>
	</clipPath>
	<g style="clip-path:url(#SVGID_00000002351626268920826090000017770020944753157529_);">
		<path d="M481.1,183.8c-31.3-31.3-76.7-40.2-116-26.8L466.7,55.4l-8.1-8.1L314.2,191.8h16.2c39.4-39.3,103.4-39.2,142.7,0.1
			c39.4,39.4,39.4,103.5,0,142.8L408,399.9l-31.2-31.2l76.6-76.6l-57.3-57.3l-1.9,8.2l49.1,49.1l-71.6,71.6l-41.5-41.5H314
			l144.6,144.6l8.1-8.1L416,407.9l65.1-65.2C525,298.9,525,227.6,481.1,183.8z M183.8,322.1L183.8,322.1
			c-39.4,39.4-103.5,39.4-142.9,0C1.6,282.8,1.6,218.7,41,179.3l65.1-65.2l31.2,31.2L60.6,222l58.7,58.7l1.9-8.2L70.7,222l71.6-71.6
			l41.4,41.4h16.2L55.4,47.3l-8.1,8.1L98,106.1l-65.1,65.2c-43.8,43.8-43.8,115.2,0,159c31.3,31.3,76.7,40.2,116,26.8L47.3,458.6
			l8.1,8.1L200,322.1H183.8z M387.1,241.9l-17.9,14.4l11.7,14.1l-6.6,27.8L352.1,315h-30.4l6.4-27h6.5l4.1-17.8h-18l6.6-28.6h17.9
			l3.8-15.6h-13.8l6.3-27h37.7l14.1,16.9L387.1,241.9z M311.3,288h8.1l-6.4,27h-22.5L203,226h-8.1l6.1-27.1h22.6L311.3,288z
			 M166.9,288.1h13.8l-6.3,26.9h-37.8l-14-17l6.3-27.4l18-14.4l-11.7-14.1l6.4-26.2l22-16.9h28.7l-6.4,27.3h-4.7l-3.8,15.9h18
			l-6.6,28.7H171L166.9,288.1z M226.9,262.7l22.2,22.3L219,315h-36l6.3-26.9h11.9L226.9,262.7z M287.2,251.1L265,228.9l30.3-30h37.5
			l-6.3,27H313L287.2,251.1z M224.9,71.1c-1.1-19-7.7-36.9-19-52c12.3-10.9,28-17.9,45.4-19.1v71.1H224.9z M308.1,19.1
			C295.8,8.3,280.1,1.3,262.7,0v71.1h26.4C290.2,52.2,296.8,34.2,308.1,19.1z M213.4,82.6h-33.3c1.2,16.6,7.7,31.7,17.7,43.7
			C207,113.4,212.4,98.4,213.4,82.6z M213.4,71.1c-1-15.9-6.4-30.9-15.6-43.7c-10,12-16.5,27.1-17.7,43.7H213.4z M289.1,82.6h-26.4
			v71.1c17.4-1.3,33.1-8.3,45.4-19.1C296.8,119.5,290.2,101.5,289.1,82.6z M300.6,71.1h33.3c-1.2-16.6-7.7-31.7-17.7-43.7
			C307,40.2,301.7,55.3,300.6,71.1z M300.6,82.6c1,15.9,6.4,30.9,15.6,43.7c10-12,16.5-27.1,17.7-43.7H300.6z M251.3,82.6h-26.4
			c-1.1,19-7.7,36.9-19,52c12.3,10.9,28,17.9,45.4,19.1V82.6z M262.7,442.9V514c17.4-1.3,33.1-8.3,45.4-19.1
			c-11.3-15.1-17.9-33-19-52H262.7L262.7,442.9z M205.9,494.9c12.3,10.9,28,17.9,45.4,19.1v-71.1h-26.4
			C223.8,461.8,217.2,479.8,205.9,494.9z M300.6,431.4h33.3c-1.2-16.6-7.7-31.7-17.7-43.7C307,400.6,301.7,415.6,300.6,431.4z
			 M300.6,442.9c1,15.9,6.4,30.9,15.6,43.7c10-12,16.5-27.1,17.7-43.7H300.6z M224.9,431.4h26.4v-71.1c-17.4,1.3-33.1,8.3-45.4,19.1
			C217.2,394.5,223.8,412.5,224.9,431.4z M213.4,442.9h-33.3c1.2,16.6,7.7,31.7,17.7,43.7C207,473.7,212.4,458.7,213.4,442.9z
			 M213.4,431.4c-1-15.9-6.4-30.9-15.6-43.7c-10,12-16.5,27.1-17.7,43.7H213.4z M262.7,431.4h26.4c1.1-19,7.7-36.9,19-52
			c-12.3-10.9-28-17.9-45.4-19.1V431.4L262.7,431.4z"/>
	</g>
</g>
</svg>
