<?xml version="1.0" encoding="utf-8"?>
<!-- Generator: Adobe Illustrator 27.8.1, SVG Export Plug-In . SVG Version: 6.00 Build 0)  -->
<svg version="1.1" id="Layer_1" xmlns="http://www.w3.org/2000/svg" xmlns:xlink="http://www.w3.org/1999/xlink" x="0px" y="0px"
	 viewBox="0 0 514 514" style="enable-background:new 0 0 514 514;" xml:space="preserve">
<style type="text/css">
	.st0{clip-path:url(#SVGID_00000140714685509196161590000006274326142647282062_);}
</style>
<g>
	<defs>
		<rect id="SVGID_1_" x="-103" y="-103" width="720" height="720"/>
	</defs>
	<clipPath id="SVGID_00000088128392826293174030000002526312948682831792_">
		<use xlink:href="#SVGID_1_"  style="overflow:visible;"/>
	</clipPath>
	<g style="clip-path:url(#SVGID_00000088128392826293174030000002526312948682831792_);">
		<path d="M224.9,71.1c-1.1-19-7.7-36.9-19-52c12.3-10.9,28-17.9,45.4-19.1v71.1H224.9z M308.1,19.1C295.8,8.3,280.1,1.3,262.7,0
			v71.1h26.4C290.2,52.2,296.8,34.2,308.1,19.1z M213.4,82.6h-33.3c1.2,16.6,7.7,31.7,17.7,43.7C207,113.4,212.4,98.4,213.4,82.6z
			 M213.4,71.1c-1-15.9-6.4-30.9-15.6-43.7c-10,12-16.5,27.1-17.7,43.7H213.4z M289.1,82.6h-26.4v71.1c17.4-1.3,33.1-8.3,45.4-19.1
			C296.8,119.5,290.2,101.5,289.1,82.6z M300.6,71.1h33.3c-1.2-16.6-7.7-31.7-17.7-43.7C307.1,40.2,301.7,55.3,300.6,71.1z
			 M300.6,82.6c1,15.9,6.4,30.9,15.6,43.7c10-12,16.5-27.1,17.7-43.7H300.6z M251.3,82.6h-26.4c-1.1,19-7.7,36.9-19,52
			c12.3,10.9,28,17.9,45.4,19.1V82.6z M262.7,442.9V514c17.4-1.3,33.1-8.3,45.4-19.1c-11.3-15.1-17.9-33-19-52H262.7z M205.9,494.9
			c12.3,10.9,28,17.9,45.4,19.1v-71.1h-26.4C223.8,461.8,217.2,479.8,205.9,494.9z M300.6,431.4h33.3c-1.2-16.6-7.7-31.7-17.7-43.7
			C307,400.6,301.7,415.6,300.6,431.4z M300.6,442.9c1,15.9,6.4,30.9,15.6,43.7c10-12,16.5-27.1,17.7-43.7H300.6z M224.9,431.4h26.4
			v-71.1c-17.4,1.3-33.1,8.3-45.4,19.1C217.2,394.5,223.8,412.5,224.9,431.4z M213.4,442.9h-33.3c1.2,16.6,7.7,31.7,17.7,43.7
			C207,473.8,212.4,458.7,213.4,442.9z M213.4,431.4c-1-15.9-6.4-30.9-15.6-43.7c-10,12-16.5,27.1-17.7,43.7H213.4z M262.7,431.4
			h26.4c1.1-19,7.7-36.9,19-52c-12.3-10.9-28-17.9-45.4-19.1V431.4z M481.1,342.8L416,407.9l50.7,50.7l-8.1,8.1L257,265.1
			l-65.1,65.1c0,0,0,0,0,0L55.4,466.6l-8.1-8.1L148.9,357c-39.3,13.5-84.7,4.5-116-26.8c-43.8-43.8-43.8-115.1,0-158.9L98,106.1
			L47.3,55.4l8.1-8.1L257,248.9L458.7,47.4l8.1,8.1L365.1,157c39.3-13.5,84.7-4.5,116,26.8C525,227.6,525,298.9,481.1,342.8z
			 M142.3,150.4L70.7,222l70.4,70.4l71.6-71.6L142.3,150.4z M76.3,237.7c-12.9,13.6-12.7,35.1,0.6,48.5
			c13.3,13.3,34.9,13.5,48.5,0.6L76.3,237.7z M248.9,257l-31.2-31.2l-76.6,76.6l-10.7-10.6c-16.4,15.7-42.5,15.5-58.6-0.6
			c-16.1-16.1-16.3-42.2-0.6-58.6L60.6,222l76.6-76.6L106,114.2L41,179.3C1.6,218.7,1.6,282.7,41,322.1
			c39.4,39.3,103.4,39.4,142.8,0L248.9,257z M371.7,363.6l71.6-71.6l-70.4-70.4l-71.6,71.6L371.7,363.6z M437.7,276.3
			c12.9-13.6,12.7-35.2-0.6-48.5c-13.3-13.3-34.9-13.5-48.5-0.6L437.7,276.3z M265.1,257l31.2,31.2l76.6-76.6l10.7,10.6
			c16.4-15.7,42.5-15.5,58.6,0.6c16.1,16.1,16.3,42.2,0.6,58.6l10.6,10.6l-76.6,76.6l31.2,31.2l65.1-65.1
			c39.4-39.4,39.4-103.4,0-142.8c-39.4-39.4-103.5-39.4-142.8,0L265.1,257z"/>
	</g>
</g>
</svg>
