<?xml version="1.0" encoding="utf-8"?>
<!-- Generator: Adobe Illustrator 27.8.1, SVG Export Plug-In . SVG Version: 6.00 Build 0)  -->
<svg version="1.1" id="Layer_1" xmlns="http://www.w3.org/2000/svg" xmlns:xlink="http://www.w3.org/1999/xlink" x="0px" y="0px"
	 viewBox="0 0 514 514" style="enable-background:new 0 0 514 514;" xml:space="preserve">
<style type="text/css">
	.st0{clip-path:url(#SVGID_00000003087523129993762730000003067992868704895650_);}
</style>
<g>
	<defs>
		<rect id="SVGID_1_" x="-103.2" y="-103.2" width="720" height="720"/>
	</defs>
	<clipPath id="SVGID_00000180328783333952386650000011795945093705353613_">
		<use xlink:href="#SVGID_1_"  style="overflow:visible;"/>
	</clipPath>
	<g style="clip-path:url(#SVGID_00000180328783333952386650000011795945093705353613_);">
		<path d="M306.7,124.9c17-17,37.7-5.1,53.6-21.8c4.8-4.8,12.6-4.7,17.4,0.1l32.4,32.4c4.8,4.8,4.8,12.6,0,17.5L381.2,182
			c-0.2-0.3-24-23.9-24.2-24.3c-12.1-12.1-32.1-12.5-43.8,0c-4.8,5.2-13.3,9.4-19.9,4.1c-6.2-4.7-10.4-13.4-3.9-19.8
			C296.7,134.8,306.6,125,306.7,124.9z M318,164c-10,10.3-23.4,11.4-33.1-0.2c-18.6,15.4-21.2,43.8-3.7,61.1
			c20.1,23.6,46.4,41.8,74.1,16.7c14-14.3,40-32.6,20.1-53.9C360.3,173.8,339.5,141.8,318,164z M397.6,373.4L514,257l-98.8-98.8
			l-8.1,8.1l85.1,85.1h-25.5l-57.4-57.4l-5.1,5.1l52.3,52.3H431l-21.7-21.7l-5.1,5.1l22.4,22.4l-22.4,22.4l5.1,5.1l21.7-21.7h25.5
			L404.2,315l5.1,5.1l57.4-57.4h25.5L389.5,365.3L397.6,373.4z M417.5,132.9l35-35l-37.6-36.6l-34.6,34.5
			C380.4,95.9,417.4,132.9,417.5,132.9z M251.3,21.9v25.5l-57.4,57.4l5.1,5.1l52.3-52.3V83l-21.7,21.7l5.1,5.1L257,87.4l22.4,22.4
			l5.1-5.1L262.7,83V57.5l52.3,52.3l5.1-5.1l-57.4-57.4V21.9l82.6,82.6c3.6-1.2,6.8-3.1,9.9-6.3l0,0L257,0L140.6,116.4l8.1,8.1
			L251.3,21.9z M47.4,55.4l411.2,411.2l8.1-8.1L55.4,47.4L47.4,55.4z M196,350c10-10.3,23.4-11.4,33.1,0.2
			c18.6-15.4,21.2-43.8,3.7-61.1c-20.1-23.6-46.4-41.8-74.1-16.7c-14,14.3-40,32.6-20.1,53.9C153.7,340.2,174.5,372.2,196,350z
			 M262.7,492.1v-25.5l57.4-57.4l-5.1-5.1l-52.3,52.3V431l21.7-21.7l-5.1-5.1L257,426.6l-22.4-22.4l-5.1,5.1l21.7,21.7v25.5
			L199,404.2l-5.1,5.1l57.4,57.4v25.5l-82.6-82.6c-3.6,1.2-6.8,3.1-9.9,6.3l0,0L257,514l116.4-116.4l-8.1-8.1L262.7,492.1z
			 M116.4,140.6L0,257l98.8,98.8l8.1-8.1l-85.1-85.1h25.5l57.4,57.4l5.1-5.1l-52.3-52.3H83l21.7,21.7l5.1-5.1L87.4,257l22.4-22.4
			l-5.1-5.1L83,251.3H57.5l52.3-52.3l-5.1-5.1l-57.3,57.4H21.9l102.6-102.6L116.4,140.6z M96.5,381.1l-35,35l37.6,36.6l34.5-34.5
			C133.6,418.1,96.6,381.1,96.5,381.1z M224.7,371.9c6.5-6.3,2.3-15.1-3.9-19.8c-6.6-5.3-15.1-1.1-19.9,4.1
			c-11.6,12.5-31.7,12.1-43.8,0c-0.2-0.3-24-23.9-24.2-24.3l-28.9,28.9c-4.8,4.8-4.8,12.6,0,17.5l32.4,32.4
			c4.8,4.8,12.6,4.9,17.4,0.1c15.9-16.7,36.6-4.8,53.6-21.8C207.4,389,217.3,379.2,224.7,371.9z"/>
	</g>
</g>
</svg>
