<?xml version="1.0" encoding="utf-8"?>
<!-- Generator: Adobe Illustrator 27.8.1, SVG Export Plug-In . SVG Version: 6.00 Build 0)  -->
<svg version="1.1" id="Layer_1" xmlns="http://www.w3.org/2000/svg" xmlns:xlink="http://www.w3.org/1999/xlink" x="0px" y="0px"
	 viewBox="0 0 514 514" style="enable-background:new 0 0 514 514;" xml:space="preserve">
<style type="text/css">
	.st0{clip-path:url(#SVGID_00000134235923001684220950000003528938821409408673_);}
</style>
<g>
	<defs>
		<rect id="SVGID_1_" x="-103" y="-103" width="720" height="720"/>
	</defs>
	<clipPath id="SVGID_00000103973965733351000220000007844721534680031382_">
		<use xlink:href="#SVGID_1_"  style="overflow:visible;"/>
	</clipPath>
	<g style="clip-path:url(#SVGID_00000103973965733351000220000007844721534680031382_);">
		<path d="M66.4,429.4C16.3,374-5.5,302.1,1.2,232.4l7.1,0.7c-6.5,67.7,14.6,137.5,63.2,191.3L66.4,429.4z M287.2,456.7
			c0.3-1.2,1.3-2.1,2.5-2.5c3.4-0.9,7.6-3,8.2-4.7c0-0.1,0.2-0.4-0.4-1.2c-3.8-5.5-21.2-24.9-39.9-43
			c-31.9-30.8-43.1-34.8-46.5-35.1c-0.1,0-0.2,0-0.4,0c0.1,0.9,0.4,1.7,0.9,2.5c2.3,3.5,6.8,11.1,14.2,26.9c2.1,4.4,4.1,9.7,6,15.5
			h8.9c2,0,3.6,1.6,3.6,3.6c0,2-1.6,3.6-3.6,3.6h-6.7c0.6,2.1,1.2,4.2,1.8,6.3h10.6c2,0,3.6,1.6,3.6,3.6c0,2-1.6,3.6-3.6,3.6h-8.6
			c0.6,2.1,1.1,4.2,1.6,6.3h12.7c2,0,3.6,1.6,3.6,3.6c0,2-1.6,3.6-3.6,3.6h-11c0.5,2.1,1,4.2,1.5,6.3h15.2c2,0,3.6,1.6,3.6,3.6
			c0,2-1.6,3.6-3.6,3.6h-13.7c1.7,7.7,3,14.1,3.6,17.6c0.3,1.7,2.3,2.4,3.7,1.4c4.2-3,5.6-7.4,5.6-7.4s16.4-3.5,27.7,9.1
			c11.2,12.6,3.1,29.5,3.1,29.5c1.2,0.8,2.6,1.2,4,1.2c1.9,0,3.8-0.7,5.2-2.1c6.7-6.6,12.9-10.9,16.8-13.1
			c-0.9-4.3-5.3-16.8-25.8-38.6C287.2,459.2,286.9,457.9,287.2,456.7z M285.2,154.7c6.9,1.7,11.7-1.1,14.8-4.2
			c-23.6-6-83.1-71.7-89.4-80.8c-2.2-3.2-1.9-6-1.2-7.8c1.2-3.4,4.7-5.7,7.8-7.1c-16.6-18.4-21.9-30.3-23.6-36.5
			c-3.3,1.1-9.2,3-14.5,4.5c-2.7,0.8-4.8,2.8-5.6,5.5c-6.4,21.6,29.2,52.2,49.6,74.2C252,131.2,271.7,151.3,285.2,154.7z
			 M226.8,57.3c-0.3,1.2-1.3,2.1-2.5,2.5c-3.4,0.9-7.6,3-8.2,4.7c0,0.1-0.2,0.4,0.4,1.2c3.8,5.5,21.3,24.9,39.9,43
			c31.8,30.8,43.1,34.8,46.5,35.1c0.1,0,0.2,0,0.4,0c-0.1-0.9-0.4-1.7-0.9-2.5c-2.3-3.5-6.8-11.1-14.2-26.9c-2.1-4.4-4.1-9.7-6-15.5
			h-8.9c-2,0-3.6-1.6-3.6-3.6c0-2,1.6-3.6,3.6-3.6h6.7c-0.6-2.1-1.2-4.2-1.8-6.3h-10.6c-2,0-3.6-1.6-3.6-3.6c0-2,1.6-3.6,3.6-3.6
			h8.6c-0.6-2.1-1.1-4.2-1.6-6.3h-12.7c-2,0-3.6-1.6-3.6-3.6c0-2,1.6-3.6,3.6-3.6h11c-0.5-2.1-1-4.2-1.5-6.3H256
			c-2,0-3.6-1.6-3.6-3.6c0-2,1.6-3.6,3.6-3.6h13.7c-1.7-7.7-3-14.1-3.6-17.6c-0.3-1.7-2.3-2.4-3.7-1.4c-4.2,3-5.6,7.4-5.6,7.4
			s-16.4,3.5-27.7-9.1C217.9,18.1,226,1.2,226,1.2c-1.2-0.8-2.6-1.2-4-1.2c-1.9,0-3.8,0.7-5.2,2.1C210.2,8.7,204,13,200.1,15.3
			c0.9,4.3,5.3,16.8,25.8,38.6C226.8,54.8,227.1,56.1,226.8,57.3z M429.6,421.4l37.1,37.1l-8.1,8.1l-37.1-37.1
			c-20,19.1-43.3,34.7-69,46c-0.5-3.7-1.6-7.4-3.2-11.1c23.8-10.6,45.4-25.2,64.1-43L366,374.1c-18,16.8-38.9,28.6-61,35.6
			c-1.9-2-3.8-3.9-5.5-5.8c22.3-6.4,43.4-18,61.5-34.8l-95.7-95.7c-5.1,2.6-11.2,2.6-16.4,0L153.1,369c18.2,16.9,39.6,28.6,62.2,35
			c0.1,0.2,0.1,0.3,0.2,0.5c1.1,2.3,2.2,4.9,3.3,7.9c-25.7-6.3-50.1-19-70.7-38.2l-47.4,47.4c36.2,34.4,83.6,57.1,136.2,61.7
			c0.3,1.7,1.4,6.8,5.5,11.9c-57.9-3.5-110.3-27.8-149.8-65.5l-37.1,37.1l-8.1-8.1l193.4-193.4c-2.6-5.1-2.6-11.2,0-16.4l-19.3-19.3
			c-10.9,14-12.3,33-4.3,48.3l-19.9,20.7c-14.4-20.7-16.9-47.2-7.4-69.8l-6.6-2.8c-10.6,25.3-7.7,54.9,8.8,77.7l-9.2,9.2
			C165.6,290,160.3,261,167,234.3l-6.9-1.7c-7.3,29-1.4,60.7,17.7,85.5l-9.1,9.1c-18.7-23.5-26.7-52.6-24-81l-7.1-0.7
			c-2.9,30.4,5.8,61.7,26,86.7l-9.2,9.2c-32-38.7-38.6-91.4-19.9-135.9l-6.6-2.8c-19.8,47.1-12.7,102.8,21.4,143.7l-9.1,9.1
			c-43-50.8-47.6-123-13.6-178.4l-6.1-3.7c-35.7,58.1-30.7,133.9,14.6,187.1l-9.1,9.1c-40.7-47.2-51.8-111.2-33-167.5l-6.8-2.3
			c-19.6,58.8-8,125.6,34.7,174.9l-9.1,9.1C69,334.9,55.1,269.5,70.1,209.8l-6.9-1.7c-15.6,62-1,130.1,43.7,180.9l-9.1,9.1
			c-55.5-62.6-67.9-150-36.9-223.6l-6.6-2.8c-32.1,76.2-19.2,166.7,38.4,231.4l-13.1,13.1C-3.3,324.1-1.6,182.9,84.4,92.6L47.3,55.5
			l8.1-8.1l37.1,37.1c20-19.1,43.3-34.7,69-46c0.5,3.7,1.6,7.4,3.2,11.1c-23.8,10.6-45.4,25.2-64.1,43L148,140
			c18-16.8,38.9-28.6,61-35.5c1.9,2,3.8,3.9,5.5,5.8c-22.3,6.4-43.4,18-61.5,34.8l95.7,95.7c5.1-2.6,11.2-2.6,16.4,0l95.7-95.7
			c-18.2-16.9-39.6-28.6-62.2-35c-0.1-0.2-0.1-0.3-0.2-0.5c-1.1-2.3-2.2-4.9-3.3-7.8c25.7,6.3,50.1,19,70.7,38.2l47.4-47.4
			c-36.2-34.4-83.6-57.1-136.2-61.7c-0.3-1.7-1.4-6.8-5.5-11.9c57.9,3.5,110.3,27.8,149.8,65.5l37.1-37.1l8.1,8.1L273.2,248.8
			c2.6,5.1,2.6,11.2,0,16.4l19.3,19.3c10.9-14,12.3-32.9,4.4-48.2l19.8-20.8c14.4,20.7,16.9,47.2,7.4,69.8l6.6,2.8
			c10.6-25.3,7.7-54.9-8.8-77.7l9.2-9.2c17.3,22.9,22.6,51.9,15.9,78.6l6.9,1.7c7.3-29,1.4-60.7-17.7-85.5l9.1-9.1
			c18.7,23.5,26.7,52.6,24,81l7.1,0.7c2.9-30.4-5.8-61.7-26-86.7l9.2-9.2c32,38.7,38.6,91.4,19.9,135.9l6.6,2.8
			c19.8-47.1,12.7-102.8-21.4-143.7l9.1-9.1c43,50.8,47.6,123,13.6,178.4l6.1,3.7c35.7-58.1,30.7-133.9-14.6-187.1l9.1-9.1
			c40.7,47.2,51.8,111.2,33,167.5l6.8,2.3c19.6-58.8,8-125.6-34.7-174.9l9.1-9.1c42.9,48.9,56.9,114.4,41.9,174.1l6.9,1.7
			c15.6-62,1-130.1-43.7-180.9l9.1-9.1c55.5,62.6,67.9,150,36.9,223.6l6.6,2.8c32.1-76.2,19.2-166.7-38.4-231.4l13.1-13.1
			C517.3,190,515.6,331.1,429.6,421.4z M268.1,257c0-6.1-5-11.1-11.1-11.1s-11.1,5-11.1,11.1s5,11.1,11.1,11.1
			S268.1,263.1,268.1,257z M447.6,84.6l-5.1,5.1c48.6,53.8,69.7,123.6,63.2,191.3l7.1,0.7C519.5,211.9,497.7,140,447.6,84.6z
			 M228.8,359.3c-6.9-1.7-11.7,1.1-14.8,4.2c23.6,6,83.1,71.7,89.4,80.8c2.2,3.2,1.9,6,1.2,7.8c-1.2,3.4-4.7,5.7-7.8,7.1
			c16.6,18.4,21.9,30.3,23.6,36.5c3.3-1.1,9.2-3,14.5-4.5c2.7-0.8,4.8-2.8,5.6-5.5c6.4-21.6-29.2-52.2-49.6-74.2
			C262,382.8,242.3,362.7,228.8,359.3z"/>
	</g>
</g>
</svg>
