<?xml version="1.0" encoding="utf-8"?>
<!-- Generator: Adobe Illustrator 27.8.1, SVG Export Plug-In . SVG Version: 6.00 Build 0)  -->
<svg version="1.1" id="Layer_1" xmlns="http://www.w3.org/2000/svg" xmlns:xlink="http://www.w3.org/1999/xlink" x="0px" y="0px"
	 viewBox="0 0 514 514" style="enable-background:new 0 0 514 514;" xml:space="preserve">
<style type="text/css">
	.st0{clip-path:url(#SVGID_00000011742734342722596390000005864095917646044813_);}
</style>
<g>
	<defs>
		<rect id="SVGID_1_" x="-103" y="-103" width="720" height="720"/>
	</defs>
	<clipPath id="SVGID_00000089575767557531048980000008579576207978866366_">
		<use xlink:href="#SVGID_1_"  style="overflow:visible;"/>
	</clipPath>
	<g style="clip-path:url(#SVGID_00000089575767557531048980000008579576207978866366_);">
		<path d="M458.9,51.2L262.7,218.6V132l7.5-18.7c11.6-29,15.2-68.1,8.7-95c-1.1-4.7-4.4-12.1-6.6-15.6c-1.4-2.3-4.1-3.3-6.8-2.5
			c-5.5,1.6-27,23-27,42.6v25.9c0,16.3,2.6,32.5,7.8,48l5.1,15.2v96.6c-2.6,2.3-5.2,4.6-7.8,6.9l-21.3-21.3l22-22V182l-27,27
			L195,186.9l49.2-49.2V133l-1.3-4l-52.9,52.9l-22.1-22.1l65.6-65.5c-0.5-3-0.8-5.9-1.2-8.9l-69.4,69.4l-22.1-22.1l90.7-90.7
			c0.2-8.2,3.5-16.6,8-24.1L132.5,124.4L55.4,47.3l-8.1,8.1l77.1,77.1L0,257l8.1,8.1l124.5-124.5l22.1,22.1L60.5,257l5.1,5.1
			l94.2-94.2l22.1,22.1l-67.1,67l5.1,5.1l67-67l22.1,22.1L169.2,257l5.1,5.1l39.8-39.8l20.9,20.9c-18.2,16.7-35.8,34.1-52.7,52
			c-25.1,26.7-48.8,54.8-70.9,84.1L51.2,459c-1,1.3-0.6,2.7,0.3,3.6c0.9,0.9,2.3,1.2,3.6,0.3l79.8-60.2
			c29.3-22.1,57.4-45.8,84.1-70.9c11.1-10.4,21.9-21.1,32.5-32v82.4l-5.1,15.2c-5.2,15.5-7.8,31.7-7.8,48v25.9
			c0,19.6,21.5,41,27,42.6c0.6,0.2,1.2,0.3,1.8,0.3c2,0,3.9-1,5-2.8c2.2-3.5,5.5-10.9,6.6-15.6c6.5-26.9,3-66-8.7-95l-7.5-18.7
			v-94.2c2.7-2.9,5.5-5.8,8.2-8.8l20.9,20.9l-21.9,21.9v10.1l27-27l22.1,22.1l-49.1,49.1v4.4l1.6,4.1l52.5-52.5l22.1,22.1
			l-63.1,63.1c0.7,2.7,1.3,5.4,1.9,8.2l66.2-66.2l22.1,22.1l-84.2,84.2c0,5.9-0.3,11.6-0.9,17.1l93.2-93.2l77.1,77.1l8.1-8.1
			l-77.1-77.1L514,257l-8.1-8.1L381.5,373.4l-22.1-22.1l94.2-94.2l-5.1-5.1l-94.2,94.2L332.1,324l67-67l-5.1-5.1l-67,67l-22.1-22.1
			l39.8-39.8l-5.1-5.1l-39.8,39.8l-21.3-21.3c5.5-6.1,10.8-12.2,16.1-18.4l168-196.9c1.1-1.3,0.8-2.8-0.1-3.7
			C461.7,50.5,460.2,50.1,458.9,51.2z M297.5,222.1c0.4,2.5,0.7,6.9-0.4,12c-1.1,5.1-3.6,11-8.7,16.3L253,286.7
			c-6.8,6.8-17.6,7.1-25.1-0.5c-7.6-7.6-7.3-18.3-0.5-25.1l36.3-35.5c5.3-5.1,11.1-7.6,16.3-8.7c5.1-1.1,9.6-0.7,12-0.4
			c1.4,0.2,2.7,0.9,3.7,1.9C296.6,219.3,297.3,220.6,297.5,222.1z"/>
	</g>
</g>
</svg>
