<?xml version="1.0" encoding="utf-8"?>
<!-- Generator: Adobe Illustrator 27.8.1, SVG Export Plug-In . SVG Version: 6.00 Build 0)  -->
<svg version="1.1" id="Layer_1" xmlns="http://www.w3.org/2000/svg" xmlns:xlink="http://www.w3.org/1999/xlink" x="0px" y="0px"
	 viewBox="0 0 514 514" style="enable-background:new 0 0 514 514;" xml:space="preserve">
<style type="text/css">
	.st0{clip-path:url(#SVGID_00000178200794066751892200000004115753147294577589_);}
</style>
<g>
	<defs>
		<rect id="SVGID_1_" x="-103" y="-103" width="720" height="720"/>
	</defs>
	<clipPath id="SVGID_00000139272943833535282480000011185497722179263397_">
		<use xlink:href="#SVGID_1_"  style="overflow:visible;"/>
	</clipPath>
	<g style="clip-path:url(#SVGID_00000139272943833535282480000011185497722179263397_);">
		<path d="M188.5,80.2c7.6-7.6,10.8-14.2,12.8-20.6l5.6,5.6c-2.3,6.2-6.1,12.7-13.4,20c-12.3,12.3-22.5,14.6-32.4,16.7
			c-9.3,2-18,4-28.8,14.8l-5.1-5c12.3-12.3,22.5-14.6,32.4-16.7C168.9,93,177.7,91.1,188.5,80.2z M210.3,52.9
			c1.9-8.6,3.7-16.7,12.6-26.6l-5.1-5.1c-9.2,10-11.9,18.7-13.9,26.9l6,6C210.1,53.7,210.2,53.3,210.3,52.9z M439.4,279.2l13.1,13.1
			l26.7-26.7l-13.1-13.1L439.4,279.2z M311.5,17.7c2.3-2.3,4.2-4.5,5.9-6.7l-5.1-5.1c-1.6,2.2-3.5,4.4-5.9,6.8
			c-6.1,6.1-11.5,9.4-16.7,11.4l5.4,5.4C300.3,27.2,305.7,23.6,311.5,17.7z M185.1,27.7c1.9-8.6,3.7-16.7,12.6-26.6l1.1-1.1h-9.5
			c-6.6,8.4-8.8,15.8-10.5,23l6,6C184.9,28.5,185,28.1,185.1,27.7z M254,9.2c1.8-0.4,3.7-0.8,5.5-1.3L253.5,2
			c-0.4,0.1-0.7,0.2-1.1,0.3c-8.5,1.9-17.2,3.8-27.3,12.1l5.1,5.1C238.8,12.6,246.2,10.9,254,9.2z M0,283.1l13.1,13.1l26.7-26.7
			l-13.1-13.1L0,283.1z M136,76.8c9.9-2.2,20-4.4,32.4-16.7c7.3-7.3,11.1-13.9,13.4-20l-5.6-5.6c-1.9,6.4-5.2,13-12.8,20.6
			c-10.9,10.9-19.6,12.8-28.8,14.8c-9.9,2.2-20,4.4-32.4,16.7l5.1,5C118,80.7,126.7,78.8,136,76.8z M69.5,213.6l13.1,13.1l26.7-26.7
			l-13.1-13.1L69.5,213.6z M220.3,215.2L53.9,48.9l-5.1,5l166.2,166.2C216.8,218.5,218.5,216.9,220.3,215.2z M144,165.4l-13.1-13.1
			l-26.6,26.6l13.1,13.1L144,165.4z M320.4,54.8c5.1-2.4,10.5-5.9,16.3-11.8c2.3-2.3,4.2-4.5,5.9-6.7l-5.1-5.1
			c-1.6,2.2-3.5,4.4-5.9,6.8c-6.1,6.1-11.5,9.4-16.7,11.4L320.4,54.8z M235.5,78.1c1.9-8.6,3.7-16.7,12.6-26.6l-5.1-5.1
			c-9.2,10-11.9,18.7-13.9,26.9l6,6C235.3,79,235.4,78.5,235.5,78.1z M213.8,105.4c-10.9,10.9-19.6,12.8-28.8,14.8
			c-9.9,2.2-20,4.4-32.4,16.7l5.1,5c10.9-10.9,19.6-12.8,28.8-14.8c9.9-2.2,20-4.4,32.4-16.7c7.3-7.3,11.1-13.9,13.4-20l-5.6-5.6
			C224.6,91.2,221.4,97.8,213.8,105.4z M61.4,221.7l-26.7,26.7l13.1,13.1l26.7-26.7L61.4,221.7z M345.7,80
			c5.1-2.4,10.5-5.9,16.3-11.8c2.3-2.3,4.2-4.5,5.9-6.7l-5.1-5.1c-1.6,2.2-3.5,4.4-5.9,6.8c-6.1,6.1-11.5,9.4-16.7,11.4L345.7,80z
			 M329.6,84.9c1.8-0.4,3.7-0.8,5.5-1.3l-5.9-5.9c-0.4,0.1-0.7,0.2-1.1,0.2c-8.5,1.9-17.2,3.8-27.3,12.1l5.1,5.1
			C314.5,88.3,321.9,86.6,329.6,84.9z M211.7,152.4c9.9-2.2,20-4.4,32.4-16.7c7.3-7.3,11.1-13.9,13.4-20l-5.6-5.6
			c-1.9,6.4-5.2,13-12.8,20.6c-10.9,10.9-19.6,12.8-28.8,14.8c-9.9,2.2-20,4.4-32.4,16.7l5.1,5C193.7,156.4,202.4,154.5,211.7,152.4
			z M260.8,103.3c1.9-8.6,3.7-16.7,12.6-26.6l-5.1-5.1c-9.2,10-11.9,18.7-13.9,26.9l6,6C260.6,104.2,260.7,103.8,260.8,103.3z
			 M286,128.6c1.9-8.6,3.7-16.7,12.6-26.6l-5.1-5.1c-9.2,10-11.9,18.7-13.8,26.9l6,6C285.8,129.4,285.9,129,286,128.6z M309.9,58.4
			l-5.9-5.9c-0.4,0.1-0.7,0.2-1.1,0.2c-8.5,1.9-17.2,3.8-27.3,12.1l5.1,5.1c8.6-6.9,16-8.5,23.7-10.2
			C306.2,59.3,308.1,58.9,309.9,58.4z M236.9,177.7c9.9-2.2,20-4.4,32.4-16.7c7.3-7.3,11.1-13.9,13.4-20l-5.6-5.6
			c-1.9,6.4-5.2,13-12.8,20.6c-10.9,10.9-19.6,12.8-28.8,14.8c-9.9,2.2-20,4.4-32.4,16.7l5,5C218.9,181.6,227.6,179.7,236.9,177.7z
			 M255.4,44.7c8.6-6.9,16-8.5,23.7-10.2c1.8-0.4,3.7-0.8,5.5-1.3l-5.9-5.9c-0.4,0.1-0.7,0.2-1.1,0.2c-8.5,1.9-17.2,3.8-27.3,12.1
			L255.4,44.7z M328.9,486.3c-1.9,8.6-3.7,16.7-12.6,26.6l-1.1,1.1h9.5c6.6-8.4,8.8-15.8,10.5-23l-6-6
			C329.1,485.5,329,485.9,328.9,486.3z M354.3,419c4.6-1,9.3-2.1,14.3-4.1c-0.7-2.4-1.3-4.7-1.8-7c-4.8,2.1-9.3,3.1-14,4.2
			c-9.9,2.2-20,4.4-32.4,16.7c-7.3,7.3-11.1,13.9-13.4,20l5.6,5.6c1.9-6.4,5.2-13,12.8-20.6C336.3,422.9,345.1,421,354.3,419z
			 M379.9,436.8c-0.6,0.1-1.2,0.3-1.9,0.4c-9.9,2.2-20,4.4-32.4,16.7c-7.3,7.3-11.1,13.9-13.4,20l5.6,5.6c1.9-6.4,5.2-13,12.8-20.6
			c10.9-10.9,19.6-12.8,28.8-14.8c2-0.4,4-0.9,6-1.4l-2.3-2.3C382,439.3,380.9,438.1,379.9,436.8z M260,504.8
			c-1.8,0.4-3.7,0.8-5.5,1.3l5.9,5.9c0.4-0.1,0.7-0.2,1.1-0.3c8.5-1.9,17.2-3.8,27.3-12.1l-5.1-5.1
			C275.2,501.4,267.8,503.1,260,504.8z M258.6,469.3c-8.6,6.9-16,8.5-23.7,10.2c-1.8,0.4-3.7,0.8-5.5,1.3l5.9,5.9
			c0.4-0.1,0.7-0.2,1.1-0.2c8.5-1.9,17.2-3.8,27.3-12.1L258.6,469.3z M303.7,461.1c-1.9,8.6-3.7,16.7-12.6,26.6l5.1,5.1
			c9.2-10,11.9-18.7,13.9-26.9l-6-6C303.9,460.3,303.8,460.7,303.7,461.1z M444.5,300.4l-13.1-13.1L404.7,314l13.1,13.1L444.5,300.4
			z M370,348.6l13.1,13.1l26.6-26.6L396.6,322L370,348.6z M500.9,217.8l-26.7,26.7l13.1,13.1l26.7-26.7L500.9,217.8z M474.5,430.1
			c2.7,2.7,4.2,6.4,4.2,10.2c0,3.9-1.5,7.5-4.2,10.2l-12,12c0,0-0.1,0.1-0.1,0.1l-12.1,12.1c-2.7,2.7-6.4,4.2-10.2,4.2
			c-3.9,0-7.5-1.5-10.2-4.2l-40.6-40.4c-16.2-16.2-16.6-45.3-16.4-53.5l-85.5-85.5c-4.5,4.7-9,9.4-13.6,14.1
			c-2.5,2.6-5.2,5.1-7.9,7.5c-2.7,2.4-5.5,4.7-8.4,6.9c-10.8,8.1-34.9,26.8-69.4,51.6c-34.4,24.8-79.1,55.5-130.7,87.8
			c-2.2,1.4-4.5,0.8-6-0.7c-1.5-1.5-2.1-3.8-0.7-6c32.2-51.7,63-96.3,87.8-130.7c24.8-34.4,43.5-58.6,51.6-69.3
			c2.2-2.9,4.5-5.7,6.9-8.4c2.4-2.7,4.9-5.4,7.5-7.9c47.9-46.9,98.1-87.3,142.3-119.5s82.4-56.3,106.1-70.5c3.5-2.1,7.3-1.2,9.7,1.2
			c2.4,2.4,3.3,6.2,1.2,9.7c-14.2,23.7-38.3,61.9-70.5,106.1c-27.2,37.3-60.3,79-98.1,119.9l86.2,86.2c9.3-0.1,37,0.8,52.5,16.4
			L474.5,430.1z M295.4,264.7c16.1-19.7,21-39,7.3-52.8c-13.8-13.8-33.1-8.9-52.8,7.3c-21.4,17.6-54.6,41.3-25.2,70.7
			c20.4,20.4,38.1,10.7,52.8-4.3L257,265.1l-6.1,6.1c-2.2,2.2-5.8,2.2-8.1,0c-2.2-2.2-2.2-5.8,0-8.1l20.3-20.3
			c2.2-2.2,5.8-2.2,8.1,0c2.2,2.2,2.2,5.8,0,8.1l-6.1,6.1l20.1,20.1C288.8,272.9,292.2,268.6,295.4,264.7z M437.9,437.8
			c-5.8-9.8-13.2-18.1-21.1-26.1c-8-7.9-16.3-15.3-26.1-21.1c5.8,9.8,13.2,18.1,21.1,26.1C419.8,424.7,428.1,432.1,437.9,437.8z
			 M184.4,429.1c-1.8,0.4-3.7,0.8-5.5,1.3l5.9,5.9c0.4-0.1,0.7-0.2,1.1-0.2c8.5-1.9,17.2-3.8,27.3-12.1l-5.1-5.1
			C199.5,425.7,192.1,427.4,184.4,429.1z M302.3,361.6c-9.9,2.2-20,4.4-32.4,16.7c-7.3,7.3-11.1,13.9-13.4,20l5.6,5.6
			c1.9-6.4,5.2-13,12.8-20.6c10.9-10.9,19.6-12.8,28.8-14.8c9.2-2,18.7-4.1,30-14.5l-5.1-5.1C319,357.9,310.9,359.7,302.3,361.6z
			 M202.5,496.3c-2.3,2.3-4.2,4.5-5.9,6.7l5.1,5.1c1.6-2.2,3.5-4.4,5.9-6.8c6.1-6.1,11.5-9.4,16.7-11.4l-5.4-5.4
			C213.7,486.8,208.3,490.4,202.5,496.3z M253.2,410.7c-1.9,8.6-3.7,16.7-12.6,26.6l5.1,5.1c9.2-10,11.9-18.7,13.9-26.9l-6-6
			C253.4,409.8,253.3,410.2,253.2,410.7z M300.2,408.6c10.9-10.9,19.6-12.8,28.8-14.8c9.2-2,18.7-4.1,30-14.5l-5.1-5.1
			c-9.8,8.9-17.9,10.7-26.5,12.6c-9.9,2.2-20,4.4-32.4,16.7c-7.3,7.3-11.1,13.9-13.4,20l5.6,5.6
			C289.4,422.8,292.6,416.2,300.2,408.6z M193.6,459.2c-5.1,2.4-10.5,5.9-16.3,11.8c-2.3,2.3-4.2,4.5-5.9,6.7l5.1,5.1
			c1.6-2.2,3.5-4.4,5.9-6.8c6.1-6.1,11.5-9.4,16.7-11.4L193.6,459.2z M278.5,435.9c-1.9,8.6-3.7,16.7-12.6,26.6l5.1,5.1
			c9.2-10,11.9-18.7,13.9-26.9l-6-6C278.7,435,278.6,435.5,278.5,435.9z M277.1,336.3c-9.9,2.2-20,4.4-32.4,16.7
			c-7.3,7.3-11.1,13.9-13.4,20l5.6,5.6c1.9-6.4,5.2-13,12.8-20.6c10.9-10.9,19.6-12.8,28.8-14.8c9.2-2,18.7-4.1,30-14.5l-5.1-5.1
			C293.8,332.7,285.7,334.5,277.1,336.3z M168.3,434c-5.1,2.4-10.5,5.9-16.3,11.8c-2.3,2.3-4.2,4.5-5.9,6.7l5.1,5.1
			c1.6-2.2,3.5-4.4,5.9-6.8c6.1-6.1,11.5-9.4,16.7-11.4L168.3,434z M204.1,455.6l5.9,5.9c0.4-0.1,0.7-0.2,1.1-0.2
			c8.5-1.9,17.2-3.8,27.3-12.1l-5.1-5.1c-8.6,6.9-16,8.5-23.7,10.2C207.8,454.7,205.9,455.1,204.1,455.6z M228,385.4
			c-1.9,8.6-3.7,16.7-12.6,26.6l5.1,5.1c9.2-10,11.9-18.7,13.8-26.9l-6-6C228.2,384.6,228.1,385,228,385.4z"/>
	</g>
</g>
</svg>
