<?xml version="1.0" encoding="utf-8"?>
<!-- Generator: Adobe Illustrator 27.8.1, SVG Export Plug-In . SVG Version: 6.00 Build 0)  -->
<svg version="1.1" id="Layer_1" xmlns="http://www.w3.org/2000/svg" xmlns:xlink="http://www.w3.org/1999/xlink" x="0px" y="0px"
	 viewBox="0 0 467 514" style="enable-background:new 0 0 467 514;" xml:space="preserve">
<style type="text/css">
	.st0{clip-path:url(#SVGID_00000172415320086413959040000014708787217631216568_);}
</style>
<g>
	<defs>
		<rect id="SVGID_1_" x="-127" y="-103" width="720" height="720"/>
	</defs>
	<clipPath id="SVGID_00000048489627325403614450000015016228529520093840_">
		<use xlink:href="#SVGID_1_"  style="overflow:visible;"/>
	</clipPath>
	<g style="clip-path:url(#SVGID_00000048489627325403614450000015016228529520093840_);">
		<path d="M324.5,474.9c11.3,12.5,1.8,24,1.8,24c-99.1,45.8-144-26.8-147-31.8c7.7-4.7,20.1-8.1,34.8,0.2
			c30.7,17.3,57.3,21.5,86.3,13.4C315,476.7,320.4,475.2,324.5,474.9z M250,447.9c-0.1,0.2,0.1,0.4,0.2,0.5c22.8,8.9,40,1.3,54-1.6
			c3.8-0.8,14.3-2.7,21-3.3c2.3,3.1,4.2,6.2,5.6,8.8c-5.5-0.6-14.3,0.8-25.4,3.5c-35.5,8.8-40.9,10.1-83.4-10.1
			c-5.8-2.8-11.2-3.9-16.2-3.9c-0.8,0-1.6,0.1-2.4,0.1c6.6-5.1,12.9-8.5,18.4-10.1c5.4-1.6,11.1-2,16.6-1.5l18.5-24.6L239.2,388
			l5.1-5.1l47.5,47.4c12-4.5,21.6,0.5,28.5,7.5c-20.7,2.4-35.5,10.1-48.7,11.1c-6.9,0.8-14,0-21.1-1.2
			C250.3,447.6,250.1,447.8,250,447.9z M250.4,432.8c6.7,2.3,19.7,4.7,34,0.3l-22.3-22.3l-15.7,20.9
			C247.8,432,249.1,432.4,250.4,432.8z M307.1,462.7c-36.8,9.1-43.4,10.7-88.2-10.6c-14.2-6.8-24.1-1.7-31,4.5
			c3-0.8,5.4-1.3,8.9-1.3c6.3,0,13.3,1.6,20.8,5.9c29.3,16.5,53.5,20.4,80.9,12.8c16-4.4,21.6-6,26.6-6.1c1.8-2.4,4.2-4.7,7.4-7.9
			C327.5,458.5,319.4,459.7,307.1,462.7z M214,33.2c29-8,55.6-3.9,86.3,13.4c14.7,8.3,27,4.9,34.8,0.2c-3-5-47.9-77.6-147-31.8
			c0,0-9.5,11.5,1.8,24C194,38.8,199.4,37.3,214,33.2z M275.9,83.7l-18.5,24.6l17.7,17.7l-5.1,5.1l-47.5-47.4
			c-12,4.5-21.6-0.5-28.5-7.5c20.7-2.4,35.5-10.1,48.7-11.1c6.9-0.8,14,0,21.1,1.2c0.2,0,0.4-0.1,0.4-0.3c0.1-0.2-0.1-0.4-0.2-0.5
			c-22.8-8.9-40-1.3-54,1.6c-3.8,0.8-14.3,2.7-21,3.3c-2.3-3.1-4.2-6.2-5.6-8.8c5.5,0.6,14.3-0.8,25.4-3.5
			c35.5-8.8,40.9-10.1,83.4,10.1c5.8,2.8,11.2,3.9,16.2,3.9c0.8,0,1.6-0.1,2.4-0.1c-6.6,5.1-12.9,8.5-18.4,10.1
			C287.1,83.7,281.5,84.2,275.9,83.7z M268,82.3c-1.4-0.3-2.7-0.7-4-1.2c-6.7-2.3-19.7-4.7-34-0.3l22.3,22.3L268,82.3z M467,55.4
			l-8.1-8.1l-85.8,85.7l8.1,8.1L467,55.4z M364.8,250l-129.2,53.8l-3.3,19.3l-11.3-1.9l3.2-18.5l-90.4-52.9l1.9-10.6l53.9-9.2
			c-6.5-23.1-27.8-40.1-53-40.1c-30.3,0-55,24.7-55,55c0,30.3,24.7,55,55,55c15.5,0,29.6-6.5,39.6-16.9l13.9,8.1
			c-13,15-32.1,24.5-53.5,24.5c-39.1,0-70.7-31.7-70.7-70.7s31.7-70.7,70.7-70.7c33,0,60.7,22.6,68.5,53.2l32.9-5.6l6.8-39.7
			c-2.6-0.1-5.2-0.5-7.6-1.3c-8.2-2.7-14.9-9.4-17.3-18l-1.5-5.3c-0.6-2.1,0-4.4,1.6-6c1.6-1.5,3.9-2.1,6-1.4l56.5,18.5
			c3.6,1.2,5.5,5,4.4,8.6c-0.9,2.8-3.5,4.7-6.5,4.7l-24.1,0.1l-6.7,39.3l119.1,5.5L364.8,250z M236,233.6l-28.9,4.9
			c0.2,2.1,0.3,4.1,0.3,6.3c0,8.5-1.5,16.6-4.2,24.1l-13.9-8.1c1.5-5.1,2.4-10.4,2.4-15.9c0-1.2-0.1-2.4-0.1-3.6l-38.5,6.6
			l73.2,42.8L236,233.6z M364.1,237.9l-116.3-5.4l-9.9,57.9L364.1,237.9z M207.3,51.3c36.8-9.1,43.4-10.7,88.2,10.6
			c14.2,6.8,24.1,1.7,31-4.5c-3,0.8-5.4,1.3-8.9,1.3c-6.3,0-13.3-1.6-20.8-5.9c-29.3-16.5-53.5-20.4-80.9-12.8
			c-16,4.4-21.6,6-26.6,6.1c-1.8,2.4-4.2,4.7-7.4,7.9C186.9,55.5,195,54.3,207.3,51.3z M433.3,338.7c0-33.7-23.6-61.9-55.3-69
			l2.6-15l2.1,0.4l6.4-37.4l19.9,3.5l2-11.2l-20.3-3.6c-6-0.9-11.8,3.2-12.8,9.2l-6.5,37.6l2.1,0.4L359,338.1l7,1.2l9.3-54.1
			c24.2,5.8,42.2,27.6,42.2,53.5c0,30.3-24.7,55-55,55c-30.3,0-55-24.7-55-55c0-29.8,23.9-54.2,53.6-54.9l2.7-15.7
			c-0.4,0-0.9,0-1.3,0c-39.1,0-70.7,31.7-70.7,70.7c0,39,31.7,70.7,70.7,70.7C401.6,409.4,433.3,377.7,433.3,338.7z M399.4,407.2
			l59.5,59.4l8.1-8.1l-57.7-57.7C406.2,403.2,402.9,405.3,399.4,407.2z M47.4,458.6l8.1,8.1l85.8-85.7l-8.1-8.1L47.4,458.6z
			 M68.7,206.8L2.3,184.5L0,191.3l65.5,22C66.4,211,67.5,208.9,68.7,206.8z M141.3,133.1L55.5,47.4l-8.1,8.1l85.8,85.7L141.3,133.1z
			 M86.2,185.5L2.3,157.4L0,164.2l80.3,26.9C82.2,189.1,84.1,187.3,86.2,185.5z M60,231L2.3,211.6L0,218.4l59,19.8
			C59.2,235.7,59.6,233.3,60,231z"/>
	</g>
</g>
</svg>
