<?xml version="1.0" encoding="utf-8"?>
<!-- Generator: Adobe Illustrator 27.8.1, SVG Export Plug-In . SVG Version: 6.00 Build 0)  -->
<svg version="1.1" id="Layer_1" xmlns="http://www.w3.org/2000/svg" xmlns:xlink="http://www.w3.org/1999/xlink" x="0px" y="0px"
	 viewBox="0 0 419.8 514" style="enable-background:new 0 0 419.8 514;" xml:space="preserve">
<style type="text/css">
	.st0{clip-path:url(#SVGID_00000069374779732917403260000006902477908544673722_);}
</style>
<g>
	<defs>
		<rect id="SVGID_1_" x="-150.6" y="-103.5" width="720" height="720"/>
	</defs>
	<clipPath id="SVGID_00000124857665168601760070000017243742716033571482_">
		<use xlink:href="#SVGID_1_"  style="overflow:visible;"/>
	</clipPath>
	<g style="clip-path:url(#SVGID_00000124857665168601760070000017243742716033571482_);">
		<path d="M85.8,372.9l8.1,8.1L8.1,466.7L0,458.6L85.8,372.9z M326,381l85.8,85.7l8.1-8.1l-85.8-85.7L326,381z M419.8,55.4l-8.1-8.1
			l-51,51l8.1,8.1L419.8,55.4z M93.8,133L8.1,47.4L0,55.4l85.8,85.7L93.8,133z M132.2,182.9c-1.2-1.8-1.3-4.2-0.3-6.2
			c1-2,3.1-3.2,5.3-3.2h59.5c3.8,0,6.8,3.1,6.8,6.8c0,2.9-1.9,5.5-4.7,6.5l-21.5,7.2l3.9,17.6l116.7-26l3.8,16.8l-105.5,76.2
			l4.9,22.1l-11.2,2.5l-4.7-21.3h-99L83,271.5l40.1-25.5c-8.8-10.7-22.1-17.5-37-17.5c-26.4,0-47.9,21.5-47.9,47.8
			s21.5,47.8,47.9,47.8c21.9,0,40.5-14.8,46.1-35h23.5c-6,32.9-34.9,57.8-69.6,57.8c-39.1,0-70.8-31.7-70.8-70.7
			c0-39,31.7-70.7,70.8-70.7c34.7,0,63.5,24.9,69.6,57.8h-23.5c-0.8-2.7-1.8-5.4-3-7.9l-23.5,15h76.9l-9.5-42.9l-18.4,11.7
			c-1.8-3.4-3.9-6.6-6.2-9.6l21.9-14l-4-18.1l-0.8,0.3c-2.7,0.9-5.5,1.3-8.3,1.3c-8.7,0-17-4.3-22-11.8L132.2,182.9z M183.7,222.8
			l9.7,43.8l92-66.4L183.7,222.8z M204.5,424.2l-11.2-12.9c-8.3,8.8-14.6,19.5-18.3,31.3H201l4.8-10
			C207.1,429.9,206.6,426.5,204.5,424.2z M172.4,384.4c0,0-3.8,7.8,1.6,18.4h21.2l14.7,16.8c3.9,4.5,4.8,10.9,2.2,16.3l-2.2,4.5
			l67.2,38c3.8-6.7,7-15,8.1-25.9l-83.1-83L172.4,384.4z M173.2,449.8L173.2,449.8c0,0-1.9,8.5-1.7,16.1h-24.8l-16.6,8.8l41.4,14.1
			c10.7,3.7,21.2,7.9,31.3,12.9c9.7,4.8,26.2,11.2,46.9,12.2c1.6-5.4,4.8-10.1,9.7-15c3.1-3.1,7.1-6.7,11.1-11.3l-66.9-37.8
			L173.2,449.8L173.2,449.8z M325,277.5l11.2-2.5l-10.3-46.4c1.6-0.2,3.1-0.2,4.7-0.2c26.4,0,47.9,21.5,47.9,47.8
			s-21.5,47.8-47.9,47.8c-26.4,0-47.9-21.5-47.9-47.8c0-18.5,10.6-34.6,26-42.5l-5.1-22.8c-25.7,10.6-43.8,35.9-43.8,65.3
			c0,39,31.7,70.7,70.8,70.7c39.1,0,70.8-31.7,70.8-70.7c0-39-31.7-70.7-70.8-70.7c-3.3,0-6.5,0.3-9.7,0.7l-9.2-41.3l18.6-4.1
			l-17.5-78.6l-11.2,2.5l15,67.5l-18.6,4.1L325,277.5z M247.4,129.6c0,0,3.8-7.8-1.6-18.4h-21.2l-14.7-16.8
			c-3.9-4.5-4.8-10.9-2.2-16.3l2.2-4.5l-67.2-38c-3.8,6.7-7,15-8.1,25.9l83.1,83L247.4,129.6z M215.3,89.8l11.2,12.8
			c8.3-8.8,14.6-19.5,18.3-31.3h-25.9l-4.8,10C212.8,84.1,213.2,87.5,215.3,89.8z M246.6,64.2L246.6,64.2c0,0,1.9-8.5,1.7-16.1h24.8
			l16.6-8.8l-41.4-14.1c-10.7-3.7-21.2-7.9-31.3-12.9C207.2,7.4,190.8,1,170,0c-1.6,5.4-4.8,10.1-9.7,15c-3.1,3.1-7.1,6.7-11.1,11.3
			l66.9,37.8L246.6,64.2L246.6,64.2z"/>
	</g>
</g>
</svg>
