<?xml version="1.0" encoding="utf-8"?>
<!-- Generator: Adobe Illustrator 27.8.1, SVG Export Plug-In . SVG Version: 6.00 Build 0)  -->
<svg version="1.1" id="Layer_1" xmlns="http://www.w3.org/2000/svg" xmlns:xlink="http://www.w3.org/1999/xlink" x="0px" y="0px"
	 viewBox="0 0 514 514" style="enable-background:new 0 0 514 514;" xml:space="preserve">
<style type="text/css">
	.st0{clip-path:url(#SVGID_00000094594894443131247410000011835732449806295191_);}
</style>
<g>
	<defs>
		<rect id="SVGID_1_" x="-103" y="-103" width="720" height="720"/>
	</defs>
	<clipPath id="SVGID_00000128485673752498549640000001975589787990351019_">
		<use xlink:href="#SVGID_1_"  style="overflow:visible;"/>
	</clipPath>
	<g style="clip-path:url(#SVGID_00000128485673752498549640000001975589787990351019_);">
		<path d="M74.9,200.7c1.3,0,2.6-0.1,3.8-0.2L5.1,274.2l-5.1-5l68.8-68.8C70.8,200.5,72.8,200.7,74.9,200.7z M53.5,195.6
			c-2.2-1.1-4.3-2.4-6.3-3.8L0,239l5.1,5.1L53.5,195.6z M299.2,0L0,299.2l8.1,8.1L307.3,8.1L299.2,0z M268,147.2l20.2-20.2l-5.1-5.1
			L263,142.1L268,147.2z M197.5,217.7l20.2-20.2l-5.1-5.1l-20.2,20.2L197.5,217.7z M508.9,270l-48.4,48.4c2.2,1.1,4.3,2.4,6.3,3.8
			L514,275L508.9,270z M162.2,253l20.2-20.2l-5.1-5.1l-20.2,20.2L162.2,253z M435.3,313.5c1.3-0.1,2.6-0.2,3.8-0.2c2,0,4,0.1,6,0.4
			l68.8-68.8l-5.1-5.1L435.3,313.5z M482.5,427.2c0.4,1.2,0.1,2.4-0.8,3.3L464.5,448c-1.4,1.4-3.7,1.4-5.1,0
			c-1.1-1.1-1.4-2.8-0.7-4.2l3.4-7l-23.4-13.1L402,460.3l-20.8-10.1c0.1-0.7,0.1-1.4,0.1-2.2c0-16.1-13.1-29.2-29.2-29.2
			c-16.1,0-29.2,13.1-29.2,29.2c0,16.1,13.1,29.2,29.2,29.2c10.3,0,19.3-5.3,24.5-13.4l-26.1-12.6l3.1-6.4l55.1,26.6
			c2,1,3.5,2.9,3.8,5.1s-0.4,4.5-2,6.1l-9.7,9.7c-1.7,1.7-4.2,2.4-6.5,1.9c-2.4-0.6-4.2-2.3-5-4.6l-3-8.9l6.8-2.3l2.9,8.7l9.4-9.4
			l-18.5-8.9c-7.1,11.9-20,19.8-34.9,19.8c-22.4,0-40.6-18.2-40.6-40.6c0-22.4,18.2-40.6,40.6-40.6c20.3,0,37.1,14.8,40.1,34.3
			l8.3-39.4l-15.2-8.5l3.5-6.2l36.4,20.3l10.4-47.6l7,1.5l-10.9,49.7l33.6,18.8c2.1-3.8,6-6.1,10.3-6.1c0.7,0,1.5,0.1,2.2,0.2
			l2.2,0.4C481.2,425.2,482.1,426,482.5,427.2z M432.2,420.1l-25.1-14l-10.5,49.7L432.2,420.1z M443.8,389.9l-2.6,11.8
			c21.5-1.1,38.5-18.8,38.5-40.6c0-22.4-18.2-40.6-40.6-40.6c-22.4,0-40.6,18.2-40.6,40.6c0,15.6,8.8,29.2,21.8,36l2.6-11.7
			c-7.8-5.2-12.9-14.1-12.9-24.2c0-16.1,13.1-29.2,29.2-29.2s29.2,13.1,29.2,29.2C468.3,375.6,457.7,387.7,443.8,389.9z
			 M303.3,111.9l20.2-20.2l-5.1-5.1l-20.2,20.2L303.3,111.9z M358.7,56.5l-5.1-5.1l-20.2,20.2l5.1,5.1L358.7,56.5z M232.8,182.4
			l20.2-20.2l-5.1-5.1l-20.2,20.2L232.8,182.4z M301.3,321.5l20.2-20.2l-5.1-5.1l-20.2,20.2L301.3,321.5z M155.3,457.5l5.1,5.1
			l20.2-20.2l-5.1-5.1L155.3,457.5z M266.1,356.8l20.2-20.2l-5.1-5.1L261,351.8L266.1,356.8z M230.8,392.1l20.2-20.2l-5.1-5.1
			L225.8,387L230.8,392.1z M210.7,402.1l-20.2,20.2l5.1,5.1l20.2-20.2L210.7,402.1z M505.9,206.7L206.7,505.9l8.1,8.1L514,214.8
			L505.9,206.7z M127,288.2l20.2-20.2l-5.1-5.1l-20.2,20.2L127,288.2z M458.6,47.4L47.4,458.6l8.1,8.1L466.6,55.4L458.6,47.4z
			 M56.5,358.7l20.2-20.2l-5.1-5.1l-20.2,20.2L56.5,358.7z M336.6,286.3l20.2-20.2l-5.1-5.1l-20.2,20.2L336.6,286.3z M91.7,323.5
			l20.2-20.2l-5.1-5.1l-20.2,20.2L91.7,323.5z M371.9,251l20.2-20.2l-5.1-5.1L366.8,246L371.9,251z M442.4,180.5l20.2-20.2l-5.1-5.1
			l-20.2,20.2L442.4,180.5z M407.1,215.8l20.2-20.2l-5.1-5.1l-20.2,20.2L407.1,215.8z M115.5,152.9c0-15.6-8.8-29.2-21.8-36
			l-2.6,11.7c7.8,5.2,12.9,14.1,12.9,24.2c0,16.1-13.1,29.2-29.2,29.2S45.7,169,45.7,152.9c0-14.5,10.6-26.6,24.5-28.8l2.6-11.8
			c-21.5,1.1-38.6,18.8-38.6,40.6c0,22.4,18.2,40.6,40.6,40.6S115.5,175.3,115.5,152.9z M31.5,86.8c-0.4-1.2-0.1-2.4,0.8-3.3
			L49.5,66c1.4-1.4,3.7-1.4,5.1,0c1.1,1.1,1.4,2.8,0.7,4.2l-3.4,7l23.4,13.1L112,53.7l20.8,10.1c-0.1,0.7-0.1,1.4-0.1,2.2
			c0,16.1,13.1,29.2,29.2,29.2c16.1,0,29.2-13.1,29.2-29.2c0-16.1-13.1-29.2-29.2-29.2c-10.3,0-19.3,5.3-24.5,13.4l26.1,12.6
			l-3.1,6.4l-55.1-26.6c-2-1-3.5-2.9-3.8-5.1c-0.4-2.2,0.4-4.5,2-6.1l9.7-9.7c1.7-1.7,4.2-2.4,6.5-1.9c2.4,0.6,4.2,2.3,5,4.6l3,8.9
			l-6.8,2.3l-2.9-8.7l-9.4,9.4l18.5,8.9c7.1-11.9,20-19.8,34.9-19.8c22.4,0,40.6,18.2,40.6,40.6c0,22.4-18.2,40.6-40.6,40.6
			c-20.3,0-37.1-14.8-40.1-34.3l-8.3,39.4l15.2,8.5l-3.5,6.2l-36.4-20.3l-10.4,47.6l-7-1.5l10.9-49.7L48.7,83.7
			c-2.1,3.8-6,6.1-10.3,6.1c-0.7,0-1.5-0.1-2.2-0.2L34,89.1C32.8,88.8,31.9,88,31.5,86.8z M81.8,93.9l25.1,14l10.5-49.7L81.8,93.9z"
			/>
	</g>
</g>
</svg>
