<?xml version="1.0" encoding="utf-8"?>
<!-- Generator: Adobe Illustrator 27.8.1, SVG Export Plug-In . SVG Version: 6.00 Build 0)  -->
<svg version="1.1" id="Layer_1" xmlns="http://www.w3.org/2000/svg" xmlns:xlink="http://www.w3.org/1999/xlink" x="0px" y="0px"
	 viewBox="0 0 481 514" style="enable-background:new 0 0 481 514;" xml:space="preserve">
<style type="text/css">
	.st0{clip-path:url(#SVGID_00000183240427572324432400000010136845057502190762_);}
</style>
<g>
	<defs>
		<rect id="SVGID_1_" x="-120" y="-103" width="720" height="720"/>
	</defs>
	<clipPath id="SVGID_00000009552923486932332840000014412267225095692966_">
		<use xlink:href="#SVGID_1_"  style="overflow:visible;"/>
	</clipPath>
	<g style="clip-path:url(#SVGID_00000009552923486932332840000014412267225095692966_);">
		<path d="M297,443.8c0-0.7,0-1.4,0-2c0-3,0.3-6,0.9-8.9l-3.9,3.9c-62.9,63-164.5,64.3-229,4L76.7,429c58.2,54,149.1,52.7,205.7-4
			l126.1-126.1c56.6-56.6,57.9-147.6,4-205.8l37.6-37.7l-8.1-8.1l-20.9,20.9C354.5,5.8,249.9,6.4,184,70.2c0,0.7,0,1.4,0,2
			c0,3-0.3,6-0.9,8.9l3.9-3.9c62.9-62.9,164.5-64.3,229-4L404.3,85c-58.2-53.9-149.1-52.6-205.7,4L72.5,215.1
			c-56.6,56.6-57.9,147.6-4,205.8l-37.6,37.7l8.1,8.1l20.9-20.9C126.5,508.2,231.1,507.5,297,443.8z M80.6,223.2L206.7,97
			c52.1-52.1,135.8-53.4,189.5-3.9L370,119.4c1.4,1.3,2.8,2.6,4.2,3.9c1.4,1.4,2.7,2.8,3.9,4.2l26.2-26.3
			c49.5,53.7,48.2,137.5-3.9,189.6L274.3,416.9c-52.1,52.1-135.8,53.4-189.5,3.9l26.2-26.3c-1.4-1.3-2.8-2.6-4.2-3.9
			c-1.4-1.4-2.7-2.8-3.9-4.2l-26.2,26.3C27.2,359.1,28.5,275.3,80.6,223.2z M122,375.6c1.4,1.4,2.8,2.6,4.2,3.9l27.9-27.9
			c15.4,11.5,37.2,10.2,51.2-3.7l126-126.1c14-14,15.2-35.8,3.7-51.2l27.9-27.9c-1.2-1.4-2.5-2.8-3.9-4.2c-1.4-1.4-2.8-2.6-4.2-3.9
			l-27.9,27.9c-15.4-11.5-37.2-10.2-51.2,3.7l-126,126.1c-14,14-15.2,35.8-3.7,51.2l-27.9,27.9C119.3,372.8,120.6,374.2,122,375.6z
			 M326.2,216.7l-126,126.1c-11.2,11.2-28.5,12.4-41,3.7l170.7-170.8C338.6,188.2,337.4,205.5,326.2,216.7z M154.8,297.3l126-126.1
			c11.2-11.2,28.5-12.4,41-3.7L151.1,338.3C142.4,325.8,143.6,308.5,154.8,297.3z M243,385.7l126.1-126.1c36.2-36.2,36.2-95,0-131.2
			c-36.1-36.2-95-36.2-131.1,0L111.9,254.5c-36.2,36.2-36.2,95,0,131.2C148,421.8,206.9,421.8,243,385.7z M116.9,259.5L243,133.4
			c33.4-33.4,87.7-33.4,121,0s33.4,87.7,0,121.1L238,380.6c-33.4,33.4-87.7,33.4-121,0S83.5,292.9,116.9,259.5z M51.4,197.9
			c-20.1,0-36.4-16.3-36.4-36.4c0-13.1,7-24.7,17.4-31.1L48.2,163l6.4-3.1l-15.8-32.6c3.9-1.4,8.1-2.2,12.6-2.2
			c20.1,0,36.4,16.3,36.4,36.4S71.5,197.9,51.4,197.9z M104.3,75.8c-0.1-1.2-0.2-2.3-0.2-3.5c0-20.1,16.3-36.4,36.4-36.4
			s36.4,16.3,36.4,36.4s-16.3,36.4-36.4,36.4c-16.5,0-30.4-10.9-34.9-25.9l35.6-7l-1.4-7L104.3,75.8z M29.2,123.9L96,109.5l8.5,15.2
			l6.2-3.5L67.9,44.7c4.3-2.5,6.5-7.5,5.5-12.4L73,30.1c-0.2-1.2-1.1-2.2-2.3-2.5c-1.2-0.4-2.4,0-3.3,0.8L50.1,45.8
			c-1.4,1.4-1.4,3.7,0,5.1c0.7,0.7,1.6,1.1,2.6,1.1c0.6,0,1.1-0.1,1.6-0.4l7.2-3.6l13.1,23.4l-42.4,42.4l-6.1-12.6
			c-1-2-2.9-3.4-5.1-3.8c-2.2-0.4-4.5,0.4-6.1,1.9L0,114.3l5,5.1l14.8-14.7L29.2,123.9z M78.2,77.8L92.3,103l-50,10.8L78.2,77.8z
			 M429.7,316.1c20.1,0,36.4,16.3,36.4,36.4c0,13.1-7,24.7-17.4,31.1l-15.8-32.6l-6.4,3.1l15.8,32.6c-3.9,1.4-8.1,2.2-12.6,2.2
			c-20.1,0-36.4-16.3-36.4-36.4C393.2,332.4,409.5,316.1,429.7,316.1z M376.8,438.1c0.1,1.2,0.2,2.3,0.2,3.5
			c0,20.1-16.3,36.4-36.4,36.4c-20.1,0-36.4-16.3-36.4-36.4s16.3-36.4,36.4-36.4c16.5,0,30.4,10.9,34.9,25.9l-35.6,7l1.4,7
			L376.8,438.1z M476,394.6l-14.8,14.7l-9.4-19.3L385,404.4l-8.5-15.2l-6.2,3.5l42.8,76.6c-4.3,2.5-6.5,7.5-5.5,12.4l0.4,2.2
			c0.2,1.2,1.1,2.2,2.3,2.5c1.2,0.4,2.4,0,3.3-0.8l17.4-17.4c1.4-1.4,1.4-3.7,0-5.1c-0.7-0.7-1.6-1.1-2.6-1.1
			c-0.6,0-1.1,0.1-1.6,0.4l-7.2,3.6l-13.1-23.4l42.4-42.4l6.1,12.6c1,2,2.9,3.4,5.1,3.8s4.5-0.4,6.1-1.9l15-14.9L476,394.6z
			 M402.8,436.1l-14.1-25.2l50-10.8L402.8,436.1z M179.7,53.3c-1-2.2-2.3-4.2-3.7-6.2C223.2,6.3,285.5-8,343.3,4.2l-2.7,6.7
			C284.8-0.4,225,13.7,179.7,53.3z M301.2,460.7c1,2.2,2.3,4.2,3.7,6.2c-47.2,40.7-109.5,55.1-167.2,42.9l2.7-6.7
			C196.1,514.4,256,500.3,301.2,460.7z"/>
	</g>
</g>
</svg>
