<?xml version="1.0" encoding="utf-8"?>
<!-- Generator: Adobe Illustrator 27.8.1, SVG Export Plug-In . SVG Version: 6.00 Build 0)  -->
<svg version="1.1" id="Layer_1" xmlns="http://www.w3.org/2000/svg" xmlns:xlink="http://www.w3.org/1999/xlink" x="0px" y="0px"
	 viewBox="0 0 419 514" style="enable-background:new 0 0 419 514;" xml:space="preserve">
<style type="text/css">
	.st0{clip-path:url(#SVGID_00000039823324058088053010000015383698772448724133_);}
</style>
<g>
	<defs>
		<rect id="SVGID_1_" x="-151" y="-103" width="720" height="720"/>
	</defs>
	<clipPath id="SVGID_00000063598739146327922710000018445790570149790848_">
		<use xlink:href="#SVGID_1_"  style="overflow:visible;"/>
	</clipPath>
	<g style="clip-path:url(#SVGID_00000063598739146327922710000018445790570149790848_);">
		<path d="M329.1,368.6l89.9,90l-8.1,8.1l-89.9-90l-10-10l8.1-8.1L329.1,368.6z M348.8,284l2.4,6.7c30.8-10.8,53.7-37.3,60-69.2
			l-7-1.4C398.4,249.6,377.2,274.1,348.8,284z M271.9,420.6c6.3,11.5,9.4,28.5,0.7,46.9H265c-2,0-3.6,1.6-3.6,3.6
			c0,2,1.6,3.6,3.6,3.6h3.6c-1.9,3-4.1,5.9-6.7,8.9c0.2-1.1-0.2-2.3-1-3.2c-0.7-0.7-1.6-1-2.5-1c-0.9,0-1.9,0.4-2.6,1.1l-8,8.3
			c-1.4,1.4-1.3,3.7,0.1,5.1c0.7,0.7,1.7,1,2.6,1c-2.8,2.3-5.7,4.7-9,7c0,0,0,0-0.1,0v-3.6c0-2-1.6-3.6-3.6-3.6s-3.6,1.6-3.6,3.6
			v8.2c-21.6,12.2-39.3,8.3-55.2-1.6l2.4-2.8c1.3-1.5,1.1-3.8-0.4-5c-1.5-1.3-3.8-1.1-5,0.4l-2.8,3.4c-4-2.9-7.9-6.2-11.7-9.6
			l26-30.8c6.1-7.5-3-11.2-3.4-14.6c-0.5-3.8,0.9-6.6,2.8-8.7v-34.2l-14.5-26.1l6.2-3.5l13.9,25.1h31.6c5.6-4.1,13.5-6.9,19.4-4.3
			C243.6,394,261.8,402.1,271.9,420.6z M217.8,405.4H194v27.4l13.8,3.9c7,1.8,13.5,2.7,17-2.6c3.1-4.6,4.7-7.5,6.2-12
			C233.9,414,220.9,407.5,217.8,405.4z M255.3,414.5c-1.5-1.3-3.8-1.1-5,0.4l-8.4,10c-1.3,1.5-1.1,3.8,0.4,5c1.5,1.3,3.8,1.1,5-0.4
			l8.4-10C257,418,256.8,415.8,255.3,414.5z M419,55.3l-8.1-8.1l-79.4,79.4c4.5,0.6,8.8,1.6,13.1,3L419,55.3z M147.1,93.4
			c-6.3-11.5-9.4-28.5-0.7-46.9h7.6c2,0,3.6-1.6,3.6-3.6c0-2-1.6-3.6-3.6-3.6h-3.6c1.9-3,4.1-5.9,6.7-8.9c-0.2,1.1,0.2,2.3,1,3.2
			c0.7,0.7,1.6,1,2.5,1c0.9,0,1.9-0.4,2.6-1.1l8-8.3c1.4-1.4,1.3-3.7-0.1-5.1c-0.7-0.7-1.7-1-2.6-1c2.8-2.3,5.7-4.7,9-7
			c0,0,0,0,0.1,0v3.6c0,2,1.6,3.6,3.6,3.6c2,0,3.6-1.6,3.6-3.6V7.6c21.6-12.2,39.3-8.3,55.2,1.6l-2.4,2.8c-1.3,1.5-1.1,3.8,0.4,5
			c1.5,1.3,3.8,1.1,5-0.4l2.8-3.4c4,2.9,7.9,6.2,11.7,9.6l-26,30.8c-6.1,7.5,3,11.2,3.4,14.6c0.5,3.8-0.9,6.6-2.8,8.7v34.2
			l14.5,26.1l-6.2,3.5l-13.9-25.1h-31.6c-5.6,4.1-13.5,6.9-19.4,4.3C175.4,120,157.2,111.9,147.1,93.4z M201.2,108.6h23.8V81.2
			l-13.8-3.9c-7-1.8-13.5-2.7-17,2.6c-3.1,4.6-4.7,7.5-6.2,12C185.1,100,198.1,106.5,201.2,108.6z M163.6,99.5
			c1.5,1.3,3.8,1.1,5-0.4l8.4-10c1.3-1.5,1.1-3.8-0.4-5c-1.5-1.3-3.8-1.1-5,0.4l-8.4,10C161.9,96,162.1,98.2,163.6,99.5z
			 M152.1,378.9L91.9,270.3l-10,5.5l23,41.5c-1.5,0.6-2.9,1.1-4.5,1.6c-25.3,7.5-51.9-7-59.4-32.3c-7.5-25.3,7-52,32.3-59.5
			c25.3-7.5,51.9,7,59.4,32.3c5.2,17.7-0.3,36.1-12.8,48.1l11.3,20.4c21.6-17.4,31.7-46.8,23.4-75.1c-11.1-37.4-50.4-58.8-87.8-47.7
			c-37.4,11.1-58.8,50.4-47.7,87.8c11.1,37.4,50.4,58.8,87.8,47.7c3.2-0.9,6.2-2.1,9.1-3.4l20.5,37l-16.6,9.2l25.1,45.2l10-5.5
			l-19.5-35.2L152.1,378.9z M305.3,312.2c-0.4,2.2-2.1,3.9-4.2,4.6l-56.9,16.8c-3.6,1.1-7.4-1-8.5-4.6c-0.8-2.8,0.2-5.9,2.6-7.5
			l18.5-13l-8.7-15.8l-104.3,58l-8.4-15.1l79.4-103l-11-19.8l10-5.5l10.6,19.1l94.8-28.1l5.9,9.2L294,243.3
			c11.4,7.8,26.1,10.5,40.4,6.3c25.3-7.5,39.7-34.2,32.3-59.5c-7.5-25.3-34.1-39.8-59.4-32.3c-21,6.2-34.5,25.7-34.2,46.6l-22.4,6.7
			c-3.5-33.3,17-65.4,50.2-75.2c37.4-11.1,76.7,10.3,87.8,47.7c11.1,37.4-10.3,76.8-47.7,87.8c-33.2,9.8-67.9-5.9-83-35.8l22.4-6.7
			c1.5,2.4,3.2,4.6,5.1,6.7l18.3-21.1l-73.6,21.8l21.3,38.5l14.3-16.4c2.7,2.7,5.6,5.2,8.6,7.5l-17,19.6l9,16.2l0.7-0.5
			c2.4-1.6,4.9-2.9,7.6-3.7c8.3-2.5,17.5-0.7,24.4,5l4.2,3.5C304.9,307.8,305.7,310,305.3,312.2z M242.6,282.7l-21.7-39.2
			l-69.2,89.8L242.6,282.7z M160.2,230.3l6.1-3.6c-11.4-19.5-29.5-34.1-50.8-41.1l-2.2,6.8C133,198.8,149.7,212.2,160.2,230.3z
			 M107.9,147.3L8.1,47.3L0,55.4l99.9,100L107.9,147.3z M0.8,458.1l8.1,8.1l89.9-90l-8.1-8.1L0.8,458.1z"/>
	</g>
</g>
</svg>
