<?xml version="1.0" encoding="utf-8"?>
<!-- Generator: Adobe Illustrator 27.8.1, SVG Export Plug-In . SVG Version: 6.00 Build 0)  -->
<svg version="1.1" id="Layer_1" xmlns="http://www.w3.org/2000/svg" xmlns:xlink="http://www.w3.org/1999/xlink" x="0px" y="0px"
	 viewBox="0 0 514 514" style="enable-background:new 0 0 514 514;" xml:space="preserve">
<style type="text/css">
	.st0{clip-path:url(#SVGID_00000100367211641814492070000018242309208425638579_);}
</style>
<g>
	<defs>
		<rect id="SVGID_1_" x="-103" y="-103" width="720" height="720"/>
	</defs>
	<clipPath id="SVGID_00000023281931339176554490000018126438974413487244_">
		<use xlink:href="#SVGID_1_"  style="overflow:visible;"/>
	</clipPath>
	<g style="clip-path:url(#SVGID_00000023281931339176554490000018126438974413487244_);">
		<path d="M62.9,160.6c0-5.5,4.5-10,10-10c5.5,0,10,4.5,10,10c0,5.5-4.5,10-10,10C67.3,170.6,62.9,166.2,62.9,160.6z M151.4,48.8
			c-5.5,0-10,4.5-10,10c0,5.5,4.5,10,10,10c5.5,0,10-4.5,10-10C161.4,53.3,156.9,48.8,151.4,48.8z M363.3,117.9c5.5,0,10-4.5,10-10
			c0-5.5-4.5-10-10-10c-5.5,0-10,4.5-10,10C353.3,113.5,357.8,117.9,363.3,117.9z M106.6,285.7c0-0.3,0-0.6,0-0.9
			c0.2-20.8-13.4-35.8-26.2-41c-1.8-0.7-1.4-3.4,0.4-3.6c4.1-0.5,18.7,0,23.5-0.9c14.4-2.9,24.4-13.1,27.5-24.4
			c3.5-12.8,20.2-12.6,22,6c1.3,13.4,14,21.7,21,22.9c6.8,1.2,11.1-0.6,14.9-0.6c6.2,0,11.2,5.5,10.5,12.1
			c-0.5,5.7-5.4,9.8-10.8,9.9c-7.9,0.1-15.8-1.3-26.5-2c-19.9-1.3-41.3,8.1-52.1,24.1C109.6,289.1,106.6,288.1,106.6,285.7z
			 M131.8,241.2c0,5.5,4.5,10,10,10c5.5,0,10-4.5,10-10c0-5.5-4.5-10-10-10C136.2,231.2,131.8,235.7,131.8,241.2z M32.4,315.2
			c-5.5,0-10,4.5-10,10c0,5.5,4.5,10,10,10c5.5,0,10-4.5,10-10C42.3,319.7,37.9,315.2,32.4,315.2z M32.6,155.3
			c5.7-5.8,6.1-6.3,12.9-13.3c11.2-11.4,17.6-14,24.6-14c1.3,0,2.6,0.1,3.9,0.2c10.6,1.1,17.5,10.7,23.7,23.6
			c9.5,20.1-8.3,34.7-23.5,34.7c-2.4,0-4.7-0.4-6.9-1.1c-2.3-0.8-4.5-1.2-6.6-1.2c-12.3,0-20.9,12.2-30.2,12.2c-2.8,0-5.7-1.1-8.8-4
			C10.1,181.4,16.5,171.7,32.6,155.3z M22.9,181c0,0.7,0,2.7,3.7,6.2c2.2,2.1,3.4,2.1,3.8,2.1c2.3,0,5.8-2.2,9.1-4.4
			c5.5-3.5,12.4-7.8,21-7.8c3,0,6,0.5,9,1.6c1.3,0.5,2.8,0.7,4.5,0.7c6.6,0,13.5-3.7,16.8-9c2.9-4.5,2.9-9.7,0.2-15.4
			c-6.1-12.9-11.6-18.9-17.9-19.5c-1.3-0.1-2.3-0.2-3.2-0.2c-4.1,0-8.7,0.9-19.5,11.9c-3.4,3.5-5.2,5.3-6.9,7.1
			c-1.7,1.7-3.2,3.3-6.1,6.2C30,168.2,22.9,176.1,22.9,181z M161.7,134.7c5.5,0,10-4.5,10-10c0-5.5-4.5-10-10-10
			c-5.5,0-10,4.5-10,10C151.7,130.2,156.2,134.7,161.7,134.7z M51.2,370.9c-1.7,0.4-3.3,0.6-4.7,0.6c-8.8,0-14.3-8.3-37.9-30.5
			c-6-5.7-8.5-11.6-8.6-17.2C0,306.4,24.1,291,43.3,291c12.4,0,22.7,6.4,23.2,22.8C67.4,351,65.9,367.3,51.2,370.9z M49.5,364
			c3.1-0.8,6.3-2.2,8.3-10.6c1.9-8.5,2-21.9,1.6-39.3c-0.3-10.7-5.5-15.8-16-15.8c-7.9,0-17.3,3.3-24.7,8.5
			c-7.3,5.2-11.5,11.5-11.5,17.2c0,4,2.1,8.1,6.3,12c6,5.6,10.9,10.4,14.8,14.3c10.8,10.6,14.7,14.2,18.2,14.2
			C47.2,364.4,48.2,364.3,49.5,364z M352.3,379.3c-5.5,0-10,4.5-10,10c0,5.5,4.5,10,10,10c5.5,0,10-4.5,10-10
			C362.3,383.8,357.8,379.3,352.3,379.3z M407.4,228.3c0,0.3,0,0.6,0,0.9c-0.2,20.8,13.4,35.8,26.2,41c1.8,0.7,1.4,3.4-0.4,3.6
			c-4.1,0.5-18.7,0-23.5,0.9c-14.4,2.9-24.4,13.1-27.5,24.4c-3.5,12.8-20.2,12.6-22-6c-1.3-13.4-14-21.7-21-22.9
			c-6.8-1.2-11.1,0.6-14.9,0.6c-6.2,0-11.2-5.5-10.5-12.1c0.5-5.7,5.4-9.8,10.8-9.9c7.9-0.1,15.8,1.3,26.5,2
			c19.9,1.3,41.3-8.1,52.1-24.1C404.4,224.9,407.4,225.9,407.4,228.3z M382.2,272.8c0-5.5-4.5-10-10-10c-5.5,0-10,4.5-10,10
			c0,5.5,4.5,10,10,10C377.8,282.8,382.2,278.3,382.2,272.8z M441.1,343.4c-5.5,0-10,4.5-10,10c0,5.5,4.5,10,10,10
			c5.5,0,10-4.5,10-10C451.1,347.8,446.7,343.4,441.1,343.4z M514,190.1c0,17.5-24.1,32.8-43.3,32.8c-12.4,0-22.7-6.4-23.2-22.8
			c-1-37.2,0.6-53.5,15.3-57.1c1.7-0.4,3.3-0.6,4.7-0.6c8.8,0,14.3,8.3,37.9,30.5C511.5,178.6,514,184.5,514,190.1z M506.9,190.2
			c0-4-2.1-8.1-6.3-12c-6-5.6-10.9-10.4-14.8-14.3c-10.8-10.6-14.7-14.2-18.2-14.2c-0.8,0-1.8,0.1-3,0.4c-3.1,0.8-6.3,2.2-8.3,10.6
			c-1.9,8.5-2,21.9-1.6,39.3c0.3,10.7,5.5,15.8,16,15.8c7.9,0,17.3-3.3,24.7-8.5C502.7,202.1,506.9,195.8,506.9,190.2z M265.1,257
			l201.6,201.6l-8.1,8.1L249.3,514l-91.8-47.4H55.4l-8.1-8.1L248.9,257L47.4,55.4l8.1-8.1L264.7,0l91.8,47.4h102.1l8.1,8.1
			L265.1,257z M304.6,142.1l29.6,29.6L451.4,54.5h-92.6L304.6,142.1z M288,53.6c0,5.5,4.5,10,10,10c5.5,0,10-4.5,10-10
			c0-5.5-4.5-10-10-10C292.5,43.6,288,48.1,288,53.6z M197.5,106.4l-111-28l94.1,94.1l16.9-4.8V106.4z M199.4,99.5l57.2-90.4
			L61.4,53.3l15.2,15.2L199.4,99.5z M204.6,165.7l90.9-25.7L262.7,12.9l-58.1,91.8L204.6,165.7L204.6,165.7z M267.1,87.9
			c0,5.5-4.5,10-10.1,10s-10.1-4.5-10.1-10c0-5.5,4.5-10,10.1-10S267.1,82.3,267.1,87.9z M246.9,426.1c0-5.5,4.5-10,10.1-10
			s10.1,4.5,10.1,10c0,5.5-4.5,10-10.1,10S246.9,431.7,246.9,426.1z M257,210.3c5.5,0,10-4.5,10-10c0-5.5-4.5-10-10-10
			c-5.5,0-10,4.5-10,10C247,205.8,251.5,210.3,257,210.3z M160.9,450.3l48.5-78.4l-29.6-29.6L62.6,459.5h92.6L160.9,450.3z
			 M226,460.4c0-5.5-4.5-10-10-10c-5.5,0-10,4.5-10,10c0,5.5,4.5,10,10,10C221.5,470.4,226,465.9,226,460.4z M316.5,407.6l111,28
			l-94.1-94.1l-16.9,4.8L316.5,407.6L316.5,407.6z M314.6,414.5l-57.2,90.4l195.2-44.2l-15.2-15.2L314.6,414.5z M309.4,348.3
			L218.5,374l32.8,127.1l58.1-91.8L309.4,348.3L309.4,348.3z M257,303.7c-5.5,0-10,4.5-10,10c0,5.5,4.5,10,10,10c5.5,0,10-4.5,10-10
			C267,308.1,262.5,303.7,257,303.7z M492.2,321.6c-3.1-2.9-5.9-4-8.8-4v7.1c0.5,0,1.7,0,3.8,2.1c3.7,3.5,3.7,5.5,3.7,6.2
			c0.1,4.9-7,12.9-14.7,20.7c-2.9,2.9-4.4,4.5-6.1,6.2c-1.7,1.7-3.5,3.6-6.9,7.1c-10.7,10.9-15.3,11.9-19.5,11.9
			c-0.9,0-1.9-0.1-3.2-0.2c-6.3-0.6-11.8-6.7-17.9-19.5c-2.7-5.7-2.7-10.9,0.2-15.4c3.4-5.3,10.3-9,16.8-9c1.6,0,3.2,0.2,4.5,0.7
			c3,1,6,1.6,9,1.6c8.7,0,15.5-4.4,21-7.8c3.4-2.1,6.9-4.4,9.1-4.4v-7.1c-9.3,0-17.9,12.2-30.2,12.2c-2.1,0-4.3-0.4-6.6-1.2
			c-2.1-0.8-4.5-1.1-6.9-1.1c-15.2,0-33,14.6-23.5,34.7c6.1,12.9,13,22.5,23.7,23.6c1.3,0.1,2.6,0.2,3.9,0.2c7,0,13.4-2.6,24.6-14
			c6.8-7,7.2-7.4,12.9-13.2C497.5,342.3,503.9,332.6,492.2,321.6z M481.6,178.8c-5.5,0-10,4.5-10,10c0,5.5,4.5,10,10,10
			c5.5,0,10-4.5,10-10C491.6,183.2,487.2,178.8,481.6,178.8z M150.7,396.1c-5.5,0-10,4.5-10,10c0,5.5,4.5,10,10,10
			c5.5,0,10-4.5,10-10C160.7,400.5,156.2,396.1,150.7,396.1z M362.6,465.2c5.5,0,10-4.5,10-10c0-5.5-4.5-10-10-10
			c-5.5,0-10,4.5-10,10C352.6,460.7,357.1,465.2,362.6,465.2z"/>
	</g>
</g>
</svg>
