<?xml version="1.0" encoding="utf-8"?>
<!-- Generator: Adobe Illustrator 27.8.1, SVG Export Plug-In . SVG Version: 6.00 Build 0)  -->
<svg version="1.1" id="Layer_1" xmlns="http://www.w3.org/2000/svg" xmlns:xlink="http://www.w3.org/1999/xlink" x="0px" y="0px"
	 viewBox="0 0 445 514" style="enable-background:new 0 0 445 514;" xml:space="preserve">
<style type="text/css">
	.st0{clip-path:url(#SVGID_00000010996424239108170790000004719416823935847299_);}
</style>
<g>
	<defs>
		<rect id="SVGID_1_" x="-138" y="-103" width="720" height="720"/>
	</defs>
	<clipPath id="SVGID_00000158740994255926555000000014522166655224086449_">
		<use xlink:href="#SVGID_1_"  style="overflow:visible;"/>
	</clipPath>
	<g style="clip-path:url(#SVGID_00000158740994255926555000000014522166655224086449_);">
		<path d="M17.3,53.3c-0.4-0.4-0.4-1.1,0-1.6c0.4-0.4,1.1-0.4,1.6,0c75.7,72.5,141.2,136.4,193.3,187.6c0,4.9,0,9.8,0,14.7
			C163.7,204.6,99.6,138.8,17.3,53.3z M11.8,206.2L6.6,219L0,216.4l5.2-12.9c2.8-6.9,6.7-11.2,11.8-12.9v-6.7h59.2
			c28.1,0,44.8,22.4,44.8,59.9c0,34.2-17.6,56.3-44.8,56.3h-3.4c-6,0-10.8,4.8-11,10.7c-2.3-0.1-4.2-1-5.9-2.6
			c-5.3-5.3-6.4-17.3-6.4-21.5v-11.4h-7.1v11.4c0,0.7,0,18,8.5,26.5c3,3,6.7,4.6,10.9,4.8v7.9h-1.5c-6.8,0-12.2-2.1-16.5-6.6
			c-10.7-11-10.2-32.3-10.2-32.6v-11.4h-7.1v11.3c0,1-0.6,24.5,12.2,37.7c5.6,5.8,12.9,8.7,21.6,8.7h1.5v8h-3.6
			c-10.6,0-19.5-3.6-26.3-10.6c-15.5-15.9-15-43.8-14.9-45v-86.8C15.3,199.8,13.5,202,11.8,206.2z M77,292.9
			c22.8-0.4,36.9-19.2,36.9-49.1c0-33.2-13.4-52.3-36.9-52.7V292.9z M58.5,248.9h7.1V191h-7.1V248.9z M24.1,248.9h27.2V191H24.1
			V248.9z M232.8,254c48.5-49.4,112.6-115.2,194.9-200.7c0.4-0.4,0.4-1.1,0-1.6c-0.4-0.4-1.1-0.4-1.6,0
			c-75.7,72.5-141.2,136.4-193.3,187.6C232.8,244.2,232.8,249.1,232.8,254z M445,216.4l-6.6,2.7l-5.2-12.9c-1.7-4.1-3.5-6.4-5.2-7.6
			v86.8c0,1.2,0.5,29.1-14.9,45c-6.8,7-15.7,10.6-26.3,10.6h-3.6v-8h1.5c8.7,0,16-2.9,21.6-8.7c12.8-13.2,12.2-36.7,12.2-37.7v-11.3
			h-7.1v11.4c0,0.3,0.5,21.6-10.2,32.6c-4.3,4.4-9.7,6.6-16.5,6.6h-1.5v-7.9c4.2-0.1,7.9-1.7,10.9-4.8c8.5-8.5,8.5-25.8,8.5-26.5
			v-11.4h-7.1v11.4c0,4.2-1.1,16.2-6.4,21.5c-1.7,1.7-3.6,2.5-5.9,2.6c-0.2-5.9-5.1-10.7-11-10.7h-3.4c-27.2,0-44.8-22.1-44.8-56.3
			c0-37.5,16.7-59.9,44.8-59.9H428v6.7c5.1,1.7,9.1,6.1,11.8,12.9L445,216.4z M367.9,191c-23.4,0.4-36.9,19.6-36.9,52.7
			c0,30,14.1,48.7,36.9,49.1V191z M386.5,191h-7.1v57.9h7.1V191z M420.8,191h-27.2v57.9h27.2V191z M13,458.6l8.1,8.1l36-36l-8.1-8.1
			L13,458.6z M430.6,425.1L430.6,425.1c0-22.2-18-40.1-40.1-40.1c-9,0-17.3,3-24,8l-23-23c-8.9-8.9-48.2-48.6-110.8-110.4
			c0,5.1,0,10.2,0,15.2c61.8,62.7,93.6,94.1,102.8,103.2l23,23c-5.2,6.9-8,15.2-8,24c0,4,0.6,7.9,1.7,11.7l44.1-44.1
			c6.6,1.2,12.7,4.3,17.6,9.1c6.2,6.2,9.7,14.5,9.7,23.3c0,7.4-2.4,14.4-6.8,20.1l-31.4-31.4l-6,6.1l45.8,45.8l6-6.1l-9.3-9.3
			C427.5,443.2,430.6,434.4,430.6,425.1z M101.4,370l-21,21c-13.5-9.8-32.5-8.6-44.7,3.5l-2.3,2.3l48.9,48.9l2.3-2.3
			c12-12,13.3-30.8,3.8-44.3l21-21.1c9.2-9.2,41-40.5,102.8-103.2c0-5.1,0-10.2,0-15.2C149.6,321.4,110.3,361.2,101.4,370z
			 M256.7,51.4h-30.6V44h6.6v-6.7c3.9-0.4,7.8-1.6,11.2-3.6c1.7-1,2.3-3.2,1.3-4.9c-1-1.7-3.2-2.3-4.9-1.3c-2.4,1.4-5.2,2.3-7.9,2.6
			c-0.7-5-3.3-9.3-6.9-12.4V0h-14.6v12.9h-27v12.8h27v7.9c0,1.4,0.9,2.5,2.2,2.9c3.3,1,5.7,4,5.7,7.6v7.4h-30.6
			c6,11.3,17.3,19.2,30.6,20.4c0.3,131.2,0.4,285.7,2.4,412.9c0.2,9.6,0.5,19.3,0.8,28.9c0,0.2,0.2,0.4,0.4,0.4h0h0v0
			c0.2,0,0.4-0.2,0.4-0.4c0.3-9.6,0.6-19.3,0.8-28.9c2-127.2,2.1-281.7,2.4-412.9C239.4,70.6,250.7,62.7,256.7,51.4z"/>
	</g>
</g>
</svg>
