<?xml version="1.0" encoding="utf-8"?>
<!-- Generator: Adobe Illustrator 27.8.1, SVG Export Plug-In . SVG Version: 6.00 Build 0)  -->
<svg version="1.1" id="Layer_1" xmlns="http://www.w3.org/2000/svg" xmlns:xlink="http://www.w3.org/1999/xlink" x="0px" y="0px"
	 viewBox="0 0 514 419.3" style="enable-background:new 0 0 514 419.3;" xml:space="preserve">
<style type="text/css">
	.st0{clip-path:url(#SVGID_00000017515909995501052470000001316362999334355867_);}
</style>
<g>
	<defs>
		<rect id="SVGID_1_" x="-103" y="-150.4" width="720" height="720"/>
	</defs>
	<clipPath id="SVGID_00000094620234668003004450000012885702607225523332_">
		<use xlink:href="#SVGID_1_"  style="overflow:visible;"/>
	</clipPath>
	<g style="clip-path:url(#SVGID_00000094620234668003004450000012885702607225523332_);">
		<path d="M93,27.5L81.6,16.1h350.8L421,27.5H260.6v80.8c-2.4-0.1-4.8-0.1-7.1,0V27.5H93z M160.2,314.5L55.4,419.3l-8.1-8.1
			l58.7-58.7H0V66.8h106.1L47.4,8.1L55.4,0l104.8,104.8l-8.1,8.1l-34.6-34.6H34.3C32,89.8,22.9,98.9,11.4,101.1v217
			c11.5,2.3,20.6,11.4,22.9,22.9h83.2l34.6-34.6L160.2,314.5z M11.4,93.8c7.6-2,13.6-8,15.6-15.6H11.4V93.8z M27,341
			c-2-7.6-8-13.5-15.6-15.6V341H27z M514,352.5H407.9l58.7,58.7l-8.1,8.1L353.8,314.5l8.1-8.1l34.6,34.6h83.2
			c2.3-11.5,11.4-20.6,22.9-22.9v-217c-11.5-2.3-20.6-11.4-22.9-22.9h-83.2l-34.6,34.6l-8.1-8.1L458.6,0l8.1,8.1l-58.7,58.7H514
			V352.5z M502.6,325.5c-7.6,2-13.5,8-15.6,15.6h15.6V325.5z M502.6,78.2H487c2,7.6,8,13.5,15.6,15.6V78.2z M315.5,126.9h30.7v-11.4
			h-51.7C302,118.4,309,122.3,315.5,126.9z M257,303.9c-52,0-94.3-42.3-94.3-94.3s42.3-94.3,94.3-94.3s94.3,42.3,94.3,94.3
			S309,303.9,257,303.9z M340,205l-16.2,18.3V256h6.9c8.5-13.4,13.4-29.4,13.4-46.4c0-0.4,0-0.8,0-1.2L340,205z M280.2,129.7
			l20,17.7l24.8,12.9v-5.1c-10.4-12.9-24.3-22.7-40.2-28.1L280.2,129.7z M241.3,132.6l-20.1,17.8l15.6,14.8h40.3l15.6-14.8
			l-20.1-17.8H241.3z M189.1,160.3l24.8-12.9l20.2-17.9l-3.9-2.7c-16.3,5.3-30.6,15.3-41.1,28.4L189.1,160.3L189.1,160.3z
			 M190.2,223.4L174,205l-4.1,3.4c0,0.4,0,0.8,0,1.2c0,17,4.9,33,13.4,46.4h6.9L190.2,223.4L190.2,223.4z M194.7,217.6l26.4-12.4
			l10.3-35.4l-16.1-15.2l-26.9,14l-10,30.6L194.7,217.6z M225.8,278.2l27.6-13v-32l-29.7-21.3l-26.3,12.4v33.5l25.1,18L225.8,278.2z
			 M283.6,283.9L257,271.4l-26.6,12.5l5.5,10.2c6.8,1.7,13.8,2.6,21.1,2.6s14.4-0.9,21.1-2.6L283.6,283.9z M316.6,224.3l-26.3-12.4
			l-29.7,21.3v32l27.6,13l9.8-7l18.7-13.4V224.3z M319.3,217.6l16.3-18.4l-10-30.6l-26.9-14l-16.1,15.2l10.3,35.4L319.3,217.6z
			 M495.4,144.8v-7.1h-40.9v144.2h40.9v-7.1h-33.7V144.8H495.4z M18.6,274.5v7.1h40.9V137.4H18.6v7.1h33.7v129.9H18.6z M260.6,391.8
			V311c-2.4,0.1-4.8,0.1-7.1,0v80.8H93l-11.4,11.4h350.8L421,391.8H260.6L260.6,391.8z M78.5,215.3h77.2c-0.1-1.9-0.2-3.8-0.2-5.7
			c0-1.9,0.1-3.8,0.2-5.7H78.5V215.3z M376,262.9h-32.7c-2.5,4-5.2,7.8-8.2,11.4H376V262.9z M346.2,292.4h-30.7
			c-6.5,4.6-13.5,8.4-21,11.4h51.7V292.4z M405.7,233.4h-50.2c-0.9,3.9-2.1,7.7-3.5,11.4h53.6L405.7,233.4L405.7,233.4z
			 M198.5,292.4h-30.7v11.4h51.7C212,300.8,205,297,198.5,292.4z M138,156.4h32.7c2.5-4,5.2-7.8,8.2-11.4H138V156.4L138,156.4z
			 M435.5,203.9h-77.2c0.1,1.9,0.2,3.8,0.2,5.7c0,1.9-0.1,3.8-0.2,5.7h77.2V203.9z M355.6,185.9h50.2v-11.4h-53.6
			C353.5,178.2,354.6,182,355.6,185.9z M108.3,185.9h50.2c0.9-3.9,2.1-7.7,3.5-11.4h-53.6L108.3,185.9L108.3,185.9z M170.7,262.9
			H138v11.4H179C176,270.7,173.2,266.9,170.7,262.9z M219.4,115.5h-51.7v11.4h30.7C205,122.3,212,118.4,219.4,115.5z M158.4,233.4
			h-50.2v11.4h53.6C160.5,241.1,159.4,237.3,158.4,233.4z M343.3,156.4H376v-11.4H335C338,148.6,340.8,152.4,343.3,156.4z"/>
	</g>
</g>
</svg>
