<?xml version="1.0" encoding="utf-8"?>
<!-- Generator: Adobe Illustrator 27.8.1, SVG Export Plug-In . SVG Version: 6.00 Build 0)  -->
<svg version="1.1" id="Layer_1" xmlns="http://www.w3.org/2000/svg" xmlns:xlink="http://www.w3.org/1999/xlink" x="0px" y="0px"
	 viewBox="0 0 514 514" style="enable-background:new 0 0 514 514;" xml:space="preserve">
<style type="text/css">
	.st0{clip-path:url(#SVGID_00000183225754720634938180000000984947980288722358_);}
</style>
<g>
	<defs>
		<rect id="SVGID_1_" x="-103" y="-103" width="720" height="720"/>
	</defs>
	<clipPath id="SVGID_00000057843976033718349380000007372807875796882087_">
		<use xlink:href="#SVGID_1_"  style="overflow:visible;"/>
	</clipPath>
	<g style="clip-path:url(#SVGID_00000057843976033718349380000007372807875796882087_);">
		<path d="M100.9,405l8.1,8.1l-53.6,53.6l-8.1-8.1L100.9,405z M123.4,131.5l8.1-8.1L55.4,47.4l-8.1,8.1L123.4,131.5z M390.6,382.5
			l-8.1,8.1l76.1,76.1l8.1-8.1L390.6,382.5z M466.6,55.4l-8.1-8.1L405,100.9l8.1,8.1L466.6,55.4z M394,412.2l5.1,5.1L302.2,514
			l-63.4-63.4l-38.1,38.1L25.3,313.2l38.1-38.1L0,211.8L96.8,115l5.1,5.1l-91.7,91.7l58.3,58.3L97.5,241L86.5,230
			c-3.4,1.4-7.4,0.7-10.1-2c-3.6-3.6-3.6-9.5,0-13.1c3.6-3.6,9.5-3.6,13.1,0c2.7,2.7,3.4,6.7,2,10.1l11.1,11.1l41.1-41.1l-11.1-11.1
			c-3.4,1.4-7.4,0.7-10.1-2c-3.6-3.6-3.6-9.5,0-13.1c3.6-3.6,9.5-3.6,13.1,0c2.7,2.7,3.4,6.7,2,10.1l11.1,11.1l41.1-41.1l-11.1-11.1
			c-3.4,1.4-7.4,0.7-10.1-2c-3.6-3.6-3.6-9.5,0-13.1c3.6-3.6,9.5-3.6,13.1,0c2.7,2.7,3.4,6.7,2,10.1l11.1,11.1l41.1-41.1l-11.1-11.1
			c-3.4,1.4-7.4,0.7-10.1-2c-3.6-3.6-3.6-9.5,0-13.1c3.6-3.6,9.5-3.6,13.1,0c2.7,2.7,3.4,6.7,2,10.1L241,97.6L270,68.5l-58.3-58.3
			L120,101.9l-5.1-5.1L211.8,0l63.4,63.4l38.1-38.1l175.5,175.5l-38.1,38.1l63.4,63.4L417.2,399l-5.1-5.1l91.7-91.7l-58.3-58.3
			L416.5,273l11.1,11.1c3.4-1.4,7.4-0.7,10.1,2c3.6,3.6,3.6,9.5,0,13.1c-3.6,3.6-9.5,3.6-13.1,0c-2.7-2.7-3.4-6.7-2-10.1L411.5,278
			l-41.1,41.1l11.1,11.1c3.4-1.4,7.4-0.7,10.1,2c3.6,3.6,3.6,9.5,0,13.1c-3.6,3.6-9.5,3.6-13.1,0c-2.7-2.7-3.4-6.7-2-10.1
			l-11.1-11.1l-41.1,41.1l11.1,11.1c3.4-1.4,7.4-0.7,10.1,2c3.6,3.6,3.6,9.5,0,13.1c-3.6,3.6-9.5,3.6-13.1,0
			c-2.7-2.7-3.4-6.7-2-10.1l-11.1-11.1l-41.1,41.1l11.1,11.1c3.4-1.4,7.4-0.7,10.1,2c3.6,3.6,3.6,9.5,0,13.1
			c-3.6,3.6-9.5,3.6-13.1,0c-2.7-2.7-3.4-6.7-2-10.1L273,416.4L244,445.5l58.3,58.3L394,412.2z M264.9,408.4l5.1-5.1l-33.7-33.7
			l133.4-133.4l33.7,33.7l5.1-5.1l-33.7-33.7l64.1-64.1l-5.1-5.1l-64.1,64.1l-81.8-81.8L352,80.2l-5.1-5.1l-64.1,64.1l-33.7-33.7
			l-5.1,5.1l33.7,33.7L144.3,277.7L110.6,244l-5.1,5.1l33.7,33.7l-64.1,64.1l5.1,5.1l64.1-64.1l81.8,81.8L162,433.8l5.1,5.1
			l64.1-64.1L264.9,408.4z M279.7,284.7l5.1-5.1L262.1,257l22.7-22.7l-5.1-5.1L257,251.9l-22.7-22.7l-5.1,5.1l22.7,22.7l-22.7,22.7
			l5.1,5.1l22.7-22.7L279.7,284.7z"/>
	</g>
</g>
</svg>
