<?xml version="1.0" encoding="utf-8"?>
<!-- Generator: Adobe Illustrator 27.8.1, SVG Export Plug-In . SVG Version: 6.00 Build 0)  -->
<svg version="1.1" id="Layer_1" xmlns="http://www.w3.org/2000/svg" xmlns:xlink="http://www.w3.org/1999/xlink" x="0px" y="0px"
	 viewBox="0 0 514 514" style="enable-background:new 0 0 514 514;" xml:space="preserve">
<style type="text/css">
	.st0{clip-path:url(#SVGID_00000148656027837228473450000006147285304269266620_);}
</style>
<g>
	<defs>
		<rect id="SVGID_1_" x="-103" y="-103" width="720" height="720"/>
	</defs>
	<clipPath id="SVGID_00000011001009794545272630000016246149750262351523_">
		<use xlink:href="#SVGID_1_"  style="overflow:visible;"/>
	</clipPath>
	<g style="clip-path:url(#SVGID_00000011001009794545272630000016246149750262351523_);">
		<path d="M318.9,195.1c-1.4-1.4-2.8-2.6-4.2-3.8l64.5-64.5l8.1,8.1l-64.5,64.5C321.5,197.9,320.3,196.5,318.9,195.1z M15.7,23.9
			C15.7,12.3,18.6,0,27,0h460c8.4,0,11.3,12.3,11.3,23.9s-3,23.9-11.3,23.9h-12.6l-36.9,36.9l47.3,47.3l-8.1,8.1l-92.3-92.3H129.7
			L37.4,140l-8.1-8.1l47.3-47.3L39.6,47.7H27C18.6,47.7,15.7,35.4,15.7,23.9z M113.5,47.7H55.8l28.9,28.9L113.5,47.7z M458.2,47.7
			h-57.7l28.9,28.9L458.2,47.7z M22.8,23.9c0,10.9,3,16.7,4.2,16.7h460c1.2,0,4.2-5.9,4.2-16.7s-3-16.7-4.2-16.7H27
			C25.8,7.1,22.8,13,22.8,23.9z M514,149.7v-44.7h-46.2l11.4,11.4h23.3v33.3h2.1v214.7h-2.1v33.3h-23.3l-11.4,11.4H514v-44.7h-2.1
			V149.7H514z M119.2,68.3h275.7l50.9,50.9v275.7l-50.9,50.9H119.2l-50.9-50.9V119.2L119.2,68.3z M110.7,110.7v292.7h292.7V110.7
			H110.7z M34.8,397.6H11.4v-33.3H9.3V149.7h2.1v-33.3h23.3l11.4-11.4H0v44.7h2.1v214.7H0v44.7h46.2L34.8,397.6z M199.3,322.7
			c-1.5-1.2-2.9-2.5-4.2-3.8c-1.4-1.4-2.6-2.8-3.8-4.2l-64.5,64.5l8.1,8.1L199.3,322.7z M498.3,490.1c0,11.5-3,23.9-11.3,23.9H27
			c-8.4,0-11.3-12.3-11.3-23.9c0-11.5,3-23.9,11.3-23.9h12.6l36.9-36.9l-47.3-47.3l8.1-8.1l92.3,92.3h254.7l92.3-92.3l8.1,8.1
			l-47.3,47.3l36.9,36.9H487C495.4,466.3,498.3,478.6,498.3,490.1z M400.5,466.3h57.7l-28.9-28.9L400.5,466.3z M55.8,466.3h57.7
			l-28.9-28.9L55.8,466.3z M491.2,490.1c0-10.9-3-16.7-4.2-16.7H27c-1.2,0-4.2,5.9-4.2,16.7c0,10.9,3,16.7,4.2,16.7h460
			C488.2,506.9,491.2,501,491.2,490.1z M238,329.5c21.8,0,40.6-13.1,49-31.8c-3.6,0.7-7.2,1-11,1c-0.8,0-1.6,0-2.4-0.1
			c-7.5,11.7-20.6,19.5-35.5,19.5c-23.3,0-42.1-18.9-42.1-42.1c0-14.9,7.8-28,19.5-35.5c0-0.8-0.1-1.6-0.1-2.4c0-3.8,0.4-7.4,1-11
			c-18.7,8.3-31.8,27.1-31.8,49C184.5,305.6,208.4,329.5,238,329.5z M280,272.8c4-0.5,7.7-1.6,11.2-3.2
			c-2.9-24.4-22.3-43.8-46.8-46.7c-1.7,3.4-2.8,7.2-3.2,11.2C261.9,235.5,278.5,252.1,280,272.8z M222.4,238
			c0-29.6,24-53.6,53.6-53.6s53.6,24,53.6,53.6c0,29.6-24,53.6-53.6,53.6S222.4,267.6,222.4,238z M233.8,238
			c0,23.3,18.9,42.1,42.1,42.1c23.3,0,42.1-18.9,42.1-42.1c0-23.3-18.9-42.1-42.1-42.1C252.7,195.9,233.8,214.7,233.8,238z"/>
	</g>
</g>
</svg>
