<?xml version="1.0" encoding="utf-8"?>
<!-- Generator: Adobe Illustrator 27.8.1, SVG Export Plug-In . SVG Version: 6.00 Build 0)  -->
<svg version="1.1" id="Layer_1" xmlns="http://www.w3.org/2000/svg" xmlns:xlink="http://www.w3.org/1999/xlink" x="0px" y="0px"
	 viewBox="0 0 514 514" style="enable-background:new 0 0 514 514;" xml:space="preserve">
<style type="text/css">
	.st0{clip-path:url(#SVGID_00000063607091519920733780000014564889602340179336_);}
</style>
<g>
	<defs>
		<rect id="SVGID_1_" x="-103" y="-103" width="720" height="720"/>
	</defs>
	<clipPath id="SVGID_00000075140420877384962000000000388912286066775987_">
		<use xlink:href="#SVGID_1_"  style="overflow:visible;"/>
	</clipPath>
	<g style="clip-path:url(#SVGID_00000075140420877384962000000000388912286066775987_);">
		<path d="M103.5,294.8c0,28.6-23.2,51.8-51.8,51.8S0,323.4,0,294.8C0,266.2,23.2,243,51.8,243S103.5,266.2,103.5,294.8z M462.2,271
			c28.6,0,51.8-23.2,51.8-51.8c0-28.6-23.2-51.8-51.8-51.8c-28.6,0-51.8,23.2-51.8,51.8C410.5,247.8,433.7,271,462.2,271z M172,69.8
			c0.5,0.4,1,0.9,1.5,1.3c0.5,0.5,1,0.9,1.5,1.4c0.9,0.8,1.7,1.7,2.6,2.6c24.9-10.9,52.1-16.6,79.5-16.6
			c45.3,0,89.6,15.7,124.8,44.1c1.2,1,2.3,1.9,3.5,2.9l5.1-5.1c-1.3-1.1-2.7-2.3-4.1-3.4C349.8,67.6,303.9,51.4,257,51.4
			C227.6,51.4,198.5,57.7,172,69.8z M440.6,164.5c-7.4-14.6-16.5-28.3-27.1-40.7l-5.1,5.1c10,11.9,18.7,24.9,25.7,38.7
			C436.2,166.4,438.4,165.4,440.6,164.5z M307.6,193.3L412.3,88.6c6.1-6.1,10.1-14.6,14.1-22.7c0.8-1.8,1.7-3.5,2.5-5.2
			c9.5-19.1,17.4-28.2,33.9-39.1l13.2-8.8L501.3,38l-8.8,13.2c-10.9,16.4-20,24.3-39.1,33.9c-1.7,0.9-3.5,1.7-5.2,2.5
			c-8.2,3.9-16.6,8-22.7,14.1L320.7,206.4c0.1,0.9,0.2,1.7,0.2,2.6c0,8.8-7.1,15.9-15.9,15.9c-8.8,0-15.9-7.1-15.9-15.9
			c0-8.8,7.1-15.9,15.9-15.9C305.8,193.1,306.7,193.2,307.6,193.3z M406.2,110.8l14.2-14.2c7-6.9,16-11.3,24.7-15.5
			c1.7-0.8,3.5-1.7,5.1-2.5c18-9,26.1-16,36.3-31.4l5.5-8.4l-17-17l-8.4,5.6c-15.4,10.2-22.4,18.3-31.4,36.3
			c-0.8,1.7-1.7,3.4-2.5,5.1c-4.2,8.7-8.5,17.7-15.4,24.7l-11.1,11.1L406.2,110.8L406.2,110.8z M383.5,133.6l16.2-16.2v-6.1
			l-16.2,16.2V133.6z M360.7,156.3l16.2-16.2V134l-16.2,16.2V156.3z M307.6,200.6c-0.9-0.3-1.7-0.4-2.6-0.4c-4.8,0-8.8,3.9-8.8,8.8
			c0,4.8,3.9,8.8,8.8,8.8c4.8,0,8.8-3.9,8.8-8.8c0-0.9-0.1-1.8-0.4-2.6l-0.6-2.1l41.5-41.5v-6.1l-44.6,44.6L307.6,200.6z
			 M133.7,22.3c14.4-7.9,23-10.6,27.9-11.2c0.7-4,0.8-7.8-0.3-9.9C161,0.7,160.6,0,159.2,0c-0.5,0-1.1,0.1-1.8,0.2
			c-9.5,1.8-20.3,7.2-29.3,12.1C39.6,63.3-9.2,162.1,1.6,263.8c2.9-4.7,6.4-8.9,10.4-12.6C6.4,158.1,52.6,69,133.7,22.3z
			 M80.2,110.9c1.7-2.8,4.7-6.5,9.4-10.8c8.2-7.4,18.4-13.6,28.6-17.7c0.3-0.3,0.6-0.7,0.9-1c4.2-4.6,8.4-9.5,12.3-14.5
			C113.3,69.8,94.6,80.3,82,91.6c-5.1,4.6-9,9.2-11.5,13.5c-0.7,1.3-1.5,3.6-0.5,4.6C71.6,111.3,76.5,111.4,80.2,110.9z M90.5,201.1
			c1.2,1.3,2.6,2.3,4.1,3.1c-1.3-10.2,8.2-27.8,26.3-47.9c13.7-15.2,30.6-30,47.6-41.9c-0.4-4.3-1.4-8.2-3-11.8
			c-18.9,12.8-37.9,29.3-53.1,46.1c-11.5,12.8-19.7,24.4-24.5,34.6l0.1,0C85.3,189.9,86.3,196.5,90.5,201.1z M191.1,212l1.4-1.4
			l100,100l5.1-5.1l-100-100l1.6-1.6l-13.6-13.5c7.1-7.1,22.1-22.3,35.8-39.3c26.9-33.4,34.6-55.4,23.5-67.4
			c-0.1-0.2-0.3-0.3-0.5-0.4c-11.2-9.7-30.8-7.6-56.8,6c1.7,3.4,3.1,7,4.2,10.7c21-11.1,37.5-14.2,44.9-8.3
			c2.3,2.9,6.3,14.4-24.1,52.2c-18,22.3-38.8,42.2-39,42.4c-1.1,1.1-1.8,2.5-1.8,4.1s0.6,3,1.7,4.1L191.1,212z M155.4,191.4
			c14.6-17,25-36.4,29.4-54.6c5.8-24.2,0.7-44.7-14.8-59.3c-2.7-2.8-5.8-5-9.2-6.8c-1.2,1.7-2.4,3.4-3.7,5.1c-1,1.4-2.1,2.8-3.2,4.3
			c3,1.3,5.7,3.2,8.1,5.5c0.1,0.1,0.1,0.1,0.2,0.2c12.6,11.8,16.5,28.1,11.6,48.4c-8.5,35.3-41.9,71.4-63.9,77.8
			c-2.3,0.7-5.7,1.3-8.1,1.3c-2.1,0-4.2-0.3-6.1-0.9c-3.9-1.1-7.6-3.3-10.5-6.4c-0.9-1-1.7-2-2.4-3.1c0.1,6.3,2.3,11.7,6.7,15.8
			c2.9,2.8,7.5,5.6,14.4,5.6c2.7,0,5.6-0.4,9-1.4C126.1,219.1,141.5,207.6,155.4,191.4z M149.3,54.7c-2.2,3.2-4.5,6.5-7.1,10
			c-7.3,9.9-15.2,19.1-22.9,27c-5.1,5.2-10.1,9.9-14.9,13.8c-6.7,5.5-12.8,9.2-17.5,11c-0.4,0.1-1.1,0.4-1.9,0.6c-2.6,0.7-5.9,1-9,1
			c-3.2,0-6.5-0.5-9.1-2.1c0,3,0.9,5.7,2.8,7.9c0.1,0.1,0.2,0.2,0.3,0.4c5.9,6.1,18,9.2,41.6-10.1c7.5-6.1,15.5-13.9,23.3-22.6
			c10.4-11.6,20.2-24.6,28-37c10.7-17.1,20.8-38.3,13.5-49.1c-2-2.9-4.7-4.7-7.9-5.5c1.5,5.3,0.5,13.2-1.7,20.1l0,0
			c-1.7,6.7-6.2,17.2-15.5,31.5C150.6,52.7,149.9,53.7,149.3,54.7z M342,444.2c-0.5-0.4-1-0.9-1.5-1.3c-0.5-0.5-1-0.9-1.5-1.4
			c-0.9-0.8-1.7-1.7-2.6-2.6c-24.9,10.9-52.1,16.6-79.5,16.6c-45.3,0-89.6-15.7-124.8-44.1c-1.2-1-2.3-1.9-3.5-2.9l-5.1,5.1
			c1.3,1.1,2.7,2.3,4.1,3.4c36.4,29.5,82.3,45.7,129.2,45.7C286.4,462.6,315.5,456.3,342,444.2z M73.4,349.5
			c7.4,14.6,16.5,28.3,27.1,40.7l5.1-5.1c-10-11.9-18.7-24.9-25.7-38.7C77.8,347.6,75.6,348.6,73.4,349.5z M206.4,320.7L101.7,425.4
			c-6.1,6.1-10.1,14.6-14.1,22.7c-0.8,1.8-1.7,3.5-2.5,5.2c-9.5,19.1-17.4,28.2-33.9,39.1L38,501.2L12.7,476l8.8-13.2
			c10.9-16.4,20-24.3,39.1-33.9c1.7-0.9,3.5-1.7,5.2-2.5c8.2-3.9,16.6-8,22.7-14.1l104.7-104.7c-0.1-0.9-0.2-1.7-0.2-2.6
			c0-8.8,7.1-15.9,15.9-15.9c8.8,0,15.9,7.1,15.9,15.9c0,8.8-7.1,15.9-15.9,15.9C208.2,320.9,207.3,320.8,206.4,320.7z M107.8,403.2
			l-14.2,14.2c-7,6.9-16,11.3-24.7,15.5c-1.7,0.8-3.5,1.7-5.1,2.5c-18,9-26.1,16-36.3,31.4l-5.5,8.4l17,17l8.4-5.6
			c15.4-10.2,22.4-18.3,31.4-36.3c0.8-1.7,1.7-3.4,2.5-5.1c4.2-8.7,8.5-17.7,15.4-24.7l11.1-11.1L107.8,403.2L107.8,403.2z
			 M130.5,380.4l-16.2,16.2v6.1l16.2-16.2V380.4z M153.3,357.7L137,373.9v6.1l16.2-16.2V357.7z M206.4,313.4
			c0.9,0.3,1.7,0.4,2.6,0.4c4.8,0,8.8-3.9,8.8-8.8c0-4.8-3.9-8.8-8.8-8.8c-4.8,0-8.8,3.9-8.8,8.8c0,0.9,0.1,1.8,0.4,2.6l0.6,2.1
			l-41.5,41.5v6.1l44.6-44.6L206.4,313.4z M512.4,250.2c-2.9,4.7-6.4,8.9-10.4,12.6c5.6,93.1-40.6,182.2-121.7,228.9
			c-14.4,7.9-23,10.6-27.9,11.2c-0.7,4-0.8,7.8,0.3,9.9c0.3,0.5,0.7,1.1,2.1,1.2c0.5,0,1.1-0.1,1.8-0.2c9.5-1.8,20.3-7.2,29.3-12.1
			C474.4,450.7,523.2,351.9,512.4,250.2z M433.8,403.1c-1.7,2.8-4.7,6.5-9.4,10.8c-8.2,7.4-18.4,13.6-28.6,17.7
			c-0.3,0.3-0.6,0.7-0.9,1c-4.2,4.6-8.4,9.5-12.3,14.5c18.2-2.9,36.9-13.4,49.5-24.7c5.1-4.6,9-9.2,11.5-13.5
			c0.7-1.3,1.5-3.6,0.5-4.6C442.4,402.7,437.5,402.6,433.8,403.1z M423.5,312.9c-1.2-1.3-2.6-2.3-4.1-3.1
			c1.3,10.2-8.2,27.8-26.3,47.9c-13.7,15.2-30.6,30-47.6,41.9c0.4,4.3,1.4,8.2,3,11.8c18.9-12.9,37.9-29.3,53.1-46.1
			c11.5-12.8,19.7-24.4,24.5-34.6l-0.1,0C428.7,324.1,427.7,317.5,423.5,312.9z M340.5,327.8c1.1-1.1,1.8-2.5,1.8-4.1
			s-0.6-3-1.7-4.1L322.9,302l-1.4,1.4l-100-100l-5.1,5.1l100,100l-1.6,1.6l13.6,13.5c-7.1,7.1-22.1,22.3-35.8,39.4
			c-26.9,33.4-34.6,55.4-23.5,67.4c0.1,0.2,0.3,0.3,0.5,0.4c11.2,9.7,30.8,7.6,56.8-6c-1.7-3.4-3.1-7-4.2-10.7
			c-21,11.1-37.5,14.2-44.9,8.3c-2.3-2.9-6.3-14.4,24.1-52.2C319.4,347.9,340.3,328,340.5,327.8z M428.8,308c0.9,1,1.7,2,2.4,3.1
			c-0.1-6.3-2.3-11.7-6.7-15.8c-2.9-2.8-7.5-5.6-14.4-5.6c-2.7,0-5.6,0.4-9,1.4c-13.1,3.8-28.5,15.2-42.4,31.5
			c-14.6,17-25,36.4-29.4,54.6c-5.8,24.2-0.7,44.7,14.8,59.3c2.7,2.8,5.8,5,9.2,6.8c1.2-1.7,2.4-3.4,3.7-5.1c1-1.4,2.1-2.8,3.2-4.3
			c-3-1.3-5.7-3.2-8.1-5.5c-0.1-0.1-0.1-0.1-0.2-0.2c-12.6-11.8-16.5-28.1-11.6-48.4c8.5-35.3,41.9-71.4,63.9-77.8
			c2.3-0.7,5.7-1.3,8.1-1.3c2.1,0,4.2,0.3,6.1,0.9C422.3,302.7,425.9,304.9,428.8,308z M364.7,459.3c2.2-3.2,4.5-6.5,7.1-10
			c7.3-9.9,15.2-19.1,22.9-27c5.1-5.2,10.1-9.9,14.9-13.8c6.7-5.5,12.8-9.2,17.5-11c0.4-0.1,1.1-0.4,1.9-0.6c2.6-0.7,5.9-1,9-1
			c3.2,0,6.5,0.5,9.1,2.1c0-3-0.9-5.7-2.8-7.9c-0.1-0.1-0.2-0.2-0.3-0.4c-5.9-6.1-18-9.2-41.6,10.1c-7.5,6.1-15.5,13.9-23.3,22.6
			c-10.4,11.6-20.2,24.6-28,37c-10.7,17.1-20.8,38.3-13.5,49.1c2,2.9,4.7,4.7,7.9,5.5c-1.5-5.3-0.5-13.2,1.7-20.1l0,0
			c1.7-6.7,6.2-17.2,15.5-31.5C363.4,461.3,364.1,460.3,364.7,459.3z"/>
	</g>
</g>
</svg>
