<?xml version="1.0" encoding="utf-8"?>
<!-- Generator: Adobe Illustrator 27.8.1, SVG Export Plug-In . SVG Version: 6.00 Build 0)  -->
<svg version="1.1" id="Layer_1" xmlns="http://www.w3.org/2000/svg" xmlns:xlink="http://www.w3.org/1999/xlink" x="0px" y="0px"
	 viewBox="0 0 514 514" style="enable-background:new 0 0 514 514;" xml:space="preserve">
<style type="text/css">
	.st0{clip-path:url(#SVGID_00000053507948654743839940000017752319310553531288_);}
</style>
<g>
	<defs>
		<rect id="SVGID_1_" x="-103" y="-103" width="720" height="720"/>
	</defs>
	<clipPath id="SVGID_00000010273539385268486710000001370738881099946388_">
		<use xlink:href="#SVGID_1_"  style="overflow:visible;"/>
	</clipPath>
	<g style="clip-path:url(#SVGID_00000010273539385268486710000001370738881099946388_);">
		<path d="M159.3,343.5l-92.2,92.1c-2.1,2.1-5.4,2.1-7.5,0l-6.4-6.4c-2.1-2.1-2.1-5.4,0-7.5l92.1-92.1c7-7,14.4-13.5,22.2-19.6
			l4.3-3.4c7.8-6.1,15.3-12.7,22.3-19.7l206-205.4c1.2-1.3,10-9.6,13.5-13.8c5.9-7.1-11.6-14.4-23.6-27.3
			c-12-12.9-21.1-29.7-7.8-37.4c3.9-2.3,8.9-3.1,14.1-3.1c3.9,0,8,0.5,11.6,1.1c8.9,1.5,16.9,6.3,22.6,13.3c7.3,9,10.2,21,7.3,32.2
			c-3.5,13.9-6.9,19.2-20,32.5l0.1,0L201.9,294.7c-7,7-13.5,14.4-19.6,22.2l-3.5,4.5C172.8,329.1,166.3,336.5,159.3,343.5z
			 M388.8,82.8c-9.1-3.6-18.6-5.1-29.1-4.5c-7,0.4-14.2,2.6-21.8,5c-9.5,2.9-19.2,6-29.8,6c-23,0-36.8-8.2-50.2-16.1
			C243.7,64.9,230.4,57,205.4,57c-48.1,0-81.8,33.3-93.5,46.8l64,64l33.5-33.5c-2.3-3.2-3.6-7.2-3.6-11.4c0-11,9-20,20-20
			s20,9,20,20c0,11-9,20-20,20c-4.2,0-8.2-1.3-11.4-3.6l-33.5,33.5l58.8,58.8l-8.1,8.1l-58.7-58.7L52,301.7c0,0-8.4-3.7-15.9-11.1
			c-7.5-7.5-11.1-15.9-11.1-15.9l3.2-3.2c-1.2-1.5-2.5-3-4-4.5C16.7,259.6,8.3,256,8.3,256l27.4-27.4c0,0,8.4,3.7,15.9,11.1
			c7.5,7.5,11.1,15.9,11.1,15.9l-3.9,3.9c1.3,1.2,2.9,2.5,4.8,3.7c4.5,2.9,8.9,4,12.8,4.1l91.4-91.4L47.4,55.5l8.1-8.1l48.3,48.3
			c13.3-15.4,49.2-50.1,101.6-50.1c28.2,0,44.2,9.5,58.3,17.8c13.1,7.8,24.5,14.5,44.4,14.5c8.9,0,17.8-2.8,26.4-5.5
			c8-2.5,16.2-5,24.6-5.5c14-0.8,26.5,1.5,38.4,7.2L388.8,82.8z M125.2,431.2c9.1,3.6,18.6,5.1,29.1,4.5c7-0.4,14.2-2.6,21.8-5
			c9.5-2.9,19.2-6,29.8-6c23,0,36.8,8.2,50.2,16.1c14.1,8.3,27.5,16.2,52.5,16.2c48.1,0,81.8-33.3,93.5-46.8l-64-64l-33.5,33.5
			c2.3,3.2,3.6,7.2,3.6,11.4c0,11-9,20-20,20s-20-9-20-20c0-11,9-20,20-20c4.2,0,8.2,1.3,11.4,3.6l33.5-33.5l-58.8-58.8l8.1-8.1
			l58.7,58.7L462,212.3c0,0,8.4,3.7,15.9,11.1s11.1,15.9,11.1,15.9l-3.2,3.2c1.2,1.5,2.5,3,4,4.5c7.5,7.5,15.9,11.1,15.9,11.1
			l-27.4,27.4c0,0-8.4-3.7-15.9-11.1c-7.5-7.5-11.1-15.9-11.1-15.9l3.9-3.9c-1.3-1.2-2.9-2.5-4.8-3.7c-4.5-2.9-8.9-4-12.8-4.1
			l-91.4,91.4l120.4,120.4l-8.1,8.1l-48.3-48.3c-13.3,15.4-49.2,50.1-101.6,50.1c-28.2,0-44.2-9.5-58.3-17.8
			c-13.1-7.8-24.5-14.5-44.4-14.5c-8.9,0-17.8,2.8-26.4,5.5c-8,2.5-16.2,5-24.6,5.5c-14,0.8-26.5-1.5-38.4-7.2L125.2,431.2z
			 M301.1,391.1c0-7.1-5.8-12.9-12.9-12.9s-12.9,5.8-12.9,12.9c0,7.1,5.8,12.9,12.9,12.9C295.4,404,301.1,398.2,301.1,391.1z
			 M481.1,391.1c0,9.1,7.4,16.4,16.4,16.4s16.4-7.4,16.4-16.4c0-9.1-7.4-16.4-16.4-16.4C488.5,374.6,481.1,382,481.1,391.1z
			 M212.9,122.9c0,7.1,5.8,12.9,12.9,12.9s12.9-5.8,12.9-12.9s-5.8-12.9-12.9-12.9C218.6,110,212.9,115.8,212.9,122.9z M32.9,122.9
			c0-9.1-7.4-16.4-16.4-16.4c-9.1,0-16.4,7.4-16.4,16.4c0,9.1,7.4,16.4,16.4,16.4C25.5,139.4,32.9,132,32.9,122.9z M100.3,446.2
			c3.5-4.2,12.3-12.5,13.5-13.8l206-205.4c7-7,14.5-13.6,22.3-19.7l4.3-3.4c7.8-6.1,15.2-12.6,22.2-19.6l92.1-92.1
			c2.1-2.1,2.1-5.4,0-7.5l-6.4-6.4c-2.1-2.1-5.4-2.1-7.5,0l-92.2,92.1c-7,7-13.4,14.3-19.5,22.1l-3.5,4.5
			c-6.1,7.8-12.6,15.2-19.6,22.2L95.9,434.9l0.1,0c-13,13.3-16.5,18.7-20,32.5c-2.8,11.3,0,23.2,7.3,32.2c5.7,7,13.7,11.8,22.6,13.3
			c3.7,0.6,7.7,1.1,11.7,1.1c5.2,0,10.3-0.8,14.1-3.1c13.3-7.8,4.2-24.5-7.8-37.4C111.9,460.6,94.4,453.3,100.3,446.2z"/>
	</g>
</g>
</svg>
