<?xml version="1.0" encoding="utf-8"?>
<!-- Generator: Adobe Illustrator 27.8.1, SVG Export Plug-In . SVG Version: 6.00 Build 0)  -->
<svg version="1.1" id="Layer_1" xmlns="http://www.w3.org/2000/svg" xmlns:xlink="http://www.w3.org/1999/xlink" x="0px" y="0px"
	 viewBox="0 0 514 419.3" style="enable-background:new 0 0 514 419.3;" xml:space="preserve">
<style type="text/css">
	.st0{clip-path:url(#SVGID_00000183970223658337385100000000612530832359527310_);}
</style>
<g>
	<defs>
		<rect id="SVGID_1_" x="-103" y="-150.4" width="720" height="720"/>
	</defs>
	<clipPath id="SVGID_00000011006783798411814740000010961912158314441351_">
		<use xlink:href="#SVGID_1_"  style="overflow:visible;"/>
	</clipPath>
	<g style="clip-path:url(#SVGID_00000011006783798411814740000010961912158314441351_);">
		<path d="M102.6,63.3L47.4,8.1L55.4,0l72,71.9C119.5,68.1,111.2,65.2,102.6,63.3z M47.4,411.2l8.1,8.1l71.9-71.9
			c-7.9,3.8-16.2,6.7-24.8,8.6L47.4,411.2z M125,224.5h7.1v-29.8H125V224.5z M167.9,228.4h7.1v-37.4h-7.1V228.4z M164.8,130.6
			c3,10,3,21.6,3.1,33.6l7.1,0c-0.1-14.1-0.2-27.5-4.6-39.2L164.8,130.6z M164.8,288.7l5.7,5.7c4.4-11.7,4.5-25.2,4.6-39.2l-7.1,0
			C167.8,267.1,167.7,278.7,164.8,288.7z M466.6,8.1L458.6,0l-72,71.9c7.9-3.8,16.2-6.7,24.8-8.6L466.6,8.1z M386.6,347.3l71.9,71.9
			l8.1-8.1l-55.2-55.2C402.8,354,394.5,351.1,386.6,347.3z M514,253.9h-34v98.5h-43.3c-29.2,0-56.6-11.4-77.3-32.1
			c-2.7-2.7-5.3-5.7-7.8-8.8L257,406.1l-94.6-94.6c-2.5,3.1-5.1,6-7.8,8.8c-20.7,20.7-48.1,32.1-77.3,32.1H34v-98.5H0v-88.5h34V66.9
			h43.3c29.2,0,56.6,11.4,77.3,32.1c2.7,2.7,5.3,5.7,7.8,8.8L257,13.1l94.6,94.6c2.5-3.1,5.1-6,7.8-8.8
			c20.7-20.7,48.1-32.1,77.3-32.1H480v98.5h34V253.9z M260.6,273.7v112.7l176.8-176.8L260.6,32.9v112.7c-1.2-0.1-2.4-0.1-3.6-0.1
			s-2.4,0-3.6,0.1V32.9L76.7,209.6l176.8,176.8V273.7c1.2,0.1,2.4,0.1,3.6,0.1S259.4,273.7,260.6,273.7z M34,242.5v-65.7H11.4v65.7
			H34z M154.3,303.4l-93.8-93.8l93.8-93.8c-2.5-3.1-5.1-6.1-7.8-8.8C128,88.5,103.4,78.3,77.3,78.3H45.4v262.6h31.9
			c26.1,0,50.7-10.2,69.2-28.7C149.2,309.5,151.8,306.5,154.3,303.4z M468.6,78.3h-31.9c-26.1,0-50.7,10.2-69.3,28.7
			c-2.7,2.7-5.3,5.7-7.8,8.8l93.8,93.8l-93.8,93.8c2.5,3.1,5,6.1,7.8,8.8c18.5,18.5,43.1,28.7,69.2,28.7h31.9V78.3L468.6,78.3z
			 M502.6,176.8H480v65.7h22.5V176.8z M389,194.7h-7.1v29.8h7.1V194.7z M346.1,190.9H339v37.4h7.1V190.9z M349.2,130.6l-5.7-5.7
			c-4.4,11.7-4.5,25.2-4.6,39.2l7.1,0C346.2,152.2,346.3,140.6,349.2,130.6z M349.2,288.7c-3-10-3-21.6-3.1-33.6l-7.1,0
			c0.1,14.1,0.2,27.5,4.6,39.2L349.2,288.7z M261.9,267.8c6.2-0.5,12.2-2,17.8-4.3l-3.4-3L261.9,267.8z M231,181.1l2.5-16.7l-6-5.2
			c-10.8,6.3-19.3,16-24.3,27.6l8.4,5.5L231,181.1z M283,238.1l-2.5,16.7l6,5.2c10.8-6.3,19.3-16,24.3-27.6l-8.4-5.5L283,238.1z
			 M253.4,198.6l-19.2-11.1l-19.2,11.1v22.1l19.2,11.1l19.2-11.1V198.6z M211.6,227l-8.4,5.5c4.9,11.6,13.5,21.2,24.3,27.6l6-5.2
			l-2.5-16.7L211.6,227z M252.2,151.4c-6.3,0.5-12.3,2-17.8,4.3l3.4,3L252.2,151.4z M207.9,198.4l-7.1-4.7
			c-1.4,5.1-2.2,10.4-2.2,15.9c0,5.5,0.8,10.8,2.2,15.9l7.1-4.7V198.4z M275.9,237.8L257,226.9l-18.9,10.9l2.4,16.1l16.5,8.4
			l16.5-8.4L275.9,237.8z M279.6,155.8c-5.6-2.3-11.5-3.8-17.8-4.3l14.4,7.4L279.6,155.8z M260.6,220.7l19.2,11.1l19.2-11.1v-22.1
			l-19.2-11.1l-19.2,11.1V220.7z M238.1,181.5l18.9,10.9l18.9-10.9l-2.4-16.1L257,157l-16.5,8.4L238.1,181.5z M302.4,192.3l8.4-5.5
			c-4.9-11.6-13.5-21.2-24.3-27.6l-6,5.2l2.5,16.7L302.4,192.3z M306.1,220.9l7.1,4.7c1.4-5.1,2.2-10.4,2.2-15.9
			c0-5.5-0.8-10.8-2.2-15.9l-7.1,4.7V220.9z M234.4,263.5c5.5,2.3,11.5,3.8,17.8,4.3l-14.3-7.3L234.4,263.5z"/>
	</g>
</g>
</svg>
