<?xml version="1.0" encoding="utf-8"?>
<!-- Generator: Adobe Illustrator 27.8.1, SVG Export Plug-In . SVG Version: 6.00 Build 0)  -->
<svg version="1.1" id="Layer_1" xmlns="http://www.w3.org/2000/svg" xmlns:xlink="http://www.w3.org/1999/xlink" x="0px" y="0px"
	 viewBox="0 0 514 514" style="enable-background:new 0 0 514 514;" xml:space="preserve">
<style type="text/css">
	.st0{clip-path:url(#SVGID_00000176762506838468254280000015931685508135519164_);}
</style>
<g>
	<defs>
		<rect id="SVGID_1_" x="-103" y="-103" width="720" height="720"/>
	</defs>
	<clipPath id="SVGID_00000155121094876990634450000017422584377791567521_">
		<use xlink:href="#SVGID_1_"  style="overflow:visible;"/>
	</clipPath>
	<g style="clip-path:url(#SVGID_00000155121094876990634450000017422584377791567521_);">
		<path d="M0,106.9c0-35.7,22.5-66.2,54.2-77.9L83.1,0v23.7l71.2,35.6l-11.9,23.7H83.1V190C37.2,190,0,152.8,0,106.9z M153.8,154.2
			c21.7-21.7,56.9-21.7,78.5,0l4.2,4.2L257,138l8.1,8.1l-48.6,48.6l25.4,32.2l-17.5,17.5l-41-16.6L166.1,245l-12.3-12.2
			C132.1,211.1,132.1,175.9,153.8,154.2z M192.1,219l29.5,12l5-5l-18.3-23.2L192.1,219z M430.9,83.1V190c45.9,0,83.1-37.2,83.1-83.1
			c0-35.7-22.5-66.2-54.2-77.9L430.9,0v23.7l-71.2,35.6l11.9,23.7H430.9z M430.9,324v106.9h-59.4l-11.9,23.7l71.2,35.6V514
			l28.9-28.9c31.6-11.8,54.2-42.2,54.2-77.9C514,361.2,476.8,324,430.9,324z M83.1,430.9V324C37.2,324,0,361.2,0,407.1
			c0,35.7,22.5,66.2,54.2,77.9L83.1,514v-23.7l71.2-35.6l-11.9-23.7H83.1z M349.8,169.2l45.7-42.1c1.4-1.3,2.3-2.9,2.7-4.4
			c0.3-1.5,0-3-1-4l-0.9-0.9l-0.9-0.9c-1-1-2.4-1.3-4-1c-1.5,0.3-3.1,1.2-4.4,2.7l-42.1,45.7L164.2,344.8l-45.7,42.1
			c-1.4,1.3-2.3,2.9-2.7,4.4c-0.3,1.5,0,3,1,4l0.9,0.9l0.9,0.9c1,1,2.4,1.3,4,1s3.1-1.2,4.4-2.7l42.1-45.7L349.8,169.2z
			 M360.2,359.8c-21.7,21.7-56.9,21.7-78.5,0l-4.2-4.2L257,376l-8.1-8.1l48.6-48.6l-25.4-32.2l17.5-17.5l41,16.6l17.3-17.3
			l12.3,12.2C381.9,302.9,381.9,338.1,360.2,359.8z M321.9,295l-29.5-12l-5,5l18.3,23.2L321.9,295z"/>
	</g>
</g>
</svg>
