<?xml version="1.0" encoding="utf-8"?>
<!-- Generator: Adobe Illustrator 27.8.1, SVG Export Plug-In . SVG Version: 6.00 Build 0)  -->
<svg version="1.1" id="Layer_1" xmlns="http://www.w3.org/2000/svg" xmlns:xlink="http://www.w3.org/1999/xlink" x="0px" y="0px"
	 viewBox="0 0 514 514" style="enable-background:new 0 0 514 514;" xml:space="preserve">
<style type="text/css">
	.st0{clip-path:url(#SVGID_00000004539605724192189570000014649032894424659888_);}
</style>
<g>
	<defs>
		<rect id="SVGID_1_" x="-103" y="-103" width="720" height="720"/>
	</defs>
	<clipPath id="SVGID_00000129183431421609343570000008193401253529772420_">
		<use xlink:href="#SVGID_1_"  style="overflow:visible;"/>
	</clipPath>
	<g style="clip-path:url(#SVGID_00000129183431421609343570000008193401253529772420_);">
		<path d="M153.9,114.9l51.2,51.1l-10.5,10.5l8.1,8.1l18.5-18.5l-67.3-67.3l-18.5,18.5l8.1,8.1L153.9,114.9z M104.2,318.3l1.2-7
			c-9.1-1.5-18.1-4.1-26.6-7.7l-2.8,6.6C85.1,313.9,94.6,316.7,104.2,318.3z M10.6,245.6c4,9,9,17.4,15,25.2l5.7-4.3
			c-5.6-7.3-10.4-15.3-14.1-23.8L10.6,245.6z M7.1,199.8L0,200.1c0.4,9.8,2,19.5,4.6,29l6.9-1.9C9,218.2,7.5,209.1,7.1,199.8z
			 M122,312.8l-0.2,7.1c9.8,0.2,19.6-0.7,29.2-2.7l-1.5-7C140.5,312.2,131.2,313.1,122,312.8z M13.6,156.2l-6.8-2.3
			c-3.2,9.2-5.3,18.9-6.3,28.6l7.1,0.7C8.5,174,10.5,164.9,13.6,156.2z M67.4,85.7l-5.1-5.1l-20.2,20.2l5.1,5.1L67.4,85.7z
			 M35.6,118l-5.4-4.7c-6.4,7.4-11.9,15.6-16.4,24.3l6.4,3.3C24.3,132.7,29.5,125,35.6,118z M64.1,295.9c-7.9-4.8-15.2-10.5-21.8-17
			l-5,5.1c7,6.9,14.8,13,23.2,18L64.1,295.9z M120.2,205.5c0-3.2-2.6-5.8-5.8-5.8s-5.8,2.6-5.8,5.8c0,3.2,2.6,5.8,5.8,5.8
			S120.2,208.7,120.2,205.5z M257,82.3c10.7,0,19.3-8.6,19.3-19.3c0-10.7-8.6-19.3-19.3-19.3s-19.3,8.6-19.3,19.3
			C237.7,73.6,246.3,82.3,257,82.3z M128.7,356.1l8.5,8.5l211.7-207.9l-13.2-13.2c-8.8,8.8-23.4,28.2-34.9,39.4
			c-4.1,4-27,27-54.8,55L55.4,47.3l-8.1,8.1L238,246.1C188.7,295.7,128.7,356.1,128.7,356.1z M439.6,39.8l-98.8,98.8l13.2,13.2
			c20.2-20.2,94.6-94.6,94.6-94.6c39.6-38.4,0.9-69.7-26-52.1c-21.1,13.8-1.7,33.3,11.2,21.8C441,20.3,452.2,28.3,439.6,39.8z
			 M409.8,195.7l-1.2,7c9.1,1.5,18.1,4.1,26.6,7.7l2.8-6.6C428.9,200.1,419.4,197.3,409.8,195.7z M503.4,268.4c-4-9-9-17.4-15-25.2
			l-5.7,4.3c5.6,7.3,10.4,15.3,14.1,23.8L503.4,268.4z M506.9,314.2l7.1-0.3c-0.4-9.8-2-19.5-4.6-29l-6.9,1.9
			C505,295.8,506.5,304.9,506.9,314.2z M392,201.2l0.2-7.1c-9.8-0.2-19.6,0.7-29.2,2.7l1.5,7C373.5,201.8,382.8,200.9,392,201.2z
			 M500.5,357.8l6.8,2.3c3.2-9.2,5.3-18.9,6.3-28.6l-7.1-0.7C505.5,340,503.5,349.1,500.5,357.8z M446.6,428.3l5.1,5.1l20.2-20.2
			l-5.1-5.1L446.6,428.3z M478.4,396l5.4,4.7c6.4-7.4,11.9-15.6,16.4-24.3l-6.4-3.3C489.7,381.3,484.5,389,478.4,396z M449.9,218
			c7.9,4.8,15.2,10.5,21.8,17l5-5.1c-7-6.9-14.8-13-23.2-18L449.9,218z M360.1,399.1L308.9,348l10.5-10.5l-8.1-8.1L292.7,348
			l67.3,67.3l18.5-18.5l-8.1-8.1L360.1,399.1z M393.8,308.5c0,3.2,2.6,5.8,5.8,5.8s5.8-2.6,5.8-5.8c0-3.2-2.6-5.8-5.8-5.8
			C396.4,302.7,393.8,305.3,393.8,308.5z M257,431.7c-10.7,0-19.3,8.6-19.3,19.3c0,10.7,8.6,19.3,19.3,19.3s19.3-8.6,19.3-19.3
			C276.3,440.4,267.7,431.7,257,431.7z M385.3,157.9l-8.5-8.5L165.1,357.2l13.2,13.2c8.8-8.8,23.4-28.2,34.9-39.4
			c4.1-4,27-27,54.8-55l190.7,190.6l8.1-8.1L276,267.9C325.3,218.3,385.3,157.9,385.3,157.9z M74.4,474.2l98.8-98.8l-13.2-13.2
			c-20.2,20.2-94.6,94.6-94.6,94.6c-39.6,38.4-0.9,69.7,26,52.1c21.1-13.8,1.7-33.3-11.2-21.8C73,493.7,61.8,485.7,74.4,474.2z
			 M221.9,240.1L196.1,266c-39.2,39.2-102.9,39.2-142.1,0c-39.2-39.2-39.2-102.9,0-142.1L79.8,98l8.1,8.1L62,132
			c-34.8,34.8-34.8,91.2,0,126c34.8,34.8,91.2,34.8,126,0l25.9-25.9L221.9,240.1z M292.1,273.9l25.9-25.9
			c39.2-39.2,102.9-39.2,142.1,0c39.2,39.2,39.2,102.9,0,142.1L434.2,416l-8.1-8.1L452,382c34.8-34.8,34.8-91.2,0-126
			c-34.8-34.8-91.2-34.8-126,0l-25.9,25.9L292.1,273.9z"/>
	</g>
</g>
</svg>
