<?xml version="1.0" encoding="utf-8"?>
<!-- Generator: Adobe Illustrator 27.8.1, SVG Export Plug-In . SVG Version: 6.00 Build 0)  -->
<svg version="1.1" id="Layer_1" xmlns="http://www.w3.org/2000/svg" xmlns:xlink="http://www.w3.org/1999/xlink" x="0px" y="0px"
	 viewBox="0 0 514 514" style="enable-background:new 0 0 514 514;" xml:space="preserve">
<style type="text/css">
	.st0{clip-path:url(#SVGID_00000166656252155431296810000018230156071423346082_);}
</style>
<g>
	<defs>
		<rect id="SVGID_1_" x="-103" y="-103" width="720" height="720"/>
	</defs>
	<clipPath id="SVGID_00000129191809457710958120000001705175298211664033_">
		<use xlink:href="#SVGID_1_"  style="overflow:visible;"/>
	</clipPath>
	<g style="clip-path:url(#SVGID_00000129191809457710958120000001705175298211664033_);">
		<path d="M315.9,23.5c-9.4-6-17.8-12.7-26.8-23.5h-63.9c-9,10.8-17.5,17.5-26.8,23.5l-24.6,15.7l-28.5,97.9L55.4,47.4l-8.1,8.1
			l77.1,77.1L0,257l124.5,124.5l-77.1,77.1l8.1,8.1l89.6-89.6l28.5,97.7l24.6,15.7c8.4,5.4,16.1,11.8,22.9,19.1l51.2-151.6h-63.5
			l-3.1-20.6h31.8l5,5l46-46l14.6,14.6l-26.4,26.4h31.6l-3.1,20.6h-20.8L231.6,514h50.5l-19.2-57l6-17.9l23.8,70.5
			c6.8-7.3,14.5-13.8,22.9-19.1l24.6-15.7l28.5-97.9l89.7,89.7l8.1-8.1l-77.1-77.1L514,257L389.5,132.5l77.1-77.1l-8.1-8.1
			L369,136.9l-28.5-97.7L315.9,23.5z M183.5,46.5l21-13.4c7.5-4.8,14.5-10.4,20.9-16.6L245,74.9l6-17.9l-15.4-45.6h42.8l-48.8,144.5
			h-20.8l-3.1,20.6h31.6L211,202.9l-18.1-18.1l11-72.5l-7.1-1.1l-10.2,67.3l-32.3-32.3L183.5,46.5z M132.5,373.4L16.1,257
			l116.4-116.4l53.6,53.6L123.4,257l62.8,62.8L132.5,373.4z M196.7,402.7l-10.2-67.1l6.3-6.3l11,72.3L196.7,402.7z M191.2,314.7
			L133.5,257l57.7-57.7l57.7,57.7L191.2,314.7z M237.4,337.4L211,311.1l14.6-14.6l26.4,26.4L237.4,337.4z M257,248.9l-31.4-31.4
			l46-46l5,5h31.8l-3.1-20.6h-63.5l47-139.4c6.4,6.2,13.4,11.8,20.9,16.6l21,13.4l29.1,99.6l-32.3,32.3l-10.2-67.1l-7.1,1.1l11,72.3
			L303,202.9l-26.4-26.4l-14.6,14.6l26.4,26.4L257,248.9z M265.1,257l57.7-57.7l57.7,57.7l-57.7,57.7L265.1,257z M317.1,402.7
			l-7.1-1.1l11-72.5l6.3,6.3L317.1,402.7z M327.8,319.8l62.8-62.8l-62.8-62.8l53.6-53.6L497.9,257L381.5,373.4L327.8,319.8z"/>
	</g>
</g>
</svg>
