<?xml version="1.0" encoding="utf-8"?>
<!-- Generator: Adobe Illustrator 27.8.1, SVG Export Plug-In . SVG Version: 6.00 Build 0)  -->
<svg version="1.1" id="Layer_1" xmlns="http://www.w3.org/2000/svg" xmlns:xlink="http://www.w3.org/1999/xlink" x="0px" y="0px"
	 viewBox="0 0 514 514" style="enable-background:new 0 0 514 514;" xml:space="preserve">
<style type="text/css">
	.st0{clip-path:url(#SVGID_00000076590088306035643280000002447833261175949476_);}
</style>
<g>
	<defs>
		<rect id="SVGID_1_" x="-103" y="-103" width="720" height="720"/>
	</defs>
	<clipPath id="SVGID_00000009563380665421235570000012479984085970758035_">
		<use xlink:href="#SVGID_1_"  style="overflow:visible;"/>
	</clipPath>
	<g style="clip-path:url(#SVGID_00000009563380665421235570000012479984085970758035_);">
		<path d="M31.4,452l-5.1,5.1l7.8,7.8L0,498.9L15.1,514l34.1-34.1l7.8,7.8l5.1-5.1L31.4,452z M15.1,503.9l-5.1-5.1l29.1-29.1
			l5.1,5.1L15.1,503.9z M487.6,57l-7.8-7.8L514,15.1L498.9,0l-34.1,34.1l-7.8-7.8l-5,5.1L482.6,62L487.6,57z M469.8,39.1l29.1-29.1
			l5.1,5.1l-29.1,29.1L469.8,39.1z M58.6,351.8l103.5,103.5L146,471.5L42.5,368L58.6,351.8z M37.4,373l103.5,103.5l-16.1,16.1
			L21.3,389.2L37.4,373z M16.2,394.3l103.5,103.5L103.6,514L0,410.4L16.2,394.3z M408.8,135.8l5.1-5.1l-30.6-30.6l-5.1,5.1l7.8,7.8
			L257,241.9l-129-129l7.8-7.8l-5.1-5.1l-30.6,30.6l5.1,5.1l7.8-7.8l128.9,129l-129,129l-7.8-7.8l-5.1,5.1l30.6,30.6l5.1-5.1
			l-7.8-7.8l129-128.9l129,129l-7.8,7.8l5.1,5.1l30.6-30.6l-5.1-5.1l-7.8,7.8L272.1,257l129-129L408.8,135.8z M123,396.1l-5.1-5.1
			l129-129l5.1,5.1L123,396.1z M391,396.1L117.9,123l5.1-5.1l273,273L391,396.1z M267.1,252l-5.1-5.1l129-129l5.1,5.1L267.1,252z
			 M455.4,162.2L351.8,58.7L368,42.5L471.5,146L455.4,162.2z M476.6,140.9L373,37.4l16.1-16.1l103.5,103.5L476.6,140.9z
			 M497.8,119.7L394.3,16.2L410.4,0L514,103.6L497.8,119.7z M26.4,57l5.1,5.1L62,31.4L57,26.4l-7.8,7.8L15.1,0L0,15.1l34.1,34.1
			L26.4,57z M10.1,15.1l5.1-5.1l29.1,29.1l-5.1,5.1L10.1,15.1z M487.6,457l-5.1-5.1L452,482.6l5.1,5.1l7.8-7.8l34.1,34.1l15.1-15.1
			l-34.1-34.1L487.6,457z M503.9,498.9l-5.1,5.1l-29.1-29.1l5.1-5.1L503.9,498.9z M42.5,146L146,42.5l16.1,16.1L58.6,162.2L42.5,146
			z M21.2,124.8L124.8,21.3l16.1,16.1L37.4,140.9L21.2,124.8z M0,103.6L103.6,0l16.1,16.1L16.2,119.7L0,103.6z M471.5,368L368,471.5
			l-16.1-16.1l103.5-103.5L471.5,368z M492.8,389.2L389.2,492.7l-16.1-16.1L476.6,373L492.8,389.2z M514,410.4L410.4,514l-16.1-16.1
			l103.5-103.5L514,410.4z"/>
	</g>
</g>
</svg>
