<?xml version="1.0" encoding="utf-8"?>
<!-- Generator: Adobe Illustrator 27.8.1, SVG Export Plug-In . SVG Version: 6.00 Build 0)  -->
<svg version="1.1" id="Layer_1" xmlns="http://www.w3.org/2000/svg" xmlns:xlink="http://www.w3.org/1999/xlink" x="0px" y="0px"
	 viewBox="0 0 514 514" style="enable-background:new 0 0 514 514;" xml:space="preserve">
<style type="text/css">
	.st0{clip-path:url(#SVGID_00000051375214109761845420000014556978044735814020_);}
</style>
<g>
	<defs>
		<rect id="SVGID_1_" x="-103" y="-103" width="720" height="720"/>
	</defs>
	<clipPath id="SVGID_00000029021941310810749140000003276850010727693733_">
		<use xlink:href="#SVGID_1_"  style="overflow:visible;"/>
	</clipPath>
	<g style="clip-path:url(#SVGID_00000029021941310810749140000003276850010727693733_);">
		<path d="M351.7,333.5C379.9,298.7,386,252,370.1,212c7.8-7.4,10-11,13.2-18.4c0.3-0.6,0.5-1.2,0.8-1.9c0.7-1.5,2.5-3.5,5.2-5.8
			l0,0c28.6,53.3,22.8,120.2-17.4,167.9L351.7,333.5z M347.1,105.2l64.7-42l13.9,13.9l-16.4,16.4c-1.5,1.5-2.3,3.5-2.3,5.6
			c0,2.1,0.8,4.1,2.3,5.6c1.5,1.5,3.5,2.3,5.6,2.3c2.1,0,4.1-0.8,5.6-2.3l16.4-16.5l13.9,13.9l-42,64.7l-2,0.9
			c-14.8,6.3-26.2,14.5-29.1,21c-0.3,0.7-0.6,1.3-0.8,1.9c-3.5,7.9-5,10.5-18.4,22.3c-9.7,8.5-20.5,16.9-23.7,19.1l-7,4.6l-3.5-7.6
			c-4.3-9.3-9.1-16.4-15.2-22.5l-1.6-1.6c-6-6.1-13.1-10.9-22.4-15.1l-7.6-3.5l4.6-7c2.1-3.2,10.6-14.1,19.1-23.7
			c11.8-13.4,14.3-14.9,22.3-18.4c0.6-0.3,1.2-0.5,1.9-0.8c6.5-2.9,14.7-14.3,21-29.1L347.1,105.2z M310.8,198.2l9.7-9.7
			c-7.2-6.6-15.2-12.1-24.1-16.2c-4.2,5.2-7.4,9.4-8.4,11C297.5,187.6,304.8,192.5,310.8,198.2z M341.8,217.6
			c-4.1-8.8-9.6-16.9-16.2-24.1l-9.7,9.7c5.7,6,10.6,13.3,14.9,22.8C332.3,224.9,336.6,221.7,341.8,217.6z M352.8,110
			c-4.6,10.9-13.8,28-24.6,32.9c-8.5,3.8-9.5,3.5-21.7,17.4c-0.8,1-1.7,1.9-2.5,2.9c9,4.5,17.2,10.3,24.6,17.2l18.8-18.8l5.1,5.1
			l-18.8,18.8c6.9,7.4,12.7,15.6,17.2,24.6c1-0.8,1.9-1.7,2.9-2.5c13.9-12.2,13.6-13.2,17.4-21.7c4.9-10.8,21.9-20,32.9-24.6
			l37.7-58.1l-4.8-4.8l-11.4,11.4c-2.9,2.9-6.8,4.4-10.6,4.4s-7.7-1.5-10.6-4.4c-5.9-5.9-5.9-15.4,0-21.3l11.4-11.4l-4.8-4.8
			L352.8,110z M320.5,130.7c0.6-0.3,1.2-0.5,1.9-0.8c1.5-0.7,3.5-2.5,5.8-5.2l0,0C274.9,96,208,101.8,160.2,142.1l20.3,20.3
			C215.3,134.2,262,128,302,143.9C309.4,136.1,313.1,133.9,320.5,130.7z M514,257l-94.1-94.1l-6.3,9.7l-0.1,0l84.3,84.3L386.5,368.3
			l8.1,8.1L514,257z M0,257l94.1,94.1l6.3-9.7l0.1,0L16.1,257l111.3-111.3l-8.1-8.1L0,257z M166.9,408.8l-64.7,42l-13.9-13.9
			l16.4-16.4c1.5-1.5,2.3-3.5,2.3-5.6c0-2.1-0.8-4.1-2.3-5.6c-1.5-1.5-3.5-2.3-5.6-2.3c-2.1,0-4.1,0.8-5.6,2.3l-16.4,16.5
			l-13.9-13.9l42-64.7l2-0.9c14.8-6.3,26.2-14.5,29.1-21c0.3-0.7,0.6-1.3,0.8-1.9c3.5-7.9,5-10.5,18.4-22.3
			c9.7-8.5,20.5-16.9,23.7-19.1l7-4.6l3.5,7.6c4.3,9.3,9.1,16.4,15.2,22.5l1.6,1.6c6,6.1,13.1,10.9,22.4,15.1l7.6,3.5l-4.6,7
			c-2.1,3.2-10.6,14.1-19.1,23.7c-11.8,13.4-14.3,14.9-22.3,18.4c-0.6,0.3-1.2,0.5-1.9,0.8c-6.5,2.9-14.7,14.3-21,29.1L166.9,408.8z
			 M203.2,315.8l-9.7,9.7c7.2,6.6,15.2,12.1,24.1,16.2c4.2-5.2,7.4-9.4,8.4-11C216.5,326.4,209.2,321.5,203.2,315.8z M172.2,296.4
			c4.1,8.8,9.6,16.9,16.2,24.1l9.7-9.7c-5.7-6-10.6-13.3-14.9-22.8C181.7,289.1,177.4,292.3,172.2,296.4z M161.2,404
			c4.6-10.9,13.8-28,24.6-32.9c8.5-3.8,9.5-3.5,21.7-17.4c0.8-1,1.7-1.9,2.5-2.9c-9-4.5-17.2-10.3-24.6-17.2l-18.8,18.8l-5.1-5.1
			l18.8-18.8c-6.9-7.4-12.7-15.6-17.2-24.6c-1,0.8-1.9,1.7-2.9,2.5c-13.9,12.2-13.6,13.2-17.4,21.7c-4.9,10.8-21.9,20-32.9,24.6
			l-37.7,58.1l4.8,4.8l11.4-11.4c2.9-2.9,6.8-4.4,10.6-4.4c3.8,0,7.7,1.5,10.6,4.4c5.9,5.9,5.9,15.4,0,21.3l-11.4,11.4l4.8,4.8
			L161.2,404z M257,497.9l-84.3-84.3l0,0.1l-9.7,6.3L257,514l119.4-119.4l-8.1-8.1L257,497.9z M257,16.1l84.3,84.3l0-0.1l9.7-6.3
			L257,0L137.6,119.4l8.1,8.1L257,16.1z M142,160.2c-40.3,47.7-46.1,114.6-17.4,167.9l0,0c2.7-2.2,4.5-4.2,5.2-5.8
			c0.3-0.7,0.6-1.3,0.8-1.9c3.3-7.4,5.4-11.1,13.2-18.4c-15.9-40-9.8-86.7,18.4-121.5L142,160.2z M193.5,383.3
			c-0.6,0.3-1.2,0.5-1.9,0.8c-1.5,0.7-3.5,2.5-5.8,5.2l0,0c53.3,28.6,120.2,22.8,167.9-17.4l-20.3-20.3
			C298.7,379.8,252,386,212,370.1C204.6,377.9,200.9,380.1,193.5,383.3z M279.2,271.1l187.5,187.5l-8.1,8.1L271.1,279.2
			c-10.2,6.5-23.9,5.3-32.7-3.6c-8.9-8.9-10.1-22.5-3.6-32.7L47.4,55.4l8.1-8.1l187.5,187.5c10.2-6.5,23.9-5.3,32.7,3.6
			C284.5,247.2,285.7,260.9,279.2,271.1z M248.1,240l25.9,25.9c3.8-7.2,2.7-16.4-3.4-22.5C264.5,237.3,255.3,236.2,248.1,240z
			 M265.9,274L240,248.1c-3.8,7.2-2.7,16.4,3.4,22.5C249.5,276.7,258.7,277.8,265.9,274z"/>
	</g>
</g>
</svg>
