<?xml version="1.0" encoding="utf-8"?>
<!-- Generator: Adobe Illustrator 27.8.1, SVG Export Plug-In . SVG Version: 6.00 Build 0)  -->
<svg version="1.1" id="Layer_1" xmlns="http://www.w3.org/2000/svg" xmlns:xlink="http://www.w3.org/1999/xlink" x="0px" y="0px"
	 viewBox="0 0 514 514" style="enable-background:new 0 0 514 514;" xml:space="preserve">
<style type="text/css">
	.st0{clip-path:url(#SVGID_00000114792921989202753020000005774028185734352804_);}
</style>
<g>
	<defs>
		<rect id="SVGID_1_" x="-103" y="-103" width="720" height="720"/>
	</defs>
	<clipPath id="SVGID_00000183210018253805291900000002952884820835266238_">
		<use xlink:href="#SVGID_1_"  style="overflow:visible;"/>
	</clipPath>
	<g style="clip-path:url(#SVGID_00000183210018253805291900000002952884820835266238_);">
		<path d="M292,106.2c-2.3,2.3-1.7,3.9-1,5l0.2,0.4c5.1,8.4-6.5,21.6-20,29.7c-0.7,0.4-1.5,0.9-2.2,1.3v-33.4c6-2,11.7-2.7,16-1.7
			c0.4-1.8,1.4-3.6,3-5.2c1.6-1.6,3.4-2.6,5.2-3c-1.8-7.6,1.9-19.4,7.9-29.3c3.2-5.4,7.2-10.4,11.4-14.2v46.7
			c-5.4,4-10.8,5.7-15.1,3.1l-0.4-0.2C295.9,104.6,294.3,104,292,106.2z M237.4,147c4.9,4.2,14.7,2.9,24.5-1.1v-34
			c-2.1,1-4.2,2.1-6.2,3.3c-8.4,5-16,12-19.4,18.5c-4.5-18.1,3.7-42.1,22.4-60.9c18.8-18.8,42.8-26.9,60.9-22.4v45.1
			c2.7-3.1,5.3-6.6,7.5-10.2c7.3-12.2,11.3-27.3,5.7-33.8l0,0c-11.4-15.4-40.3-45.5-74.1-50.9c-18.5-3-33.7,3-51.4,20.8
			s-23.7,32.9-20.8,51.4C191.9,106.7,222,135.6,237.4,147z M412,138.7c8.6,5.5,17.5,11.2,35.3,11.2c17.7,0,26.6-5.7,35.3-11.2
			c8.1-5.2,15.8-10.1,31.4-10.1v-7.1c-17.7,0-26.6,5.7-35.3,11.2c-8.1,5.2-15.8,10.1-31.4,10.1c-15.6,0-23.3-4.9-31.4-10.1
			c-5.2-3.3-10.4-6.7-17.6-8.8l68.4-68.4l-8.1-8.1L257,248.9L55.4,47.4l-8.1,8.1l81.4,81.4c-12.6-0.9-19.5-5.3-26.8-9.9
			c-8.6-5.5-17.5-11.2-35.3-11.2c-17.7,0-26.6,5.7-35.3,11.2C23.3,132.1,15.6,137,0,137v7.1c17.7,0,26.6-5.7,35.3-11.2
			c8.1-5.2,15.8-10.1,31.4-10.1c15.6,0,23.3,4.9,31.4,10.1c8.6,5.5,17.5,11.2,35.3,11.2c0.9,0,1.8,0,2.7,0l22.3,22.3
			c-6.2,3.5-13.4,6.1-24.9,6.1c-15.6,0-23.3-4.9-31.4-10.1c-8.6-5.5-17.5-11.2-35.3-11.2c-17.7,0-26.6,5.7-35.3,11.2
			c-8.1,5.2-15.8,10.1-31.4,10.1v7.1c17.7,0,26.6-5.7,35.3-11.2c8.1-5.2,15.8-10.1,31.4-10.1c15.6,0,23.3,4.9,31.4,10.1
			c8.6,5.5,17.5,11.2,35.3,11.2c14.3,0,22.8-3.7,30.2-8l17.8,17.8c-6.6,2.2-11.6,5.4-16.5,8.5c-8.1,5.2-15.8,10.1-31.4,10.1
			c-15.6,0-23.3-4.9-31.4-10.1c-8.6-5.5-17.5-11.2-35.3-11.2c-17.7,0-26.6,5.7-35.3,11.2c-8.1,5.2-15.8,10.1-31.4,10.1v7.1
			c17.7,0,26.6-5.7,35.3-11.2c8.1-5.2,15.8-10.1,31.4-10.1c15.6,0,23.3,4.9,31.4,10.1c8.6,5.5,17.5,11.2,35.3,11.2
			c17.7,0,26.6-5.7,35.3-11.2c5.5-3.5,10.8-6.9,18.5-8.7l28.8,28.8c-4.5-1.2-9.6-1.9-15.9-1.9c-17.7,0-26.6,5.7-35.3,11.2
			c-8.1,5.2-15.8,10.1-31.4,10.1c-15.6,0-23.3-4.9-31.4-10.1c-8.6-5.5-17.5-11.2-35.3-11.2c-17.7,0-26.6,5.7-35.3,11.2
			c-8.1,5.2-15.8,10.1-31.4,10.1v7.1c17.7,0,26.6-5.7,35.3-11.2c8.1-5.2,15.8-10.1,31.4-10.1c15.6,0,23.3,4.9,31.4,10.1
			c8.6,5.5,17.5,11.2,35.3,11.2c17.7,0,26.6-5.7,35.3-11.2c8.1-5.2,15.8-10.1,31.4-10.1c15.3,0,23,4.7,31,9.8l17.9,17.9l-12.5,12.5
			c-0.3-0.2-0.7-0.4-1-0.7c-8.6-5.5-17.5-11.2-35.3-11.2c-17.7,0-26.6,5.7-35.3,11.2c-8.1,5.2-15.8,10.1-31.4,10.1
			c-15.6,0-23.3-4.9-31.4-10.1c-8.6-5.5-17.5-11.2-35.3-11.2c-17.7,0-26.6,5.7-35.3,11.2c-8.1,5.2-15.8,10.1-31.4,10.1v7.1
			c17.7,0,26.6-5.7,35.3-11.2c8.1-5.2,15.8-10.1,31.4-10.1c15.6,0,23.3,4.9,31.4,10.1c8.6,5.5,17.5,11.2,35.3,11.2
			c17.7,0,26.6-5.7,35.3-11.2c8.1-5.2,15.8-10.1,31.4-10.1c15.4,0,23.1,4.8,31.1,9.9l-19.4,19.4c-3.5-0.6-7.3-1-11.7-1
			c-17.7,0-26.6,5.7-35.3,11.2c-8.1,5.2-15.8,10.1-31.4,10.1s-23.3-4.9-31.4-10.1c-8.6-5.5-17.5-11.2-35.3-11.2
			c-17.7,0-26.6,5.7-35.3,11.2c-8.1,5.2-15.8,10.1-31.4,10.1v7.1c17.7,0,26.6-5.7,35.3-11.2c8.1-5.2,15.8-10.1,31.4-10.1
			c15.6,0,23.3,4.9,31.4,10.1c8.6,5.5,17.5,11.2,35.3,11.2s26.6-5.7,35.3-11.2c8.1-5.2,15.8-10.1,31.4-10.1c1.9,0,3.7,0.1,5.3,0.2
			l-37.2,37.2c-1.2,0.7-2.3,1.4-3.4,2.2c-8.1,5.2-15.8,10.1-31.4,10.1c-15.6,0-23.3-4.9-31.4-10.1c-8.6-5.5-17.5-11.2-35.3-11.2
			c-17.7,0-26.6,5.7-35.3,11.2c-8.1,5.2-15.8,10.1-31.4,10.1v7.1c17.7,0,26.6-5.7,35.3-11.2c8.1-5.2,15.8-10.1,31.4-10.1
			c15.6,0,23.3,4.9,31.4,10.1c8.6,5.5,17.5,11.2,35.3,11.2c7.3,0,13-1,17.9-2.5l-29.7,29.7c-8.3-1.7-13.9-5.3-19.7-9
			c-8.6-5.5-17.5-11.2-35.3-11.2c-17.7,0-26.6,5.7-35.3,11.2c-8.1,5.2-15.8,10.1-31.4,10.1v7.1c17.7,0,26.6-5.7,35.3-11.2
			c8.1-5.2,15.8-10.1,31.4-10.1c15.6,0,23.3,4.9,31.4,10.1c5.2,3.3,10.4,6.7,17.6,8.8l-68.4,68.4l8.1,8.1L257,265.1l201.6,201.6
			l8.1-8.1l-81.4-81.4c12.6,0.9,19.6,5.3,26.8,9.9c8.6,5.5,17.5,11.2,35.3,11.2c17.7,0,26.6-5.7,35.3-11.2
			c8.1-5.2,15.8-10.1,31.4-10.1v-7.1c-17.7,0-26.6,5.7-35.3,11.2c-8.1,5.2-15.8,10.1-31.4,10.1c-15.6,0-23.3-4.9-31.4-10.1
			c-8.6-5.5-17.5-11.2-35.3-11.2c-0.9,0-1.8,0-2.7,0l-22.3-22.3c6.2-3.5,13.4-6.1,24.9-6.1c15.6,0,23.3,4.9,31.4,10.1
			c8.6,5.5,17.5,11.2,35.3,11.2c17.7,0,26.6-5.7,35.3-11.2c8.1-5.2,15.8-10.1,31.4-10.1v-7.1c-17.7,0-26.6,5.7-35.3,11.2
			c-8.1,5.2-15.8,10.1-31.4,10.1c-15.6,0-23.3-4.9-31.4-10.1c-8.6-5.5-17.5-11.2-35.3-11.2c-14.3,0-22.8,3.7-30.2,8l-17.8-17.8
			c6.6-2.2,11.6-5.4,16.5-8.5c8.1-5.2,15.8-10.1,31.4-10.1c15.6,0,23.3,4.9,31.4,10.1c8.6,5.5,17.5,11.2,35.3,11.2
			c17.7,0,26.6-5.7,35.3-11.2c8.1-5.2,15.8-10.1,31.4-10.1v-7.1c-17.7,0-26.6,5.7-35.3,11.2c-8.1,5.2-15.8,10.1-31.4,10.1
			c-15.6,0-23.3-4.9-31.4-10.1c-8.6-5.5-17.5-11.2-35.3-11.2s-26.6,5.7-35.3,11.2c-5.5,3.5-10.8,6.9-18.5,8.7L298,289.9
			c4.5,1.2,9.6,1.9,15.9,1.9c17.7,0,26.6-5.7,35.3-11.2c8.1-5.2,15.8-10.1,31.4-10.1c15.6,0,23.3,4.9,31.4,10.1
			c8.6,5.5,17.5,11.2,35.3,11.2c17.7,0,26.6-5.7,35.3-11.2c8.1-5.2,15.8-10.1,31.4-10.1v-7.1c-17.7,0-26.6,5.7-35.3,11.2
			c-8.1,5.2-15.8,10.1-31.4,10.1c-15.6,0-23.3-4.9-31.4-10.1c-8.6-5.5-17.5-11.2-35.3-11.2s-26.6,5.7-35.3,11.2
			c-8.1,5.2-15.8,10.1-31.4,10.1c-15.3,0-23-4.7-31-9.8L265.1,257l12.5-12.5c0.3,0.2,0.7,0.4,1,0.7c8.6,5.5,17.5,11.2,35.3,11.2
			c17.7,0,26.6-5.7,35.3-11.2c8.1-5.2,15.8-10.1,31.4-10.1c15.6,0,23.3,4.9,31.4,10.1c8.6,5.5,17.5,11.2,35.3,11.2
			c17.7,0,26.6-5.7,35.3-11.2c8.1-5.2,15.8-10.1,31.4-10.1v-7.1c-17.7,0-26.6,5.7-35.3,11.2c-8.1,5.2-15.8,10.1-31.4,10.1
			c-15.6,0-23.3-4.9-31.4-10.1c-8.6-5.5-17.5-11.2-35.3-11.2s-26.6,5.7-35.3,11.2c-8.1,5.2-15.8,10.1-31.4,10.1
			c-15.4,0-23.1-4.8-31.1-9.9l19.4-19.4c3.5,0.6,7.3,1,11.7,1c17.7,0,26.6-5.7,35.3-11.2c8.1-5.2,15.8-10.1,31.4-10.1
			s23.3,4.9,31.4,10.1c8.6,5.5,17.5,11.2,35.3,11.2c17.7,0,26.6-5.7,35.3-11.2c8.1-5.2,15.8-10.1,31.4-10.1v-7.1
			c-17.7,0-26.6,5.7-35.3,11.2c-8.1,5.2-15.8,10.1-31.4,10.1c-15.6,0-23.3-4.9-31.4-10.1c-8.6-5.5-17.5-11.2-35.3-11.2
			s-26.6,5.7-35.3,11.2c-8.1,5.2-15.8,10.1-31.4,10.1c-1.9,0-3.7-0.1-5.3-0.2l37.2-37.2c1.2-0.7,2.3-1.4,3.4-2.2
			c8.1-5.2,15.8-10.1,31.4-10.1s23.3,4.9,31.4,10.1c8.6,5.5,17.5,11.2,35.3,11.2c17.7,0,26.6-5.7,35.3-11.2
			c8.1-5.2,15.8-10.1,31.4-10.1v-7.1c-17.7,0-26.6,5.7-35.3,11.2c-8.1,5.2-15.8,10.1-31.4,10.1c-15.6,0-23.3-4.9-31.4-10.1
			c-8.6-5.5-17.5-11.2-35.3-11.2c-7.3,0-13,1-17.9,2.5l29.7-29.7C400.7,131.5,406.3,135,412,138.7z M217,408.8l-0.4-0.2
			c-4.3-2.5-9.7-0.9-15.1,3.1v46.7c4.2-3.8,8.2-8.9,11.4-14.2c5.9-9.9,9.7-21.7,7.9-29.3c1.8-0.4,3.6-1.4,5.2-3
			c1.6-1.6,2.6-3.4,3-5.2c4.3,1,10,0.2,16-1.7v-33.4c-0.7,0.4-1.5,0.8-2.2,1.3c-13.5,8.1-25.1,21.2-20,29.7l0.2,0.4
			c0.6,1.1,1.2,2.8-1,5C219.8,410,218.1,409.4,217,408.8z M276.6,367c-4.9-4.2-14.7-2.9-24.5,1.1v34c2.1-1,4.2-2.1,6.2-3.3
			c8.4-5,16-12,19.4-18.5c4.5,18.1-3.7,42.1-22.4,60.9c-18.8,18.8-42.8,26.9-60.9,22.4v-45.1c-2.7,3.1-5.3,6.6-7.5,10.2
			c-7.3,12.2-11.3,27.3-5.7,33.8l0,0c11.4,15.4,40.3,45.5,74.1,50.9c18.5,3,33.7-3,51.4-20.8c17.8-17.8,23.7-32.9,20.8-51.4
			C322.1,407.3,292,378.4,276.6,367z"/>
	</g>
</g>
</svg>
