<?xml version="1.0" encoding="utf-8"?>
<!-- Generator: Adobe Illustrator 27.8.1, SVG Export Plug-In . SVG Version: 6.00 Build 0)  -->
<svg version="1.1" id="Layer_1" xmlns="http://www.w3.org/2000/svg" xmlns:xlink="http://www.w3.org/1999/xlink" x="0px" y="0px"
	 viewBox="0 0 514 514" style="enable-background:new 0 0 514 514;" xml:space="preserve">
<style type="text/css">
	.st0{clip-path:url(#SVGID_00000072962573780967086330000003766800849778833302_);}
</style>
<g>
	<defs>
		<rect id="SVGID_1_" x="-103" y="-103" width="720" height="720"/>
	</defs>
	<clipPath id="SVGID_00000152261721907541385610000017321457532898859396_">
		<use xlink:href="#SVGID_1_"  style="overflow:visible;"/>
	</clipPath>
	<g style="clip-path:url(#SVGID_00000152261721907541385610000017321457532898859396_);">
		<path d="M301.4,141.1l2.6,4.3c0,0,0.9,1.6,2,4.4l-0.8-0.2c-9.2-1.9-17.3-7.1-23-14.6l-1.9-2.6c-5.8-7.8-14.5-12.5-23.3-12.5
			s-17.5,4.7-23.3,12.5l-1.9,2.6c-5.6,7.6-13.8,12.8-23,14.6l-0.8,0.2c1.1-2.8,2-4.4,2-4.4l2.6-4.2c5.3-2.1,10-5.7,13.5-10.4
			l1.9-2.6c7.1-9.6,17.9-15.3,29-15.4c11,0,21.8,5.8,29,15.4l1.9,2.6C291.4,135.4,296,139,301.4,141.1z M128.1,286l2.6,1.9
			c4.7,3.5,8.2,8.1,10.4,13.5l4.3,2.6c0,0,1.6,0.9,4.4,2l-0.2-0.8c-1.9-9.2-7.1-17.3-14.6-23l-2.6-1.9c-7.8-5.8-12.5-14.5-12.5-23.3
			c0-8.8,4.7-17.5,12.5-23.3l2.6-1.9c7.6-5.6,12.8-13.8,14.6-23l0.2-0.8c-2.8,1.1-4.3,2-4.3,2l-4.3,2.6c-2.1,5.3-5.7,10-10.4,13.5
			l-2.6,1.9c-9.6,7.1-15.3,17.9-15.4,29C112.7,268,118.5,278.8,128.1,286z M226.1,383.3l1.9,2.6c7.1,9.6,17.9,15.3,29,15.4
			c11,0,21.8-5.8,29-15.4l1.9-2.6c3.5-4.7,8.2-8.3,13.5-10.4l2.6-4.3c0,0,0.9-1.6,2-4.4l-0.8,0.2c-9.2,1.9-17.3,7.1-23,14.6
			l-1.9,2.6c-5.8,7.8-14.5,12.5-23.3,12.5s-17.5-4.7-23.3-12.5l-1.9-2.6c-5.6-7.6-13.8-12.8-23-14.6l-0.8-0.2c1.1,2.8,2,4.3,2,4.3
			l2.6,4.3C218,375.1,222.6,378.7,226.1,383.3z M385.9,228.1l-2.6-1.9c-4.7-3.5-8.3-8.2-10.4-13.5l-4.2-2.6c0,0-1.6-0.9-4.4-2
			l0.2,0.8c1.9,9.2,7.1,17.3,14.6,23l2.6,1.9c7.8,5.8,12.5,14.5,12.5,23.3c0,8.8-4.7,17.5-12.5,23.3l-2.6,1.9
			c-7.6,5.6-12.8,13.8-14.6,23l-0.2,0.8c2.8-1.1,4.3-2,4.3-2l4.3-2.6c2.1-5.3,5.7-10,10.4-13.5l2.6-1.9c9.6-7.1,15.3-17.9,15.4-29
			C401.3,246,395.5,235.2,385.9,228.1z M227,327c4.1,0.8,7.8,3.2,10.4,6.6l1.2,1.6c4.5,6.1,11.5,9.8,18.5,9.8c7,0,13.9-3.7,18.5-9.8
			l1.2-1.6c2.5-3.4,6.2-5.8,10.4-6.6l16.1-3.3c0.3-0.1,0.6-0.1,0.9-0.2c-0.8-2-1.7-4-2.7-5.9l-0.3-0.6l-15.5,3.1
			c-5.9,1.2-11.1,4.5-14.6,9.3l-1.2,1.6c-3.2,4.3-8,6.9-12.8,6.9c-4.8,0-9.6-2.6-12.9-6.9l-1.2-1.6c-3.6-4.8-8.8-8.1-14.6-9.3
			l-15.5-3.1l-0.3,0.6c-1,2-1.9,4-2.7,5.9c0.3,0.1,0.6,0.2,0.9,0.2L227,327z M327,287c0.8-4.1,3.2-7.8,6.6-10.4l1.6-1.2
			c6.1-4.5,9.8-11.5,9.8-18.5c0-7-3.7-13.9-9.8-18.5l-1.6-1.2c-3.4-2.5-5.8-6.2-6.6-10.4l-3.3-16.1c-0.1-0.3-0.2-0.6-0.2-0.9
			c-2,0.8-4,1.7-5.9,2.7l-0.6,0.3l3.1,15.5c1.2,5.9,4.5,11.1,9.3,14.6l1.6,1.2c4.3,3.2,6.9,8,6.9,12.8c0,4.8-2.6,9.6-6.9,12.9
			l-1.6,1.2c-4.8,3.6-8.1,8.8-9.3,14.6l-3.1,15.4l0.6,0.3c2,1,4,1.9,5.9,2.7c0.1-0.3,0.2-0.6,0.2-0.9L327,287z M197,301.1l-3.1-15.4
			c-1.2-5.9-4.5-11.1-9.3-14.6l-1.6-1.2c-4.3-3.2-6.9-8-6.9-12.8c0-4.8,2.6-9.6,6.9-12.8l1.6-1.2c4.8-3.6,8.1-8.8,9.3-14.6l3.1-15.5
			l-0.6-0.3c-2-1-4-1.9-5.9-2.7c-0.1,0.3-0.2,0.6-0.2,1L187,227c-0.8,4.1-3.2,7.8-6.6,10.4l-1.6,1.2c-6.1,4.5-9.8,11.5-9.8,18.5
			c0,7,3.7,13.9,9.8,18.5l1.6,1.2c3.4,2.5,5.8,6.2,6.6,10.4l3.3,16.1c0.1,0.3,0.1,0.6,0.2,0.9c2-0.8,4-1.7,5.9-2.7L197,301.1z
			 M287,187.1c-4.1-0.8-7.8-3.2-10.4-6.6l-1.2-1.6c-4.5-6.1-11.5-9.8-18.5-9.8c-7,0-13.9,3.7-18.5,9.8l-1.2,1.6
			c-2.5,3.4-6.2,5.8-10.4,6.6l-16.1,3.3c-0.3,0.1-0.6,0.1-0.9,0.2c0.8,2,1.7,4,2.7,5.9l0.3,0.7l15.4-3.1c5.9-1.2,11.1-4.5,14.6-9.3
			l1.2-1.6c3.2-4.3,8-6.9,12.8-6.9c4.8,0,9.6,2.6,12.9,6.9l1.2,1.6c3.6,4.8,8.8,8.1,14.6,9.3l15.4,3.1l0.3-0.7c1-2,1.9-3.9,2.7-5.9
			c-0.3-0.1-0.6-0.2-0.9-0.2L287,187.1z M487.5,207.1l-4.7-3.5c-11.7-8.7-19.7-21.2-22.5-35.4l-7.2-35.7c-1.1,1.3-2.2,2.6-3.4,3.8
			c-0.8,0.8-1.6,1.6-2.5,2.4l6.3,31c3.2,15.9,12.2,30,25.3,39.7l4.7,3.5c14.8,11,23.7,27.5,23.7,44.2c0,16.7-8.9,33.2-23.7,44.2
			l-4.7,3.5c-13.1,9.7-22,23.8-25.3,39.7l-6.3,31c0.9,0.8,1.7,1.5,2.5,2.4c1.2,1.2,2.4,2.5,3.4,3.8l7.2-35.7
			c2.9-14.2,10.9-26.7,22.5-35.4l4.7-3.5c16.6-12.3,26.5-31,26.5-49.9C514,238.1,504.1,219.4,487.5,207.1z M136.3,64.4
			c0.8,0.8,1.6,1.6,2.4,2.5l31-6.3c15.9-3.2,30-12.2,39.7-25.3l3.5-4.7C223.8,15.9,240.3,7.1,257,7c16.7,0,33.2,8.9,44.2,23.7
			l3.5,4.7c9.7,13.1,23.8,22,39.7,25.3l31,6.3c0.8-0.9,1.5-1.7,2.4-2.5c1.2-1.2,2.5-2.4,3.8-3.4l-35.7-7.2
			c-14.2-2.9-26.7-10.9-35.4-22.5l-3.5-4.7C294.6,9.9,275.9,0,257,0c-18.9,0-37.6,9.9-49.9,26.5l-3.5,4.7
			c-8.7,11.7-21.2,19.7-35.4,22.5L132.5,61C133.8,62,135.1,63.2,136.3,64.4z M61,381.5c1.1-1.3,2.2-2.6,3.4-3.8
			c0.8-0.8,1.6-1.6,2.5-2.4l-6.3-31c-3.2-15.9-12.2-30-25.3-39.7l-4.7-3.5C15.9,290.2,7.1,273.7,7,257c0-16.7,8.9-33.2,23.7-44.2
			l4.7-3.5c13.1-9.7,22-23.8,25.3-39.7l6.3-31c-0.9-0.8-1.7-1.5-2.5-2.4c-1.2-1.2-2.4-2.5-3.4-3.8l-7.2,35.7
			c-2.9,14.2-10.9,26.7-22.5,35.4l-4.7,3.5C9.9,219.4,0,238.1,0,257c0,18.9,9.9,37.6,26.5,49.9l4.7,3.5
			c11.7,8.7,19.7,21.2,22.5,35.4L61,381.5z M377.7,449.6c-0.8-0.8-1.6-1.6-2.4-2.5l-31,6.3c-15.9,3.2-30,12.2-39.7,25.3l-3.5,4.7
			c-11,14.8-27.5,23.7-44.2,23.7c-16.7,0-33.2-8.9-44.2-23.7l-3.5-4.7c-9.7-13.1-23.8-22-39.7-25.3l-31-6.3
			c-0.8,0.9-1.5,1.7-2.4,2.5c-1.2,1.2-2.5,2.4-3.8,3.4l35.7,7.2c14.2,2.9,26.7,10.9,35.4,22.5l3.5,4.7c12.3,16.6,31,26.5,49.9,26.5
			c18.9,0,37.6-9.9,49.9-26.5l3.5-4.7c8.7-11.7,21.2-19.7,35.4-22.5l35.7-7.2C380.2,451.9,378.9,450.8,377.7,449.6z M457.6,257
			c0-15-7.8-29.7-20.9-39.4l-3.6-2.7c-8.9-6.6-15-16.2-17.2-27.1L410,159c-1.6,1.3-3.2,2.6-4.6,4.1c-0.5,0.5-1,1-1.4,1.5l5,24.6
			c2.5,12.5,9.6,23.7,19.9,31.3l3.6,2.7c11.3,8.4,18.1,21,18.1,33.8c0,12.7-6.8,25.4-18.1,33.8l-3.6,2.7
			c-10.3,7.7-17.4,18.8-19.9,31.3l-5,24.6c0.5,0.5,0.9,1,1.4,1.5c1.5,1.5,3,2.8,4.6,4.1l5.8-28.8c2.2-10.8,8.3-20.4,17.2-27.1
			l3.6-2.7C449.8,286.7,457.6,272,457.6,257z M299.1,80.9l-2.7-3.6C286.7,64.2,272,56.4,257,56.4c-15,0-29.7,7.8-39.4,20.9l-2.7,3.6
			c-6.6,8.9-16.2,15-27.1,17.2L159,104c1.3,1.6,2.6,3.2,4.1,4.6c0.5,0.5,1,1,1.5,1.4l24.6-5c12.5-2.5,23.7-9.6,31.3-19.9l2.7-3.6
			c8.4-11.3,21-18.1,33.8-18.1c12.7,0,25.4,6.8,33.8,18.1l2.7,3.6c7.7,10.3,18.8,17.4,31.3,19.9l24.6,5c0.5-0.5,1-0.9,1.5-1.4
			c1.5-1.5,2.8-3,4.1-4.6l-28.8-5.8C315.4,96,305.7,89.9,299.1,80.9z M77.3,296.4l3.6,2.7c8.9,6.6,15,16.2,17.2,27.1L104,355
			c1.6-1.3,3.2-2.6,4.6-4.1c0.5-0.5,1-1,1.4-1.5l-5-24.6c-2.5-12.5-9.6-23.7-19.9-31.3l-3.6-2.7c-11.3-8.4-18.1-21-18.1-33.8
			c0-12.7,6.8-25.4,18.1-33.8l3.6-2.7c10.3-7.7,17.4-18.8,19.9-31.3l5-24.6c-0.5-0.5-0.9-1-1.4-1.5c-1.5-1.5-3-2.8-4.6-4.1
			l-5.8,28.8c-2.2,10.8-8.3,20.4-17.2,27.1l-3.6,2.7c-13.1,9.7-20.9,24.5-20.9,39.4C56.4,272,64.2,286.7,77.3,296.4z M214.9,433.1
			l2.7,3.6c9.7,13.1,24.5,20.9,39.4,20.9c15,0,29.7-7.8,39.4-20.9l2.7-3.6c6.6-8.9,16.2-15,27.1-17.2L355,410
			c-1.3-1.6-2.6-3.2-4.1-4.6c-0.5-0.5-1-0.9-1.5-1.4l-24.6,5c-12.5,2.5-23.7,9.6-31.3,19.9l-2.7,3.6c-8.4,11.3-21,18.1-33.8,18.1
			c-12.7,0-25.4-6.8-33.8-18.1l-2.7-3.6c-7.7-10.3-18.8-17.4-31.3-19.9l-24.6-5c-0.5,0.5-1,0.9-1.5,1.4c-1.5,1.5-2.8,3-4.1,4.6
			l28.8,5.8C198.6,418,208.3,424.2,214.9,433.1z M375.3,135.8c3.1,0.6,6.3,1.3,9.3,2c18.4,4,35.8,7.8,51.8-0.5
			c2.8-1.5,5.6-3.5,8.2-6c11.2-11.2,15.1-27,11.6-41.3l-7.3,0.9c2.7,10.2,0.9,21.4-5.3,30.4l0,0c-1.3-4.1-4.6-6.7-8.8-8.5
			c-4.2-1.8-9.4-2.7-14.4-3.7c-4-0.7-7.6-2.6-10.3-5.3c-2.7-2.8-4.5-6.3-5.3-10.3c-0.9-5-1.9-10.2-3.7-14.4
			c-1.8-4.2-4.4-7.5-8.5-8.8c6.3-4.4,13.6-6.6,21-6.6c3.2,0,6.4,0.4,9.5,1.2l0.9-7.3c-3.4-0.8-6.9-1.2-10.3-1.2
			c-11.2,0-22.4,4.3-31,12.8c-5.9,5.9-10.1,12.9-12.5,20.4c-2.6,8.7-7.4,16.9-14.2,23.8c-4.5,4.5-9.5,8.2-14.9,11.1L314.9,139
			C338,128.3,357.8,132.3,375.3,135.8z M383.1,144.7c-3.1-0.7-6.1-1.3-9.2-2c-18.5-3.7-37.6-7.6-60.7,5l-0.3,0.2
			c1,2.6,2,5.9,2.7,9.8c1.9,10.6,0.1,26.3-7.9,41.9c0,0,1.7,1.2,3.6,3.1c1.9,1.9,3.1,3.6,3.1,3.6c11.9-6.1,23.8-8.6,33.5-8.6
			c3,0,5.9,0.2,8.4,0.7c9.9,1.8,16.1,5.5,16.1,5.5l16.9-31c2.9-5.3,6.6-10.4,11.1-14.9c3.5-3.5,7.2-6.4,11.3-8.7
			C402.4,148.9,392.9,146.9,383.1,144.7z M135.8,138.7c0.6-3.1,1.3-6.3,2-9.3c4-18.4,7.8-35.8-0.5-51.8c-1.5-2.8-3.5-5.6-6-8.2
			c-11.2-11.2-27-15.1-41.3-11.6l0.9,7.3c10.2-2.7,21.4-0.9,30.4,5.3l0,0c-4.1,1.3-6.7,4.6-8.5,8.8c-1.8,4.2-2.7,9.4-3.7,14.4
			c-0.7,4-2.6,7.6-5.3,10.3c-2.8,2.7-6.3,4.5-10.3,5.3c-5,0.9-10.2,1.9-14.4,3.7c-4.2,1.8-7.5,4.4-8.8,8.5c-4.4-6.3-6.6-13.6-6.6-21
			c0-3.2,0.4-6.4,1.2-9.5L57.8,90c-0.8,3.4-1.2,6.9-1.2,10.3c0,11.2,4.3,22.4,12.8,31c5.9,5.9,12.9,10.1,20.4,12.5
			c8.7,2.6,16.9,7.4,23.8,14.2c4.5,4.5,8.2,9.5,11.1,14.9l14.3,26.2C128.3,176,132.3,156.2,135.8,138.7z M144.7,130.9
			c-0.7,3.1-1.3,6.1-2,9.2c-3.7,18.5-7.6,37.6,5,60.7l0.2,0.3c2.6-1,5.9-2,9.8-2.7c10.6-1.9,26.3-0.1,41.9,7.9c0,0,1.2-1.7,3.1-3.6
			c1.9-1.9,3.6-3.1,3.6-3.1c-6.1-11.9-8.6-23.8-8.6-33.5c0-3,0.2-5.9,0.7-8.4c1.8-9.9,5.5-16.1,5.5-16.1l-31-16.9
			c-5.3-2.9-10.4-6.6-14.9-11.1c-3.5-3.5-6.4-7.2-8.7-11.3C148.9,111.7,146.9,121.1,144.7,130.9z M138.7,378.2
			c-3.1-0.6-6.3-1.3-9.3-2c-18.4-4-35.8-7.8-51.8,0.5c-2.8,1.5-5.6,3.5-8.2,6c-11.2,11.2-15.1,27-11.6,41.3l7.3-0.9
			c-2.7-10.2-0.9-21.4,5.3-30.4l0,0c1.3,4.1,4.6,6.7,8.8,8.5c4.2,1.8,9.4,2.7,14.4,3.7c4,0.7,7.6,2.6,10.3,5.3
			c2.7,2.8,4.5,6.3,5.3,10.3c0.9,5,1.9,10.2,3.7,14.4c1.8,4.2,4.4,7.5,8.5,8.8c-6.3,4.4-13.6,6.6-21,6.6c-3.2,0-6.4-0.4-9.5-1.2
			l-0.9,7.3c3.4,0.8,6.9,1.2,10.3,1.2c11.2,0,22.4-4.3,31-12.8c5.9-5.9,10.1-12.9,12.5-20.4c2.6-8.7,7.4-16.9,14.2-23.8
			c4.5-4.5,9.5-8.2,14.9-11.1l26.2-14.3C176,385.7,156.2,381.7,138.7,378.2z M130.9,369.3c3.1,0.7,6.1,1.3,9.2,2
			c18.5,3.7,37.6,7.6,60.7-5l0.3-0.2c-1-2.6-2-5.9-2.7-9.8c-1.9-10.6-0.1-26.3,7.9-41.9c0,0-1.7-1.2-3.6-3.1
			c-1.9-1.9-3.1-3.6-3.1-3.6c-11.9,6.1-23.8,8.6-33.5,8.6c-3,0-5.9-0.2-8.4-0.7c-9.9-1.8-16.1-5.5-16.1-5.5l-16.9,31
			c-2.9,5.3-6.6,10.4-11.1,14.9c-3.5,3.5-7.2,6.4-11.3,8.7C111.7,365.1,121.1,367.1,130.9,369.3z M378.2,375.3
			c-0.6,3.1-1.3,6.3-2,9.3c-4,18.4-7.8,35.8,0.5,51.8c1.5,2.8,3.5,5.6,6,8.2c11.2,11.2,27,15.1,41.3,11.6l-0.9-7.3
			c-10.2,2.7-21.4,0.9-30.4-5.3l0,0c4.1-1.3,6.7-4.6,8.5-8.8c1.8-4.2,2.7-9.4,3.7-14.4c0.7-4,2.6-7.6,5.3-10.3
			c2.8-2.7,6.3-4.5,10.3-5.3c5-0.9,10.2-1.9,14.4-3.7c4.2-1.8,7.5-4.4,8.8-8.5c4.4,6.3,6.6,13.6,6.6,21c0,3.2-0.4,6.4-1.2,9.5
			l7.3,0.9c0.8-3.4,1.2-6.9,1.2-10.3c0-11.2-4.3-22.4-12.8-31c-5.9-5.9-12.9-10.1-20.4-12.5c-8.7-2.6-16.9-7.4-23.8-14.2
			c-4.5-4.5-8.2-9.5-11.1-14.9L375,314.9C385.7,338,381.7,357.8,378.2,375.3z M369.3,383.1c0.7-3.1,1.3-6.1,2-9.2
			c3.7-18.5,7.6-37.6-5-60.7l-0.2-0.3c-2.6,1-5.9,2-9.8,2.7c-10.6,1.9-26.3,0.1-41.9-7.9c0,0-1.2,1.7-3.1,3.6
			c-1.9,1.9-3.6,3.1-3.6,3.1c6.1,11.9,8.6,23.8,8.6,33.5c0,3-0.2,5.9-0.7,8.4c-1.8,9.9-5.5,16.1-5.5,16.1l31,16.9
			c5.3,2.9,10.4,6.6,14.9,11.1c3.5,3.5,6.4,7.2,8.7,11.3C365.1,402.3,367.1,392.9,369.3,383.1z"/>
	</g>
</g>
</svg>
