<?xml version="1.0" encoding="utf-8"?>
<!-- Generator: Adobe Illustrator 27.8.1, SVG Export Plug-In . SVG Version: 6.00 Build 0)  -->
<svg version="1.1" id="Layer_1" xmlns="http://www.w3.org/2000/svg" xmlns:xlink="http://www.w3.org/1999/xlink" x="0px" y="0px"
	 viewBox="0 0 514 514" style="enable-background:new 0 0 514 514;" xml:space="preserve">
<style type="text/css">
	.st0{clip-path:url(#SVGID_00000079457983048837542200000014699923936616372650_);}
</style>
<g>
	<defs>
		<rect id="SVGID_1_" x="-103" y="-103" width="720" height="720"/>
	</defs>
	<clipPath id="SVGID_00000061451797596491776120000002718051623902590337_">
		<use xlink:href="#SVGID_1_"  style="overflow:visible;"/>
	</clipPath>
	<g style="clip-path:url(#SVGID_00000061451797596491776120000002718051623902590337_);">
		<path d="M514,257l-9.7-2.5c-8.9-2.3-13.3-8-16.3-21.2l-0.2-1.1c-4.2-16.7-15.8-27.9-33.6-32.4c-13.2-3.3-23.4-13.6-26.7-26.9
			l-1.1-4.3c-3.7-14.7-15-26-29.7-29.6c-3.4-0.8-6.6-2.3-9.5-4.3l79.4-79.4l-8.1-8.1L257,248.9L55.4,47.4l-8.1,8.1l77.1,77.1L0,257
			l9.7,2.5c8.9,2.3,13.3,8,16.3,21.2l0.2,1.1c4.2,16.7,15.8,27.9,33.6,32.4c13.2,3.3,23.4,13.6,26.7,26.9l1.1,4.3
			c3.7,14.7,15,26,29.7,29.6c3.4,0.8,6.6,2.3,9.5,4.3l-79.4,79.4l8.1,8.1L257,265.1l201.6,201.6l8.1-8.1l-77.1-77.1L514,257z
			 M134.9,371c-4.4-3.4-9.5-5.9-15-7.2c-10.5-2.5-18.6-10.7-21.3-21.2l-1.1-4.3c-4.3-17.3-17.7-30.8-35-35.2
			c-13.7-3.4-22.1-11.5-25.3-24l-0.2-0.9c-2.2-9.9-6-20.3-15.9-26.3l111.3-111.3l25.4,25.4l-94.9,94.9l-6.1-6.1l-5.1,5.1L69,277.1
			l5.1-5.1l-6.1-6.1l94.9-94.9l25.3,25.3l-94.9,94.9l-6.1-6.1l-5.1,5.1l17.2,17.2l5.1-5.1l-6.1-6.1l94.9-94.9l25.3,25.3l-94.9,94.9
			l-6.1-6.1l-5.1,5.1l17.2,17.2l5.1-5.1l-6.1-6.1l94.9-94.9l25.4,25.4L134.9,371z M356.1,348.1l94.9-94.9l6.1,6.1l5.1-5.1L445,236.9
			l-5.1,5.1l6.1,6.1L351.1,343l-25.3-25.3l94.9-94.9l6.1,6.1l5.1-5.1l-17.2-17.2l-5.1,5.1l6.1,6.1l-94.9,94.9l-25.3-25.3l94.9-94.9
			l6.1,6.1l5.1-5.1l-17.2-17.2l-5.1,5.1l6.1,6.1l-94.9,94.9L265.1,257l114-114c4.4,3.4,9.5,5.9,15,7.2c10.5,2.5,18.6,10.7,21.3,21.2
			l1.1,4.3c4.3,17.3,17.7,30.8,35,35.2c13.6,3.4,22.1,11.5,25.3,24l0.2,0.9c2.2,9.9,6,20.3,15.9,26.3L381.5,373.4L356.1,348.1z
			 M292,106.2c-2.3,2.3-1.7,3.9-1,5l0.2,0.4c5.1,8.4-6.5,21.6-20,29.7c-0.7,0.4-1.5,0.9-2.2,1.3v-33.4c6-2,11.7-2.7,16-1.7
			c0.4-1.8,1.4-3.6,3-5.2c1.6-1.6,3.4-2.6,5.2-3c-1.8-7.6,1.9-19.4,7.9-29.3c3.2-5.4,7.2-10.4,11.4-14.2v46.7
			c-5.4,4-10.8,5.7-15.1,3.1l-0.4-0.2C296,104.6,294.3,104,292,106.2z M186.5,72.9c-3-18.5,3-33.7,20.8-51.4
			c17.8-17.8,32.9-23.7,51.4-20.8c33.8,5.4,62.7,35.5,74.1,50.9l0,0c5.6,6.5,1.6,21.6-5.7,33.8c-2.2,3.6-4.7,7.1-7.5,10.2V50.5
			c-18.1-4.5-42.1,3.7-60.9,22.4c-18.8,18.8-26.9,42.8-22.4,60.9c3.4-6.6,11-13.5,19.4-18.5c2-1.2,4.1-2.3,6.2-3.3v34
			c-9.8,4-19.5,5.2-24.5,1.1C222,135.6,191.9,106.7,186.5,72.9z M327.5,441.1c3,18.5-3,33.7-20.8,51.4
			c-17.8,17.8-32.9,23.7-51.4,20.8c-33.8-5.4-62.7-35.5-74.1-50.9l0,0c-5.6-6.5-1.6-21.6,5.7-33.8c2.2-3.6,4.7-7.1,7.5-10.2v45.1
			c18.1,4.5,42.1-3.7,60.9-22.4c18.8-18.8,26.9-42.8,22.4-60.9c-3.4,6.6-11,13.5-19.4,18.5c-2,1.2-4.1,2.3-6.2,3.3v-34
			c9.8-4,19.5-5.2,24.5-1.1C292,378.4,322.1,407.3,327.5,441.1z M222,407.8c2.3-2.3,1.7-3.9,1-5l-0.2-0.4c-5.1-8.4,6.5-21.6,20-29.7
			c0.7-0.4,1.5-0.9,2.2-1.3v33.4c-6,2-11.7,2.7-16,1.7c-0.4,1.8-1.4,3.6-3,5.2c-1.6,1.6-3.4,2.6-5.2,3c1.8,7.6-1.9,19.4-7.9,29.3
			c-3.2,5.4-7.2,10.4-11.4,14.2v-46.7c5.4-4,10.8-5.7,15.1-3.1l0.4,0.2C218.1,409.4,219.8,410,222,407.8z"/>
	</g>
</g>
</svg>
