<?xml version="1.0" encoding="utf-8"?>
<!-- Generator: Adobe Illustrator 27.8.1, SVG Export Plug-In . SVG Version: 6.00 Build 0)  -->
<svg version="1.1" id="Layer_1" xmlns="http://www.w3.org/2000/svg" xmlns:xlink="http://www.w3.org/1999/xlink" x="0px" y="0px"
	 viewBox="0 0 514 514" style="enable-background:new 0 0 514 514;" xml:space="preserve">
<style type="text/css">
	.st0{clip-path:url(#SVGID_00000035514262339377865830000000400249341337805987_);}
</style>
<g>
	<defs>
		<rect id="SVGID_1_" x="-103" y="-103" width="720" height="720"/>
	</defs>
	<clipPath id="SVGID_00000082351033389423633310000008224608450542507693_">
		<use xlink:href="#SVGID_1_"  style="overflow:visible;"/>
	</clipPath>
	<g style="clip-path:url(#SVGID_00000082351033389423633310000008224608450542507693_);">
		<path d="M70.9,410.8l8.1,8.1l-22,22l-8.1-8.1L70.9,410.8z M163.7,334c40.2-40.8,104.9-107.1,210.7-216.9c0.2-0.2,0.3-0.5,0.3-0.8
			c0-0.3-0.1-0.6-0.3-0.8l-0.1-0.1c-0.2-0.2-0.5-0.3-0.8-0.3c-0.3,0-0.6,0.1-0.8,0.3C262.9,221.2,196.5,285.9,155.8,326.1
			c-25.1,24.8-40.5,40.2-50.4,50.3c-14.2-10.3-34.2-9.1-46.9,3.7l-4,4l51.3,51.3l4-4c12.8-12.8,14-32.8,3.7-46.9
			C123.5,374.5,139,359.1,163.7,334z M170.7,168.2c2,0,3.6,1.6,3.6,3.6c0,2-1.6,3.6-3.6,3.6h-19.9l-2,6.3h14.6c2,0,3.6,1.6,3.6,3.6
			c0,2-1.6,3.6-3.6,3.6h-16.8l-2,6.3H156c2,0,3.6,1.6,3.6,3.6c0,2-1.6,3.6-3.6,3.6h-13.7l-2,6.3h8.4c2,0,3.6,1.6,3.6,3.6
			c0,2-1.6,3.6-3.6,3.6H138l-0.1,0.3c-3.1,9.8-5.7,14.7-11,23.6c-4.4,7.5-9.6,16-11.1,22.7c4.4-3.3,7.8-4.7,11.2-4.7
			c3.3,0,5.6,1.4,6.9,2.3c1.2-0.6,4-2.3,9.4-7.5c6.4-6,12.8-17.5,18.9-28.6c6.6-11.9,12.9-23.2,19.8-28.5c8.9-6.8,15.8-11.1,22-14.8
			c11.7-7.1,18.8-11.4,28.4-28.3l0.9-1.6c-6.8-6.1-19.7-16.2-35.4-21.6c-12.4,9.3,0.2,33.3-41.6,27.5l-3.4,11.5L170.7,168.2
			L170.7,168.2z M238.7,155.9c-10.5,18.6-19,23.7-30.9,30.9c-6,3.6-12.8,7.8-21.3,14.3c-5.8,4.4-11.6,15.1-17.9,26.3
			c-6.4,11.6-13.1,23.5-20.3,30.3c-9.2,8.6-12.8,9.6-14.7,9.6c-1.4,0-2.4-0.7-3.4-1.3c-0.9-0.6-1.9-1.3-3.2-1.3
			c-2.5,0-6,2.2-11.2,6.9c0,0,6.4,14,30-3c0,0,24-14.5,38.8-39.4c3.9-6.6,9-12.4,15.2-16.8c21.5-15.4,32.9-29.6,32.9-29.6
			C250.8,164.3,243.9,159.4,238.7,155.9L238.7,155.9z M83,83.1h59.3l11.9-23.7L83,23.7V0L54.1,28.9C22.5,40.7,0,71.1,0,106.9
			C0,152.8,37.2,190,83,190V83.1z M237.9,61c5.8,3.9,12.5,5.8,19.2,5.8c6.7,0,13.4-1.9,19.2-5.8c7.8-5.2,17.9-5.2,25.8,0
			c5.7,3.8,12.4,5.8,19.2,5.8V55.4c-4.6,0-9.1-1.4-12.9-3.9c-11.7-7.8-26.8-7.8-38.5,0c-7.8,5.2-18,5.2-25.8,0
			c-11.7-7.8-26.8-7.8-38.5,0c-3.8,2.6-8.3,3.9-12.9,3.9v11.4c6.9,0,13.5-2,19.2-5.8C219.9,55.8,230,55.8,237.9,61z M465.1,81.2
			l-8.1-8.1l-22,22l8.1,8.1L465.1,81.2z M237.9,35.3c5.8,3.9,12.5,5.8,19.2,5.8c6.7,0,13.4-1.9,19.2-5.8c7.8-5.2,17.9-5.2,25.8,0
			c5.7,3.8,12.4,5.8,19.2,5.8V29.7c-4.6,0-9.1-1.4-12.9-3.9c-11.7-7.8-26.8-7.8-38.5,0c-7.8,5.2-18,5.2-25.8,0
			c-11.7-7.8-26.8-7.8-38.5,0c-3.8,2.6-8.3,3.9-12.9,3.9v11.4c6.9,0,13.5-2,19.2-5.8C219.9,30.1,230,30.1,237.9,35.3z M237.9,86.7
			c5.8,3.9,12.5,5.8,19.2,5.8c6.7,0,13.4-1.9,19.2-5.8c7.8-5.2,17.9-5.2,25.8,0c5.7,3.8,12.4,5.8,19.2,5.8V81.1
			c-4.6,0-9.1-1.4-12.9-3.9c-11.7-7.8-26.8-7.8-38.5,0c-7.8,5.2-18,5.2-25.8,0c-11.7-7.8-26.8-7.8-38.5,0c-3.8,2.6-8.3,3.9-12.9,3.9
			v11.4c6.9,0,13.5-2,19.2-5.8C219.9,81.5,230,81.5,237.9,86.7z M333.4,313.2l5.3,5.3l17.4-17.4L350,295l65.9-65.9l-8.1-8.1
			l-65.9,65.9l-3.8-3.8l82.4-82.4l-8.1-8.1L268.7,336.4l6.4,13.7l10.3-10.3c3.4-3.4,9-3.4,12.4,0c3.4,3.4,3.4,9,0,12.4l-4.3,4.3
			l16.1,31.5l30-30l-14.2-9.8c-5-3.5-5.7-10.6-1.3-14.9l8.5-8.5l-5.3-5.3c-3.1-3.1-8.2-3.1-11.3,0l-7.5,7.5l-5.1-5.1l8.5-8.5
			C317.9,307.3,327.5,307.3,333.4,313.2z M276.1,427.3c-11.7-7.8-26.8-7.8-38.5,0c-7.8,5.2-18,5.2-25.8,0
			c-5.7-3.8-12.4-5.8-19.2-5.8v11.4c4.6,0,9.1,1.4,12.9,3.9c5.8,3.9,12.5,5.8,19.2,5.8c6.7,0,13.4-1.9,19.2-5.8
			c7.8-5.2,18-5.2,25.8,0c11.7,7.8,26.8,7.8,38.5,0c3.8-2.6,8.3-3.9,12.9-3.9v-11.4c-6.9,0-13.5,2-19.2,5.8
			C294.1,432.5,284,432.5,276.1,427.3z M431,324v106.9h-59.3l-11.9,23.7l71.2,35.6V514l28.9-28.9c31.6-11.8,54.1-42.2,54.1-77.9
			C514,361.2,476.8,324,431,324z M408.7,137.6c14.2,10.3,34.2,9.1,46.9-3.7l4-4l-51.3-51.3l-4,4c-12.8,12.8-14,32.8-3.7,46.9
			c-10.1,9.9-25.5,25.3-50.3,50.4c-40.2,40.8-104.9,107.1-210.7,216.9c-0.2,0.2-0.3,0.5-0.3,0.8c0,0.3,0.1,0.6,0.3,0.8l0.1,0.1
			c0.2,0.2,0.5,0.3,0.8,0.3c0.3,0,0.6-0.1,0.8-0.3c109.8-105.7,176.1-170.4,216.9-210.7C383.3,163.2,398.8,147.7,408.7,137.6z
			 M276.1,453c-11.7-7.8-26.8-7.8-38.5,0c-7.8,5.2-18,5.2-25.8,0c-5.7-3.8-12.4-5.8-19.2-5.8v11.4c4.6,0,9.1,1.4,12.9,3.9
			c5.8,3.9,12.5,5.8,19.2,5.8c6.7,0,13.4-1.9,19.2-5.8c7.8-5.2,18-5.2,25.8,0c11.7,7.8,26.8,7.8,38.5,0c3.8-2.6,8.3-3.9,12.9-3.9
			v-11.4c-6.9,0-13.5,2-19.2,5.8C294.1,458.2,284,458.2,276.1,453z M276.1,478.7c-11.7-7.8-26.8-7.8-38.5,0c-7.8,5.2-18,5.2-25.8,0
			c-5.7-3.8-12.4-5.8-19.2-5.8v11.4c4.6,0,9.1,1.4,12.9,3.9c5.8,3.9,12.5,5.8,19.2,5.8c6.7,0,13.4-1.9,19.2-5.8
			c7.8-5.2,18-5.2,25.8,0c11.7,7.8,26.8,7.8,38.5,0c3.8-2.6,8.3-3.9,12.9-3.9v-11.4c-6.9,0-13.5,2-19.2,5.8
			C294.1,483.9,284,483.9,276.1,478.7z"/>
	</g>
</g>
</svg>
