<?xml version="1.0" encoding="utf-8"?>
<!-- Generator: Adobe Illustrator 27.8.1, SVG Export Plug-In . SVG Version: 6.00 Build 0)  -->
<svg version="1.1" id="Layer_1" xmlns="http://www.w3.org/2000/svg" xmlns:xlink="http://www.w3.org/1999/xlink" x="0px" y="0px"
	 viewBox="0 0 514 514" style="enable-background:new 0 0 514 514;" xml:space="preserve">
<style type="text/css">
	.st0{clip-path:url(#SVGID_00000147209531072645523080000003482134828555305654_);}
</style>
<g>
	<defs>
		<rect id="SVGID_1_" x="-103" y="-103" width="720" height="720"/>
	</defs>
	<clipPath id="SVGID_00000174571046073329389560000010009027998997314230_">
		<use xlink:href="#SVGID_1_"  style="overflow:visible;"/>
	</clipPath>
	<g style="clip-path:url(#SVGID_00000174571046073329389560000010009027998997314230_);">
		<path d="M456.9,257L299.2,414.7c-2.8-2.6-5.8-5-9.1-7.1L440.7,257L290.1,106.4c3.2-2.1,6.3-4.5,9.1-7.1L456.9,257z M306,422.3
			c1.6,2.1,3.1,4.3,4.4,6.7c12.9-1.2,26.1,0.7,37.9,5.9c9.5,4.2,20,6.2,30.4,6.2c10.5,0,20.9-2.1,30.4-6.2c1.7-0.7,3.5-1.4,5.4-2.1
			l-5.6-5.6c-0.9,0.4-1.8,0.7-2.7,1.1c-17.3,7.6-37.9,7.6-55.2,0C337.2,422.2,321.3,420.2,306,422.3z M299.7,278.2
			c0-0.1,0-3.6-0.8-8.9l-34.4,34.4c2.1,1.2,3.8,3,5.1,5.1l30.1-30.1L299.7,278.2L299.7,278.2z M351.2,391.9c-4.6-2-9.4-3.6-14.4-4.7
			l-6.1,6.1c6.1,1,12,2.7,17.6,5.2c11.8,5.1,24.9,7.1,37.8,5.9l-6.8-6.8C369.7,397.6,360,395.7,351.2,391.9z M395.8,281.8h7.1v-16.6
			h-7.1V281.8z M254.8,323.4c1.4,0.4,2.9,0.4,4.3,0l16.7,16.7l5.1-5.1l-16.7-16.7c0.8-2.6,0.2-5.5-1.9-7.5c-3-3-7.7-3-10.7,0
			c-2,2-2.6,4.9-1.9,7.5l-16.7,16.7l5.1,5.1L254.8,323.4z M104.9,427.2l-5.5,5.5c1.8,0.6,3.6,1.3,5.4,2.1c19.2,8.3,42,8.3,60.9,0
			c11.8-5.2,25-7.1,37.9-5.9c1.3-2.3,2.8-4.5,4.4-6.7c-15.2-2.1-31.1-0.1-45.1,6c-17.1,7.5-37.8,7.5-55.2,0
			C106.7,427.9,105.8,427.6,104.9,427.2z M366,156L473.8,48.3l-8.1-8.1L358,148L366,156z M111,281.8h7.1v-16.6H111V281.8z M208,91.7
			c-1.6-2.1-3.1-4.3-4.4-6.7c-12.9,1.2-26.1-0.7-37.9-5.9c-9.5-4.2-20-6.2-30.4-6.2c-10.5,0-20.9,2.1-30.4,6.2
			c-1.7,0.7-3.5,1.4-5.4,2.1l5.6,5.6c0.9-0.4,1.8-0.7,2.7-1.1c17.3-7.6,37.9-7.6,55.2,0C176.8,91.8,192.7,93.8,208,91.7z
			 M223.9,407.6L73.3,257l150.6-150.6c-3.2-2.1-6.3-4.5-9.1-7.1L80.6,233.5L57.1,257l157.7,157.7
			C217.6,412.1,220.6,409.7,223.9,407.6z M162.8,122.1c4.6,2,9.4,3.6,14.4,4.7l6.1-6.1c-6.1-1-12-2.7-17.6-5.2
			c-11.8-5.1-24.9-7.1-37.8-5.9l6.8,6.8C144.3,116.4,154,118.3,162.8,122.1z M403,232.2h-7.1v16.6h7.1V232.2z M257,178.4
			c-1.9,0-3.7,0.1-5.4,0.3c-6.5,7.8-15.4,22.3-19.1,46c6.4-3.9,14.5-6.4,24.6-6.4s18.1,2.5,24.6,6.4c-3.7-23.7-12.6-38.2-19.1-46
			C260.7,178.5,258.9,178.4,257,178.4z M183.2,393.2l-6.1-6.1c-4.9,1.1-9.8,2.7-14.4,4.7c-8.8,3.8-18.5,5.7-28.1,5.6l-6.8,6.8
			c2.4,0.2,4.9,0.4,7.3,0.4c10.5,0,20.9-2.1,30.4-6.2C171.3,395.9,177.2,394.2,183.2,393.2z M118.2,232.2H111v16.6h7.1V232.2z
			 M212.1,218.3h-4.9c-8,0-14.4,7.5-14.4,19.3v21.7c0,11.9,6.4,18.8,14.4,18.8c0,0,0-29.5,17.2-47c2.4-23.3,9.5-39.3,16.2-49.7
			C225.3,187.5,216.8,202.2,212.1,218.3z M306.9,278.2c8,0,14.4-6.9,14.4-18.8v-21.7c0-11.9-6.4-19.3-14.4-19.3h-4.9
			c-4.7-16.1-13.3-30.8-28.5-36.9c6.8,10.4,13.8,26.3,16.2,49.7C306.9,248.7,306.9,278.2,306.9,278.2z M249.5,303.7l-34.4-34.4
			c-0.8,5.3-0.8,8.8-0.8,8.9v0.4l30.1,30.1C245.7,306.6,247.4,304.9,249.5,303.7z M148,358L40.2,465.7l8.1,8.1L156,366L148,358z
			 M406.4,501.2c-17.3,7.6-37.9,7.6-55.2,0c-13.7-6-29.1-8-43.9-6.2c-2.2,3.1-4.6,5.9-7.3,8.5c16-3.8,33.3-2.4,48.4,4.1
			c9.5,4.2,20,6.2,30.4,6.2c10.5,0,20.9-2.1,30.4-6.2c7.8-3.4,18.2-6.2,29.4-6.9l7.3-7.3C430.8,493.3,416.6,496.7,406.4,501.2z
			 M311.5,459.5c0,30-24.4,54.5-54.5,54.5s-54.5-24.4-54.5-54.5c0-30,24.4-54.5,54.5-54.5S311.5,429.5,311.5,459.5z M261.1,459.2
			c1.9,2.5,6.4,7.9,13.6,13.1c3.1-4.6,16.3-25.9,9.5-51.4c-5.7-4.1-12.4-6.9-19.6-8.1C270,435.5,263.7,453.3,261.1,459.2z
			 M212.4,443.7c19.3-14.1,41-13.6,47.2-13.1c0-5.6-0.6-11.8-2.4-18.4c0,0-0.1,0-0.1,0C236.4,412.2,218.9,425.4,212.4,443.7z
			 M212.7,476.2c17-16,35.6-19.4,41.9-20.1c1.2-2.9,3.6-9.5,4.6-18.4c-5.5-0.4-30.7-1.2-49.3,17.5c-0.1,1.4-0.2,2.8-0.2,4.3
			C209.7,465.4,210.8,471,212.7,476.2z M265.6,506.1c-21.8-9.6-32.2-28.7-34.9-34.3c-4.8,2.8-9.9,6.5-14.7,11.3
			c8.2,14.2,23.5,23.8,41,23.8C259.9,506.9,262.8,506.6,265.6,506.1z M293.6,489.5c-22.3-6.7-34.6-21.1-38.3-26.2
			c-3.2,0.4-10,1.6-18.2,5.2c2.4,5,14.3,27.1,39.8,34C283.4,499.4,289.1,495,293.6,489.5z M297.9,483.3c4.1-7,6.4-15.1,6.4-23.8
			c0-11.7-4.3-22.4-11.3-30.7c2.6,23.7-8.8,42.2-12.3,47.3C285.6,479,291.3,481.5,297.9,483.3z M104.8,471.3c19.2,8.3,42,8.3,60.9,0
			c9.4-4.1,19.7-6.2,30-6.2c-0.2-1.8-0.3-3.7-0.3-5.5c0-0.5,0-1.1,0-1.6c-11.2,0.1-22.4,2.4-32.6,6.8c-17.1,7.5-37.8,7.5-55.2,0
			c-10.7-4.6-21.7-7-32.9-7.3l-7.3,7.3C80.2,463.9,92.7,466.1,104.8,471.3z M409.1,86.8l5.5-5.5c-1.8-0.6-3.6-1.3-5.4-2.1
			c-19.2-8.3-42-8.3-60.9,0c-11.8,5.2-25,7.1-37.9,5.9c-1.3,2.3-2.8,4.5-4.4,6.7c15.2,2.1,31.1,0.1,45.1-6c17.1-7.5,37.8-7.5,55.2,0
			C407.3,86.1,408.2,86.4,409.1,86.8z M393.7,183.7l11.4,11.4v-22.3h58.8v168.5h-58.8v-22.3l-11.4,11.4v22.3h81.6V161.3h-81.6V183.7
			z M406.4,464.8c-17.3,7.6-37.9,7.6-55.2,0c-10.2-4.5-21.4-6.7-32.6-6.8c0,0.5,0,1.1,0,1.6c0,1.9-0.1,3.7-0.3,5.5
			c10.3,0.1,20.6,2.1,30,6.2c9.5,4.2,20,6.2,30.4,6.2c10.5,0,20.9-2.1,30.4-6.2c9.5-4.2,22.8-7.3,36.8-7.1l-7-7
			C426.6,457.9,415,461,406.4,464.8z M482.4,212.7v11.4h20.2v65.7h-20.2v11.4H514v-88.5H482.4L482.4,212.7z M358,366l107.7,107.7
			l8.1-8.1L366,358L358,366z M162.8,501.2c-17.3,7.6-37.9,7.6-55.2,0c-12.8-5.4-25.8-7.8-39.1-7.2l7.1,7.1
			c9.9,0.4,19.6,2.6,29.1,6.6c19.1,8.3,41.8,8.3,60.9,0c15-6.6,32.4-7.9,48.4-4.1c-2.7-2.6-5.1-5.5-7.3-8.6
			C191.9,493.2,176.5,495.2,162.8,501.2z M351.2,12.8c17.3-7.6,37.9-7.6,55.2,0c12.8,5.4,25.8,7.8,39.1,7.2l-7.1-7.1
			c-9.9-0.4-19.6-2.6-29.1-6.6c-19.1-8.3-41.8-8.3-60.9,0c-15,6.6-32.4,7.9-48.4,4.1c2.7,2.6,5.1,5.5,7.3,8.6
			C322.1,20.8,337.5,18.8,351.2,12.8z M202.5,54.5C202.5,24.4,227,0,257,0s54.5,24.4,54.5,54.5S287,108.9,257,108.9
			S202.5,84.5,202.5,54.5z M252.9,54.8c-1.9-2.5-6.4-7.9-13.6-13.1c-3.1,4.6-16.3,25.9-9.5,51.4c5.7,4.1,12.4,6.9,19.6,8.1
			C244,78.5,250.3,60.7,252.9,54.8z M301.6,70.3c-19.3,14.1-41,13.6-47.2,13.1c0,5.6,0.6,11.8,2.4,18.4c0,0,0.1,0,0.1,0
			C277.6,101.8,295.1,88.6,301.6,70.3z M301.3,37.8c-17,16-35.6,19.4-41.9,20.1c-1.2,2.9-3.6,9.5-4.6,18.4
			c5.5,0.4,30.7,1.2,49.3-17.5c0.1-1.4,0.2-2.8,0.2-4.3C304.3,48.6,303.2,43,301.3,37.8z M248.4,7.9c21.8,9.6,32.2,28.7,34.9,34.3
			c4.8-2.8,9.9-6.5,14.7-11.3C289.9,16.7,274.5,7.1,257,7.1C254.1,7.1,251.2,7.4,248.4,7.9z M220.4,24.5
			c22.3,6.7,34.6,21.1,38.3,26.2c3.2-0.4,10-1.6,18.2-5.2c-2.4-5-14.3-27.1-39.8-34C230.6,14.6,224.9,19,220.4,24.5z M216.1,30.7
			c-4.1,7-6.4,15.1-6.4,23.8c0,11.7,4.3,22.4,11.3,30.7c-2.6-23.7,8.8-42.2,12.3-47.3C228.4,35,222.7,32.5,216.1,30.7z M409.2,42.7
			c-19.2-8.3-42-8.3-60.9,0c-9.4,4.1-19.7,6.2-30,6.2c0.2,1.8,0.3,3.7,0.3,5.5c0,0.5,0,1.1,0,1.6c11.2-0.1,22.4-2.4,32.6-6.8
			c17.1-7.5,37.8-7.5,55.2,0c10.7,4.6,21.7,7,32.9,7.3l7.3-7.3C433.8,50.1,421.3,47.9,409.2,42.7z M330.8,120.8l6.1,6.1
			c4.9-1.1,9.8-2.7,14.4-4.7c8.8-3.8,18.5-5.7,28.1-5.6l6.8-6.8c-2.4-0.2-4.9-0.4-7.3-0.4c-10.5,0-20.9,2.1-30.4,6.2
			C342.7,118.1,336.8,119.8,330.8,120.8z M120.3,330.3l-11.4-11.4v22.3H50.1V172.8h58.8v22.3l11.4-11.4v-22.3H38.7v191.3h81.6
			L120.3,330.3L120.3,330.3z M156,148L48.3,40.2l-8.1,8.1L148,156L156,148z M107.6,12.8c17.3-7.6,37.9-7.6,55.2,0
			c13.7,6,29.1,8,43.9,6.2c2.2-3.1,4.6-5.9,7.3-8.5c-16,3.8-33.3,2.4-48.4-4.1c-9.5-4.2-20-6.2-30.4-6.2c-10.5,0-20.9,2.1-30.4,6.2
			c-7.8,3.4-18.2,6.2-29.4,6.9l-7.3,7.3C83.2,20.7,97.4,17.3,107.6,12.8z M0,301.3h31.6v-11.4H11.4v-65.7h20.2v-11.4H0V301.3z
			 M107.6,49.2c17.3-7.6,37.9-7.6,55.2,0c10.2,4.5,21.4,6.7,32.6,6.8c0-0.5,0-1.1,0-1.6c0-1.9,0.1-3.7,0.3-5.5
			c-10.3-0.1-20.6-2.1-30-6.2c-9.5-4.2-20-6.2-30.4-6.2c-10.5,0-20.9,2.1-30.4,6.2C95.2,46.9,82,50,67.9,49.8l7,7
			C87.4,56.1,99,53,107.6,49.2z"/>
	</g>
</g>
</svg>
