<?xml version="1.0" encoding="utf-8"?>
<!-- Generator: Adobe Illustrator 27.8.1, SVG Export Plug-In . SVG Version: 6.00 Build 0)  -->
<svg version="1.1" id="Layer_1" xmlns="http://www.w3.org/2000/svg" xmlns:xlink="http://www.w3.org/1999/xlink" x="0px" y="0px"
	 viewBox="0 0 514 514" style="enable-background:new 0 0 514 514;" xml:space="preserve">
<style type="text/css">
	.st0{clip-path:url(#SVGID_00000162326894839228763460000011126812785856307611_);}
</style>
<g>
	<defs>
		<rect id="SVGID_1_" x="-103.2" y="-103.2" width="720" height="720"/>
	</defs>
	<clipPath id="SVGID_00000047049187078680944220000009670189468528608422_">
		<use xlink:href="#SVGID_1_"  style="overflow:visible;"/>
	</clipPath>
	<g style="clip-path:url(#SVGID_00000047049187078680944220000009670189468528608422_);">
		<path d="M273.9,180.9l52.3,52.3l-6.9,3.2L267,184.1L273.9,180.9z M247.6,164.7l6.9-3.2l-32.8-32.8l-5.1,5.1L247.6,164.7z
			 M297.4,141.5l-77.2-77.2l-5.1,5.1l75.3,75.3L297.4,141.5z M369,213.2l-52.3-52.3l-6.9,3.2l52.3,52.3L369,213.2z M338.6,255.7
			l41.5,41.5l5.1-5.1l-39.7-39.7L338.6,255.7z M449.6,293.7l-61.2-61.2l-6.9,3.2l63.1,63.1L449.6,293.7z M411.9,193.2l-52.3-52.3
			l-6.9,3.2l52.3,52.3L411.9,193.2z M424.4,215.7l84.6,84.6l5.1-5.1l-82.8-82.8L424.4,215.7z M340.3,121.6L218.7,0l-5.1,5.1
			l119.7,119.7L340.3,121.6z M236.4,319.3L184.1,267l-3.2,6.9l52.3,52.3L236.4,319.3z M255.7,338.6l-3.2,6.9l39.7,39.7l5.1-5.1
			L255.7,338.6z M140.9,359.6l52.3,52.3l3.2-6.9l-52.3-52.3L140.9,359.6z M160.9,316.7l52.3,52.3l3.2-6.9l-52.3-52.3L160.9,316.7z
			 M232.5,388.4l61.2,61.2l5.1-5.1l-63.1-63.1L232.5,388.4z M164.7,247.7l-30.9-30.9l-5.1,5.1l32.8,32.8L164.7,247.7z M212.5,431.2
			l82.8,82.8l5.1-5.1l-84.6-84.6L212.5,431.2z M124.8,333.4L5.1,213.7l-5.1,5l121.6,121.6L124.8,333.4z M64.4,220.2l77.2,77.2
			l3.2-6.9l-75.3-75.3L64.4,220.2z M514,191.5l-6.3,4.3c-11.4,7.8-23.9,13.6-37.2,17.3l-6.3,1.8l-5.9-3.3c-6.7-3.8-14-6.5-21.6-7.9
			l-2.5-0.5l-135.7,63.3l18.7,18.7c37.6,37.6,73.2,78,105.8,120l38.8,49.8c1.5,1.9,1.3,4.7-0.4,6.5c-1,1-2.2,1.4-3.5,1.4
			c-1.1,0-2.1-0.3-3-1l-50.4-39c-41.6-32.4-81.7-67.8-119-105.1l-19.1-19.1l-63.2,135.6l0.5,2.5c1.4,7.6,4.1,14.9,7.9,21.6l3.3,5.9
			l-1.8,6.3c-3.7,13.3-9.5,25.8-17.3,37.2l-4.3,6.3l-3.4-0.4c-9.2-1.1-18-5.2-24.8-11.6l-2.4-2.3l1.4-5.8
			c5-20.6,13.7-39.8,25.7-57.2l4.3-6.1L257.9,290l-61-61c-0.7-0.7-1.3-1.3-2-2l-69.2,148.4l0.5,2.5c1.4,7.6,4.1,14.9,7.9,21.6
			l3.3,5.9l-1.8,6.3c-3.7,13.3-9.5,25.8-17.3,37.2l-4.3,6.3l-3.4-0.4c-9.2-1.1-18-5.2-24.8-11.5l-2.4-2.3l1.4-5.8
			c5-20.6,13.7-39.8,25.7-57.2l4.3-6.1l71.6-153.5c-33.7-34.5-65.7-71.1-95.2-109.1l-38.7-50c-1.5-1.9-1.3-4.7,0.4-6.5
			c1.7-1.7,4.5-1.9,6.5-0.4l50.4,39.2c37.8,29.4,74.2,61.3,108.6,94.8l153.6-71.6l6.1-4.3c17.4-12.1,36.6-20.7,57.2-25.7l5.8-1.4
			l2.3,2.4c6.4,6.7,10.5,15.5,11.6,24.8l0.4,3.4l-6.3,4.3c-11.4,7.8-23.9,13.6-37.2,17.3l-6.3,1.8l-5.9-3.3
			c-6.7-3.8-14-6.5-21.6-7.9l-2.5-0.5l-148.6,69.3c0.5,0.5,1.1,1.1,1.6,1.6l61.4,61.4l140.7-65.6l6.1-4.3
			c17.4-12.1,36.6-20.7,57.2-25.7l5.8-1.4l2.3,2.4c6.4,6.7,10.5,15.5,11.6,24.8L514,191.5z M202.4,184.5
			c-3.5-3.4-11.2-9.7-19.5-15.1c-8.3-5.4-17.3-9.9-23.2-9.7c0,6.1,4.4,15.1,9.7,23.5c5.3,8.4,11.3,16.1,14.7,19.6l60,59l17.6-17.6
			L202.4,184.5z M311.2,329.9c3.5,3.4,11.2,9.5,19.6,14.7c8.4,5.3,17.4,9.7,23.5,9.7c0.2-5.9-4.3-14.9-9.7-23.2
			c-5.4-8.3-11.7-16-15.1-19.5l-59.7-59.3l-17.6,17.6L311.2,329.9z"/>
	</g>
</g>
</svg>
