<?xml version="1.0" encoding="utf-8"?>
<!-- Generator: Adobe Illustrator 27.8.1, SVG Export Plug-In . SVG Version: 6.00 Build 0)  -->
<svg version="1.1" id="Layer_1" xmlns="http://www.w3.org/2000/svg" xmlns:xlink="http://www.w3.org/1999/xlink" x="0px" y="0px"
	 viewBox="0 0 514 514" style="enable-background:new 0 0 514 514;" xml:space="preserve">
<style type="text/css">
	.st0{clip-path:url(#SVGID_00000042726929152739789650000006344834948569391505_);}
</style>
<g>
	<defs>
		<rect id="SVGID_1_" x="-103" y="-103" width="720" height="720"/>
	</defs>
	<clipPath id="SVGID_00000098939466040351079090000017061956178841130922_">
		<use xlink:href="#SVGID_1_"  style="overflow:visible;"/>
	</clipPath>
	<g style="clip-path:url(#SVGID_00000098939466040351079090000017061956178841130922_);">
		<path d="M242.4,41.7l-12.2-12.2l5.1-5.1l12.2,12.2L242.4,41.7z M223,12.2L210.8,0l-5.1,5.1L218,17.3L223,12.2z M41.7,242.4
			l-12.2-12.2l-5.1,5.1l12.2,12.2L41.7,242.4z M271.9,61.1l-12.2-12.2l-5.1,5.1l12.2,12.2L271.9,61.1z M284.9,108.3l-62.6,62.6
			l18.2,18.2l62.6-62.6l-5.1-5l10.5-10.5l94.5,94.5L392.6,216l-5.1-5L325,273.5l18.2,18.2l62.6-62.6l-5.1-5.1L514,110.7l-8.1-8.1
			l-94.7,94.7l-94.5-94.5l94.7-94.7L403.3,0L290,113.3L284.9,108.3z M432.8,22.9c23.8-23.8,56.2-30.1,72.3-14
			c16.1,16.1,9.8,48.4-14,72.3c-23.8,23.8-56.2,30.1-72.3,14C402.7,79.1,409,46.7,432.8,22.9z M480.3,70.4
			C467,83.7,452.5,93,440.6,96.9c3.2,0.2,6.6-0.1,10.1-0.8c12.3-2.4,24.8-9.5,35.3-20c10.5-10.5,17.6-23.1,20-35.3
			c0.7-3.6,0.9-7,0.8-10.1C502.9,42.6,493.6,57.1,480.3,70.4z M482.1,15.2c-10.7,4.3-22.6,12.7-33.5,23.5
			c-10.9,10.9-19.2,22.7-23.5,33.5c-3.3,8.3-3.8,15.3-1.2,17.9c2.6,2.6,9.6,2.1,17.9-1.2c10.7-4.3,22.6-12.7,33.5-23.5
			c10.9-10.9,19.2-22.7,23.5-33.5c3.3-8.3,3.8-15.3,1.2-17.9C497.4,11.4,490.4,11.9,482.1,15.2z M417.9,63.3
			c-0.7,3.6-0.9,7-0.8,10.1c3.9-11.9,13.2-26.4,26.5-39.7c13.3-13.3,27.8-22.6,39.7-26.5c-3.2-0.2-6.6,0.1-10.1,0.8
			c-12.3,2.4-24.8,9.5-35.3,20C427.4,38.5,420.2,51,417.9,63.3z M17.3,218L5,205.8l-5,5.1L12.2,223L17.3,218z M435.7,234.9l5.1-5.1
			l-12.2-12.2l-5.1,5.1L435.7,234.9z M296.3,85.5l-12.2-12.2l-5.1,5.1l12.2,12.2L296.3,85.5z M78.3,279.1l-5.1,5.1l12.2,12.2
			l5.1-5.1L78.3,279.1z M266.6,477.4l12.2,12.2l5.1-5.1l-12.2-12.2L266.6,477.4z M291,501.8l12.2,12.2l5.1-5.1L296,496.7L291,501.8z
			 M447.9,247.2l12.2,12.2l5.1-5.1l-12.2-12.2L447.9,247.2z M81.2,491.1c-23.8,23.8-56.2,30.1-72.3,14c-16.1-16.1-9.8-48.4,14-72.3
			c23.8-23.8,56.2-30.1,72.3-14C111.3,434.9,105,467.3,81.2,491.1z M33.7,443.6C47,430.3,61.5,421,73.4,417.1
			c-3.2-0.2-6.6,0.1-10.1,0.8c-12.3,2.4-24.8,9.5-35.3,20c-10.5,10.5-17.6,23.1-20,35.3c-0.7,3.6-0.9,7-0.8,10.1
			C11.1,471.4,20.4,456.9,33.7,443.6z M31.9,498.8c10.7-4.3,22.6-12.7,33.5-23.5s19.2-22.7,23.5-33.5c3.3-8.3,3.8-15.3,1.2-17.9
			c-2.6-2.6-9.6-2.1-17.9,1.2c-10.7,4.3-22.6,12.7-33.5,23.5c-10.9,10.9-19.2,22.7-23.5,33.5c-3.3,8.3-3.8,15.3-1.2,17.9
			C16.6,502.6,23.6,502.1,31.9,498.8z M96.1,450.7c0.7-3.6,0.9-7,0.8-10.1C93,452.5,83.7,467,70.4,480.3
			c-13.3,13.3-27.8,22.6-39.7,26.5c3.2,0.2,6.6-0.1,10.1-0.8c12.3-2.4,24.8-9.5,35.3-20C86.7,475.5,93.8,463,96.1,450.7z M501.8,291
			l-5.1,5.1l12.2,12.2l5.1-5.1L501.8,291z M472.3,271.6l12.2,12.2l5.1-5.1l-12.2-12.2L472.3,271.6z M229.1,405.7l62.6-62.6
			L273.4,325l-62.6,62.6l5.1,5.1l-10.5,10.5l-94.5-94.5l10.5-10.5l5.1,5l62.6-62.6l-18.2-18.2l-62.6,62.6l5.1,5.1L0,403.3l8.1,8.1
			l94.7-94.7l94.5,94.5l-94.7,94.7l8.1,8.1L224,400.7L229.1,405.7z M53.9,254.6l-5.1,5.1l12.2,12.2l5.1-5.1L53.9,254.6z
			 M242.1,452.9l12.2,12.2l5.1-5.1l-12.2-12.2L242.1,452.9z M217.7,428.5l12.2,12.2l5.1-5.1l-12.2-12.2L217.7,428.5z M439.4,384.1
			l-5.1-5.1l-25.2,25.2L109.8,104.8L135,79.6l-5.1-5.1l-25.2,25.2L53.9,48.9l-5.1,5.1l50.9,50.9l-25.1,25.2l5.1,5.1l25.1-25.1
			l299.4,299.4L379,434.4l5.1,5.1l25.1-25.1l50.8,50.8l2.5-2.5l2.5-2.5l-50.8-50.8L439.4,384.1z"/>
	</g>
</g>
</svg>
