<?xml version="1.0" encoding="utf-8"?>
<!-- Generator: Adobe Illustrator 27.8.1, SVG Export Plug-In . SVG Version: 6.00 Build 0)  -->
<svg version="1.1" id="Layer_1" xmlns="http://www.w3.org/2000/svg" xmlns:xlink="http://www.w3.org/1999/xlink" x="0px" y="0px"
	 viewBox="0 0 514 514" style="enable-background:new 0 0 514 514;" xml:space="preserve">
<style type="text/css">
	.st0{clip-path:url(#SVGID_00000151528658586797993520000007814102829510613391_);}
</style>
<g>
	<defs>
		<rect id="SVGID_1_" x="-103" y="-103" width="720" height="720"/>
	</defs>
	<clipPath id="SVGID_00000028308887502130393790000016092516228502814862_">
		<use xlink:href="#SVGID_1_"  style="overflow:visible;"/>
	</clipPath>
	<g style="clip-path:url(#SVGID_00000028308887502130393790000016092516228502814862_);">
		<path d="M486.9,200.6c6.6-3.7,13.5-7.6,27.1-7.6v7.1c-11.8,0-17.5,3.2-23.6,6.7c-6.6,3.7-13.5,7.6-27.1,7.6
			c-13.6,0-20.5-3.9-27.1-7.6c-6.1-3.4-11.9-6.7-23.6-6.7c-11.8,0-17.5,3.2-23.6,6.7c-6.6,3.7-13.5,7.6-27.1,7.6s-20.5-3.9-27.1-7.6
			c-2-1.1-4-2.2-6.1-3.2l5.4-5.4c1.5,0.8,2.9,1.5,4.2,2.3c6.1,3.4,11.9,6.7,23.6,6.7c11.8,0,17.5-3.2,23.6-6.7
			c6.6-3.7,13.5-7.6,27.1-7.6c13.6,0,20.5,3.9,27.1,7.6c6.1,3.4,11.9,6.7,23.6,6.7C475,207.3,480.8,204,486.9,200.6z M463.3,178.2
			c-11.8,0-17.5-3.2-23.6-6.7c-6.6-3.7-13.5-7.6-27.1-7.6c-13.6,0-20.5,3.9-27.1,7.6c-6.1,3.4-11.9,6.7-23.6,6.7
			c-2.7,0-5.1-0.2-7.3-0.5l-6.1,6.1c3.7,1,8,1.6,13.4,1.6c13.6,0,20.5-3.9,27.1-7.6c6.1-3.4,11.9-6.7,23.6-6.7
			c11.8,0,17.5,3.2,23.6,6.7c6.6,3.7,13.5,7.6,27.1,7.6c13.6,0,20.5-3.9,27.1-7.6c6.1-3.4,11.9-6.7,23.6-6.7v-7.1
			c-13.6,0-20.5,3.9-27.1,7.6C480.8,175,475,178.2,463.3,178.2z M486.9,113.4c-6.1,3.4-11.9,6.7-23.6,6.7c-11.8,0-17.5-3.2-23.6-6.7
			c-4.2-2.4-8.5-4.8-14.6-6.2l-6.2,6.2c7.7,0.9,12.4,3.6,17.2,6.3c6.6,3.7,13.5,7.6,27.1,7.6c13.6,0,20.5-3.9,27.1-7.6
			c6.1-3.4,11.9-6.7,23.6-6.7v-7.1C500.4,105.8,493.5,109.6,486.9,113.4z M463.3,149.1c-11.8,0-17.5-3.2-23.6-6.7
			c-6.6-3.7-13.5-7.6-27.1-7.6c-8.1,0-13.7,1.4-18.4,3.2l-15.6,15.6c4-1.4,7.2-3.2,10.4-5c6.1-3.4,11.9-6.7,23.6-6.7
			c11.8,0,17.5,3.2,23.6,6.7c6.6,3.7,13.5,7.6,27.1,7.6c13.6,0,20.5-3.9,27.1-7.6c6.1-3.4,11.9-6.7,23.6-6.7v-7.1
			c-13.6,0-20.5,3.9-27.1,7.6C480.8,145.9,475,149.1,463.3,149.1z M347.1,21.2l0,41.6h-10c-18.9,0-35.2,7.1-47,20.4
			c-14,15.8-21,39.4-21,70.1v41.1h32.4l-7.1,7.1H269v25.3l-7.1,7.1v-80.6c0-32.5,7.7-57.7,22.8-74.8c8.6-9.7,19.3-16.4,31.5-19.9
			H132.5c68.1,13.5,119.6,73.7,119.6,145.8v39.4l-7.1,7.1v-46.6c0-0.9,0-1.9,0-2.8h-73.8c30.7,6.8,52.8,26,66,57.3l-5.5,5.5
			c-15.4-38.8-45-58.5-87.9-58.5h-23.4l-16.1-22H0v-11.4h230.6v22h14C239.5,121,178.1,62.8,103.5,62.8H0V51.4h185.7l-35.1-35.3
			c-2.7-2.8-3.5-6.7-2-10.3c1.5-3.6,4.8-5.8,8.7-5.8h168.7C337.6,0,347.1,9.5,347.1,21.2z M136.9,183.8H113l7.8,10.6h8.4
			L136.9,183.8z M209.3,183.8h-63.5l-7.8,10.6h63.5L209.3,183.8z M223.5,183.8h-5.4l-7.8,10.6h13.1V183.8z M256.6,25.7h40.5V7.1
			h-40.5V25.7z M201.8,32.8h-24.5l18.5,18.6h6L201.8,32.8L201.8,32.8z M201.8,7.1h-44.5c-1.4,0-2,1-2.1,1.4
			c-0.2,0.4-0.5,1.5,0.5,2.5l14.5,14.6h31.6L201.8,7.1L201.8,7.1z M249.5,32.8h-40.5v18.6h40.5V32.8z M249.5,7.1h-40.5v18.6h40.5
			V7.1z M256.6,51.4h40.5V32.8h-40.5V51.4z M340,32.8h-35.7v18.6H340L340,32.8z M340,21.2c0-7.7-6.3-14-14-14h-21.7v18.6H340V21.2z
			 M50.7,306.7c11.8,0,17.5,3.2,23.6,6.7c6.6,3.7,13.5,7.6,27.1,7.6c13.6,0,20.5-3.9,27.1-7.6c6.1-3.4,11.9-6.7,23.6-6.7
			c11.8,0,17.5,3.2,23.6,6.7c1.4,0.8,2.8,1.6,4.2,2.3l5.4-5.4c-2.1-1-4.1-2.1-6.1-3.2c-6.6-3.7-13.5-7.6-27.1-7.6
			s-20.5,3.9-27.1,7.6c-6.1,3.4-11.9,6.7-23.6,6.7c-11.8,0-17.5-3.2-23.6-6.7c-6.6-3.7-13.5-7.6-27.1-7.6s-20.5,3.9-27.1,7.6
			c-6.1,3.4-11.9,6.7-23.6,6.7v7.1c13.6,0,20.5-3.9,27.1-7.6C33.2,310,39,306.7,50.7,306.7z M50.7,335.8c11.8,0,17.5,3.2,23.6,6.7
			c6.6,3.7,13.5,7.6,27.1,7.6c13.6,0,20.5-3.9,27.1-7.6c6.1-3.4,11.9-6.7,23.6-6.7c2.7,0,5.1,0.2,7.3,0.5l6.1-6.1
			c-3.7-1-8-1.6-13.4-1.6c-13.6,0-20.5,3.9-27.1,7.6c-6.1,3.4-11.9,6.7-23.6,6.7c-11.8,0-17.5-3.2-23.6-6.7
			c-6.6-3.7-13.5-7.6-27.1-7.6s-20.5,3.9-27.1,7.6c-6.1,3.4-11.9,6.7-23.6,6.7v7.1c13.6,0,20.5-3.9,27.1-7.6
			C33.2,339,39,335.8,50.7,335.8z M50.7,364.9c11.8,0,17.5,3.2,23.6,6.7c6.6,3.7,13.5,7.6,27.1,7.6c8.1,0,13.7-1.4,18.4-3.2
			l15.6-15.6c-4,1.4-7.2,3.2-10.4,5c-6.1,3.4-11.9,6.7-23.6,6.7c-11.8,0-17.5-3.2-23.6-6.7c-6.6-3.7-13.5-7.6-27.1-7.6
			s-20.5,3.9-27.1,7.6C17.5,368.8,11.8,372,0,372v7.1c13.6,0,20.5-3.9,27.1-7.6C33.2,368.1,39,364.9,50.7,364.9z M74.4,400.6
			c4.2,2.4,8.5,4.8,14.6,6.2l6.2-6.2c-7.7-0.9-12.4-3.6-17.2-6.3c-6.6-3.7-13.5-7.6-27.1-7.6s-20.5,3.9-27.1,7.6
			c-6.1,3.4-11.9,6.7-23.6,6.7v7.1c13.6,0,20.5-3.9,27.1-7.6c6.1-3.4,11.9-6.7,23.6-6.7C62.5,393.9,68.3,397.2,74.4,400.6z
			 M283.4,319.7h-14c5.1,73.4,66.4,131.5,141.1,131.5H514v11.4H328.3l35.1,35.3c2.7,2.8,3.5,6.7,2,10.3c-1.5,3.6-4.8,5.8-8.7,5.8
			H188.1c-11.7,0-21.2-9.5-21.2-21.2l0-41.6h10c18.9,0,35.2-7.1,47-20.4c14-15.8,21-39.3,21-70.1v-41.1h-32.4l7.1-7.1H245v-25.3
			l7.1-7.1v80.6c0,32.5-7.7,57.7-22.8,74.8c-8.6,9.7-19.3,16.4-31.5,19.9h183.8c-68.1-13.5-119.6-73.7-119.6-145.8v-39.4l7.1-7.1
			v46.6c0,0.9,0,1.9,0,2.8h73.8c-30.7-6.8-52.8-26-66-57.3l5.5-5.5c15.4,38.8,45,58.5,87.9,58.5h23.4l16.1,22H514v11.4H283.4V319.7z
			 M174,481.2h35.7v-18.6H174L174,481.2z M188.1,506.9h21.7v-18.6H174v4.5C174,500.6,180.3,506.9,188.1,506.9z M257.4,488.3h-40.5
			v18.6h40.5V488.3z M257.4,462.6h-40.5v18.6h40.5V462.6z M305.1,488.3h-40.5v18.6h40.5V488.3z M305.1,462.6h-40.5v18.6h40.5V462.6z
			 M343.8,488.3h-31.6v18.6h44.5c1.4,0,2-1,2.1-1.4c0.2-0.4,0.5-1.5-0.5-2.5L343.8,488.3z M318.2,462.6h-6v18.6h24.5L318.2,462.6z
			 M377.1,330.2H401l-7.8-10.6h-8.4L377.1,330.2z M304.7,330.2h63.5l7.8-10.6h-63.5L304.7,330.2z M290.5,330.2h5.4l7.8-10.6h-13.1
			V330.2z M466.6,55.4l-8.1-8.1L47.4,458.6l8.1,8.1L466.6,55.4z"/>
	</g>
</g>
</svg>
