<?xml version="1.0" encoding="utf-8"?>
<!-- Generator: Adobe Illustrator 27.8.1, SVG Export Plug-In . SVG Version: 6.00 Build 0)  -->
<svg version="1.1" id="Layer_1" xmlns="http://www.w3.org/2000/svg" xmlns:xlink="http://www.w3.org/1999/xlink" x="0px" y="0px"
	 viewBox="0 0 514 514" style="enable-background:new 0 0 514 514;" xml:space="preserve">
<style type="text/css">
	.st0{clip-path:url(#SVGID_00000163782522387737263920000006923405500883874222_);}
</style>
<g>
	<defs>
		<rect id="SVGID_1_" x="-103" y="-103" width="720" height="720"/>
	</defs>
	<clipPath id="SVGID_00000033339981310772462590000012247878797921946533_">
		<use xlink:href="#SVGID_1_"  style="overflow:visible;"/>
	</clipPath>
	<g style="clip-path:url(#SVGID_00000033339981310772462590000012247878797921946533_);">
		<path d="M247.8,120.5l4.6,7.9h9.2l4.6-7.9l-4.6-7.9h-9.2L247.8,120.5z M257,116c2.5,0,4.5,2,4.5,4.5c0,2.5-2,4.5-4.5,4.5
			c-2.5,0-4.5-2-4.5-4.5C252.5,118,254.5,116,257,116z M237.1,120.5c0,11,8.9,19.9,19.9,19.9c11,0,19.9-8.9,19.9-19.9
			s-8.9-19.9-19.9-19.9C246,100.6,237.1,109.5,237.1,120.5z M269.8,120.5c0,7-5.7,12.8-12.8,12.8c-7,0-12.8-5.7-12.8-12.8
			s5.7-12.8,12.8-12.8C264,107.7,269.8,113.4,269.8,120.5z M410.2,428.4l20.1,20.1c-10.9-6.9-22.5-10.2-36.4-10.2
			c-14.4,0-26.3,3.5-37.5,10.9c-10.1,6.7-18.2,15.6-26.7,25.1c-8.7,9.6-17.6,19.4-28.9,26.9c-13,8.6-27.3,12.8-43.8,12.8
			s-30.8-4.2-43.8-12.8c-11.3-7.5-20.2-17.4-28.9-26.9c-8.6-9.5-16.6-18.4-26.7-25.1c-11.2-7.4-23.1-10.9-37.5-10.9
			c-13.9,0-25.5,3.2-36.4,10.2l20.1-20.1c5.2-1,10.6-1.5,16.3-1.5c16.5,0,30.8,4.2,43.8,12.8c11.3,7.5,20.2,17.4,28.9,26.9
			c8.6,9.5,16.6,18.4,26.7,25.1c11.2,7.4,23.1,10.9,37.5,10.9c14.4,0,26.3-3.5,37.5-10.9c10.1-6.7,18.2-15.6,26.7-25.1
			c8.7-9.6,17.6-19.4,28.9-26.9c13-8.6,27.3-12.8,43.8-12.8C399.6,426.9,405,427.4,410.2,428.4z M164.2,52.8v12.8l-56.1,24.3
			l5.4,5.4L257,33.2l143.7,61.9l5.4-5.4l-56.4-24.3V52.7L414.9,81l8.7-8.7L257,0L90.6,72.4l8.7,8.7L164.2,52.8z M260.6,14l82.1,35.6
			v12.7l-82.1-35.4V14z M171.4,49.7L253.4,14v12.9l-82.1,35.6V49.7z M206.3,120.5c0,28,22.8,50.7,50.7,50.7s50.7-22.8,50.7-50.7
			c0-28-22.8-50.7-50.7-50.7S206.3,92.5,206.3,120.5z M300.6,120.5c0,24-19.6,43.6-43.6,43.6s-43.6-19.6-43.6-43.6
			S233,76.9,257,76.9S300.6,96.4,300.6,120.5z M257,413.4c11,0,19.9-8.9,19.9-19.9c0-11-8.9-19.9-19.9-19.9
			c-11,0-19.9,8.9-19.9,19.9C237.1,404.5,246,413.4,257,413.4z M257,380.8c7,0,12.8,5.7,12.8,12.8s-5.7,12.8-12.8,12.8
			c-7,0-12.8-5.7-12.8-12.8S250,380.8,257,380.8z M514,230.4c0-16.7-6.6-34.3-19.6-48.4l-4.6-4.6c-26.5-24.4-65.1-26.4-87.4-4.1
			L291.9,283.8L265.1,257L466.6,55.4l-8.1-8.1L257,248.9L55.4,47.4l-8.1,8.1l78.7,78.7L15.5,244.7C5.1,255.1,0,269,0,283.6
			c0,16.7,6.6,34.3,19.6,48.4l4.6,4.6c26.5,24.4,65.1,26.4,87.4,4.1l110.5-110.5l26.8,26.8L47.4,458.6l8.1,8.1L257,265.1
			l201.6,201.6l8.1-8.1l-78.7-78.7l110.5-110.5C508.9,258.9,514,245,514,230.4z M87.7,250.7c-2.4,0-4.3-1.9-4.3-4.3
			c0-2.4,1.9-4.3,4.3-4.3s4.3,1.9,4.3,4.3C92,248.8,90.1,250.7,87.7,250.7z M109.8,272.8c-2.4,0-4.3-1.9-4.3-4.3
			c0-2.4,1.9-4.3,4.3-4.3c2.4,0,4.3,1.9,4.3,4.3C114.1,270.9,112.2,272.8,109.8,272.8z M110.5,228c-2.4,0-4.3-1.9-4.3-4.3
			s1.9-4.3,4.3-4.3c2.4,0,4.3,1.9,4.3,4.3S112.9,228,110.5,228z M132.6,250.1c-2.4,0-4.3-1.9-4.3-4.3c0-2.4,1.9-4.3,4.3-4.3
			c2.4,0,4.3,1.9,4.3,4.3C136.9,248.1,135,250.1,132.6,250.1z M381.4,272.5c-2.4,0-4.3-1.9-4.3-4.3c0-2.4,1.9-4.3,4.3-4.3
			c2.4,0,4.3,1.9,4.3,4.3C385.7,270.6,383.8,272.5,381.4,272.5z M403.5,294.6c-2.4,0-4.3-1.9-4.3-4.3s1.9-4.3,4.3-4.3
			s4.3,1.9,4.3,4.3S405.9,294.6,403.5,294.6z M404.2,249.7c-2.4,0-4.3-1.9-4.3-4.3c0-2.4,1.9-4.3,4.3-4.3c2.4,0,4.3,1.9,4.3,4.3
			C408.5,247.8,406.5,249.7,404.2,249.7z M426.3,271.8c-2.4,0-4.3-1.9-4.3-4.3c0-2.4,1.9-4.3,4.3-4.3s4.3,1.9,4.3,4.3
			C430.5,269.9,428.6,271.8,426.3,271.8z M257,444.3c28,0,50.7-22.8,50.7-50.7c0-28-22.8-50.7-50.7-50.7s-50.7,22.8-50.7,50.7
			C206.3,421.5,229,444.3,257,444.3z M257,349.9c24,0,43.6,19.6,43.6,43.6c0,24-19.6,43.6-43.6,43.6s-43.6-19.6-43.6-43.6
			C213.4,369.5,233,349.9,257,349.9z M261.6,401.5l4.6-7.9l-4.6-7.9h-9.2l-4.6,7.9l4.6,7.9H261.6z M257,389c2.5,0,4.5,2,4.5,4.5
			c0,2.5-2,4.5-4.5,4.5c-2.5,0-4.5-2-4.5-4.5C252.5,391,254.5,389,257,389z"/>
	</g>
</g>
</svg>
