<?xml version="1.0" encoding="utf-8"?>
<!-- Generator: Adobe Illustrator 27.8.1, SVG Export Plug-In . SVG Version: 6.00 Build 0)  -->
<svg version="1.1" id="Layer_1" xmlns="http://www.w3.org/2000/svg" xmlns:xlink="http://www.w3.org/1999/xlink" x="0px" y="0px"
	 viewBox="0 0 514 491" style="enable-background:new 0 0 514 491;" xml:space="preserve">
<style type="text/css">
	.st0{clip-path:url(#SVGID_00000012432075578774720910000005226267972829824421_);}
</style>
<g>
	<defs>
		<rect id="SVGID_1_" x="-103" y="-115" width="720" height="720"/>
	</defs>
	<clipPath id="SVGID_00000047060656823239688050000002746395752530694567_">
		<use xlink:href="#SVGID_1_"  style="overflow:visible;"/>
	</clipPath>
	<g style="clip-path:url(#SVGID_00000047060656823239688050000002746395752530694567_);">
		<path d="M234.8,85.5C234.8,20.9,256,0,256,0s21.2,21,21.2,85.5c0,64.6-16.4,78.6-21.2,78.6C251.3,164.1,234.8,150.1,234.8,85.5z
			 M156,239.4c1.5-4.5-6.8-24.5-68.1-44.4C26.5,175,0,188.7,0,188.7s13.4,26.6,74.7,46.6C136.1,255.2,154.5,243.9,156,239.4z
			 M193,358.2c-3.8-2.8-25.3-1.1-63.3,51.1S96.5,491,96.5,491s29.4-4.5,67.3-56.7C201.8,382,196.7,361,193,358.2z M412.3,292.1
			c31.8,43.8,27.9,102.7-6,141.9c-1.8-3.4-3.8-7-6.1-10.6c28.1-35.3,30.5-86.4,2.8-124.6c-12.9-17.8-30.5-30.1-49.8-36.8
			c14.5,7.4,27.3,18.4,37.4,32.3c26.1,35.9,24.2,78.5-2.5,110.9c0,0,0,0,0-0.1c-0.9-1.2-1.7-2.3-2.6-3.5
			c24.6-30.3,26.9-70,1.6-104.8c-17.5-24.1-42.6-37.8-68.4-40.2c20.2,4.1,39.1,15.8,52.7,34.4c21.5,29.6,20.7,65.6,0.1,93.1
			c-1-1.1-1.9-2.2-2.9-3.2c19.3-26.2,19.4-59.7-0.7-87.3c-15-20.7-37-32.4-59.7-34c16.9,3.2,32.7,12.8,44,28.2
			c17.7,24.4,17.2,54.8,0.8,77.8c-1.1-1-2.2-1.9-3.3-2.8c15.2-21.5,15.6-49.8-0.9-72.5c-12.7-17.5-31.6-27-51-27.6
			c13.7,2.3,26.5,9.7,35.3,21.8c15,20.7,13.4,48.5-2.3,67.3c-1.7-0.6-3.2-1-4.7-1.2c15.7-17.3,17.7-43.9,3.5-63.6
			c-14.8-20.4-42.1-26.4-63.8-15.2c45.4,38.2,54.2,105.9,18.8,154.7c-31.8,43.8-89,58.3-136.8,38.2c2.7-2.8,5.4-5.8,8.2-9.1
			c42.2,15.8,91.5,2.3,119.2-35.9c12.9-17.8,19.2-38.3,19.6-58.7c-2.5,16.1-9,31.7-19.1,45.6c-26.1,35.9-67.1,47.3-106.2,31.9
			c0,0,0,0,0-0.1c0.9-1.2,1.7-2.3,2.5-3.5c36.5,14.1,74.9,3.9,100.1-30.8c17.5-24.1,22.8-52.2,17.1-77.5
			c2.4,20.5-2.9,42.1-16.4,60.8c-21.5,29.6-56,39.9-88.5,28.8c0.8-1.3,1.5-2.5,2.2-3.7c30.8,10.3,62.7,0,82.8-27.6
			c15-20.7,19.4-45.2,13.9-67.3c2.2,17-2,35.1-13.3,50.6c-17.7,24.4-46.8,33.3-73.7,24.8c0.6-1.4,1.1-2.7,1.6-4
			c25.1,7.8,52.1-0.5,68.6-23.3c12.7-17.5,15.9-38.4,10.5-57c2.1,13.7-1,28.2-9.8,40.3c-15,20.7-41.9,27.7-64.7,18.6
			c0-1.7-0.1-3.3-0.3-4.8c21.3,9.6,47.2,3.3,61.5-16.3c14.3-19.7,12.2-46.4-3.6-63.7c-22.5,54.6-83.8,83.6-140.9,65
			C68,331,36.5,281.1,40.8,229.4c3.5,1.7,7.2,3.4,11.2,5c-2,45,26.1,87.8,70.9,102.4c20.9,6.8,42.3,6.5,61.9,0.5
			c-16,2.5-32.9,1.2-49.3-4.1c-42.2-13.7-65.7-49.3-63.1-91.2c0,0,0,0,0.1,0c1.4,0.5,2.7,0.9,4.1,1.3c-2.1,39,19.4,72.5,60.2,85.8
			c28.3,9.2,56.6,5.5,79-7.7c-18.7,8.6-40.9,10.3-62.9,3.1c-34.8-11.3-55.3-40.9-54.8-75.3c1.4,0.3,2.8,0.6,4.2,0.9
			c-0.2,32.5,19.3,59.7,51.9,70.3c24.3,7.9,49,4.4,68.3-7.5c-15.5,7.4-34,8.9-52.2,3c-28.7-9.3-46.1-34.2-46.3-62.5
			c1.5,0.1,2.9,0.2,4.3,0.3c0.3,26.3,16.6,49.4,43.3,58.1c20.5,6.7,41.4,3.2,57.4-7.7c-12.4,6.2-27.1,7.7-41.3,3.1
			c-24.3-7.9-39.3-31.3-37.7-55.8c1.7-0.5,3.2-1.1,4.5-1.8c-2.5,23.2,11.5,45.9,34.5,53.5c24.3,7.9,50.3-3.7,61-26.2
			c-60.4-3-108.5-53.1-108.5-114.2c0-54.1,37.7-99.5,88.2-111.3c-0.5,3.8-1,7.9-1.3,12.2c-43.4,12-75.4,51.9-75.4,99.2
			c0,21.9,6.9,42.3,18.7,59c-7.4-14.5-11.3-30.9-11.3-48.2c0-44.4,26.5-77.8,67.2-88.2c0,0,0,0.1,0,0.1c0,1.5,0,2.9,0,4.3
			c-37.8,10-62.9,40.8-62.9,83.8c0,29.8,12.2,55.6,31.7,72.8c-13.9-15.2-22.4-35.8-22.4-58.9c0-36.6,21.8-65.2,54.7-75.4
			c0.1,1.5,0.3,2.9,0.4,4.3c-31,9.8-50.8,36.9-50.8,71.1c0,25.6,10.9,48,28.3,62.6c-11.8-12.5-19-29.6-19-48.7
			c0-30.2,18.3-54.4,45.1-63.4c0.3,1.4,0.7,2.9,1.1,4.2c-24.9,8.4-41.8,31.1-41.8,59.2c0,21.6,9.7,40.4,25,52.3
			c-9.7-9.9-15.7-23.4-15.7-38.4c0-25.6,17.6-47.1,41.4-53.1c1,1.4,2,2.7,3.1,3.7c-22.9,4.8-40.1,25.1-40.1,49.4
			c0,25.2,18.6,46.1,42.7,49.8c-14.3-57.6,18.3-117.5,75.6-136.2c51.4-16.7,106.2,5.2,133.1,49.5c-3.8,0.7-7.8,1.5-12,2.5
			c-24.9-37.6-72.7-55.7-117.5-41.1c-20.9,6.8-38.1,19.7-50.3,36c11.5-11.5,25.9-20.3,42.3-25.6c42.2-13.7,82.1,1.2,104.6,36.7
			c0,0,0,0-0.1,0c-1.4,0.5-2.7,0.9-4.1,1.4c-21.2-32.8-58.3-47.2-99.1-34c-28.3,9.2-49.1,28.8-59.4,52.7
			c10.1-17.9,27.1-32.4,49-39.5c34.8-11.3,68.8,0.6,88.5,28.7c-1.4,0.6-2.7,1.2-4,1.7c-18.9-26.4-50.7-36.9-83.2-26.4
			c-24.3,7.9-42.2,25.2-50.8,46.3c8.2-15.1,22.3-27.2,40.4-33.1c28.7-9.3,57.4,0.6,74.2,23.3c-1.3,0.8-2.5,1.6-3.6,2.3
			c-15.7-21.1-42.5-30.2-69.2-21.5c-20.5,6.7-35.4,21.7-42,40c6.4-12.3,17.4-22.2,31.6-26.8c24.3-7.9,50.2,2.2,63.3,23
			c-1,1.4-1.9,2.8-2.6,4.1c-11.6-20.3-36.3-30.4-59.3-22.9c-24,7.8-38.1,31.9-34.2,56.1C309.9,230.8,376.9,243.3,412.3,292.1z
			 M319.1,358.2c-3.8,2.8-8.9,23.8,29,76c37.9,52.2,67.3,56.7,67.3,56.7s4.8-29.4-33.1-81.6C344.4,357.1,322.8,355.5,319.1,358.2z
			 M426.2,193.8c-61.4,20-69.6,39.9-68.1,44.4c1.5,4.5,19.9,15.8,81.2-4.2c61.4-20,74.7-46.6,74.7-46.6S487.5,173.9,426.2,193.8z"/>
	</g>
</g>
</svg>
