<?xml version="1.0" encoding="utf-8"?>
<!-- Generator: Adobe Illustrator 27.8.1, SVG Export Plug-In . SVG Version: 6.00 Build 0)  -->
<svg version="1.1" id="Layer_1" xmlns="http://www.w3.org/2000/svg" xmlns:xlink="http://www.w3.org/1999/xlink" x="0px" y="0px"
	 viewBox="0 0 514 514" style="enable-background:new 0 0 514 514;" xml:space="preserve">
<style type="text/css">
	.st0{clip-path:url(#SVGID_00000055691361463457900300000014070090636433254079_);}
</style>
<g>
	<defs>
		<rect id="SVGID_1_" x="-103" y="-103" width="720" height="720"/>
	</defs>
	<clipPath id="SVGID_00000138540273748516943830000008648580077604890522_">
		<use xlink:href="#SVGID_1_"  style="overflow:visible;"/>
	</clipPath>
	<g style="clip-path:url(#SVGID_00000138540273748516943830000008648580077604890522_);">
		<path d="M204.6,99.1c0.2,0,0.3,0,0.5,0c2.8,15.4,14.5,27.7,29.6,31.2l4.6,1.1c5.8,1.4,11.7,2,17.7,2c6,0,12-0.7,17.7-2l4.6-1.1
			c15.1-3.6,26.8-15.9,29.6-31.2c0.2,0,0.3,0,0.5,0c4.7,0,8.6-3.8,8.6-8.6V60c0-4.7-3.8-8.6-8.6-8.6c-0.5-7.4-2.2-15.8-5-21.6
			c-0.9-1.9-2.8-3-4.9-3.1C291.9,10.9,275.7,0,257,0s-34.9,10.9-42.5,26.7c-2.1,0.1-4,1.3-4.9,3.1c-2.8,5.8-4.5,14.2-5,21.6
			c-4.7,0-8.6,3.8-8.6,8.6v30.6C196.1,95.3,199.9,99.1,204.6,99.1z M230.1,50c1.3-0.1,2.5,0,3.8,0.1l10.5,1.3
			c4.2,0.5,8.4,0.8,12.6,0.8c4.2,0,8.4-0.3,12.6-0.8l10.5-1.3c1.3-0.2,2.5-0.2,3.8-0.1c5.9,0.4,11.8,1.4,17.5,2.9l-2.6,23.6
			c-3.3,15.5-3.8,32.7-24.7,42.6c-2,0.9-3.3,2.8-3.5,5c0,0.2,0,0.4,0,0.7c-8.9,1.8-18.4,1.8-27.3,0c0-0.2,0-0.4,0-0.7
			c-0.2-2.2-1.5-4.1-3.5-5c-20.9-9.9-21.4-27.1-24.7-42.6L212.6,53C218.3,51.5,224.2,50.5,230.1,50z M309.4,414.9
			c-0.2,0-0.3,0-0.5,0c-2.8-15.4-14.5-27.7-29.6-31.2l-4.6-1.1c-11.5-2.7-23.9-2.7-35.4,0l-4.6,1.1c0,0,0,0,0,0
			c-15.1,3.6-26.8,15.9-29.6,31.2c-0.2,0-0.3,0-0.5,0c-4.7,0-8.6,3.8-8.6,8.6V454c0,4.7,3.8,8.6,8.6,8.6c0.5,7.4,2.2,15.8,5,21.6
			c0.9,1.9,2.8,3,4.9,3.1c7.6,15.8,23.8,26.7,42.5,26.7s34.9-10.9,42.5-26.7c2.1-0.1,4-1.3,4.9-3.1c2.8-5.8,4.5-14.2,5-21.6
			c4.7,0,8.6-3.8,8.6-8.6v-30.6C317.9,418.7,314.1,414.9,309.4,414.9z M283.9,464c-1.3,0.1-2.5,0-3.8-0.1l-10.5-1.3
			c-4.2-0.5-8.4-0.8-12.6-0.8c-4.2,0-8.4,0.3-12.6,0.8l-10.5,1.3c-1.3,0.2-2.5,0.2-3.8,0.1c-5.9-0.4-11.8-1.4-17.5-2.9l2.6-23.6
			c3.3-15.5,3.8-32.7,24.7-42.6c2-0.9,3.3-2.8,3.5-5c0-0.2,0-0.4,0-0.7c8.9-1.8,18.4-1.8,27.3,0c0,0.2,0,0.4,0,0.7
			c0.2,2.2,1.5,4.1,3.5,5c20.9,9.9,21.4,27.1,24.7,42.6l2.6,23.6C295.7,462.5,289.8,463.5,283.9,464z M335.1,230.4h7.1v53.1h-7.1
			V230.4z M178.9,283.6h-7.1v-53.1h7.1V283.6z M514,257L389.5,132.5l77.1-77.1l-8.1-8.1L338.8,167.1l-31.5-31.5h-22.9l-0.8,2.4
			c-4,11.2-14.7,18.7-26.5,18.7s-22.5-7.5-26.5-18.7l-0.8-2.4h-22.9l-31.5,31.5L55.4,47.4l-8.1,8.1l77.1,77.1L0,257l124.5,124.5
			l-77.1,77.1l8.1,8.1l119.7-119.7l31.5,31.5h22.9l0.8-2.4c4-11.2,14.7-18.7,26.5-18.7s22.5,7.5,26.5,18.7l0.8,2.4h22.9l31.5-31.5
			l119.7,119.7l8.1-8.1l-77.1-77.1L514,257z M248.9,257l-76.8,76.8l-29.4-29.4v-94.7l29.4-29.4L248.9,257z M265.1,257l76.8-76.8
			l29.4,29.4v94.7l-29.4,29.4L265.1,257z M209.7,142.7h15.1c5.6,12.7,18.3,21,32.3,21c14,0,26.7-8.4,32.3-21h15.1l29.4,29.4H180.2
			L209.7,142.7z M132.5,373.4L16.1,257l116.4-116.4l34.6,34.6l-31.5,31.5v100.6l31.5,31.5L132.5,373.4z M304.3,371.3h-15.1
			c-5.6-12.7-18.3-21-32.3-21s-26.7,8.4-32.3,21h-15.1l-29.4-29.4h153.6L304.3,371.3z M378.4,307.3V206.7l-31.5-31.5l34.6-34.6
			L497.9,257L381.5,373.4l-34.6-34.6L378.4,307.3z"/>
	</g>
</g>
</svg>
