<?xml version="1.0" encoding="utf-8"?>
<!-- Generator: Adobe Illustrator 27.8.1, SVG Export Plug-In . SVG Version: 6.00 Build 0)  -->
<svg version="1.1" id="Layer_1" xmlns="http://www.w3.org/2000/svg" xmlns:xlink="http://www.w3.org/1999/xlink" x="0px" y="0px"
	 viewBox="0 0 514 514" style="enable-background:new 0 0 514 514;" xml:space="preserve">
<style type="text/css">
	.st0{clip-path:url(#SVGID_00000046317816724143311980000004514852887761430152_);}
</style>
<g>
	<defs>
		<rect id="SVGID_1_" x="-103" y="-103" width="720" height="720"/>
	</defs>
	<clipPath id="SVGID_00000095327353963042512180000013760275941033385134_">
		<use xlink:href="#SVGID_1_"  style="overflow:visible;"/>
	</clipPath>
	<g style="clip-path:url(#SVGID_00000095327353963042512180000013760275941033385134_);">
		<path d="M236,298.4L215.6,278l3.4-3.6c1.6-1.7,3.9-2.7,6.3-2.8c2.4,0,4.7,0.9,6.4,2.6l8.1,8.1c1.7,1.7,2.6,3.9,2.6,6.3
			c0,0,0,0.1,0,0.1c0,2.4-1,4.7-2.8,6.3L236,298.4z M263.6,33.9c-0.7,0.5-1.4,1.1-2.1,1.6c-4.8,3.6-8.9,4.9-13.2,4.9
			c-2.1,0-4.2-0.3-6.5-0.8c-2.2-0.5-5.8-2.2-8.9-5.3c3.5,9.9,12.9,16.9,24,16.9c13.5,0,24.6-10.5,25.4-23.8
			C274.3,25.6,269.1,29.6,263.6,33.9z M225.4,242.4c2.4,0,4.6-0.9,6.3-2.6l8.1-8.1c1.7-1.7,2.6-4,2.6-6.4c0-2.4-1-4.7-2.8-6.3
			l-3.6-3.4L215.6,236l3.4,3.6c1.6,1.7,3.9,2.7,6.3,2.8C225.4,242.4,225.4,242.4,225.4,242.4z M288.7,242.4c2.4,0,4.7-1,6.3-2.8
			l3.4-3.6L278,215.6l-3.6,3.4c-1.7,1.6-2.7,3.9-2.8,6.3c0,0,0,0.1,0,0.1c0,2.4,0.9,4.6,2.6,6.3l8.1,8.1
			C284,241.5,286.3,242.5,288.7,242.4z M278,298.4l20.4-20.4l-3.4-3.6c-1.6-1.7-3.9-2.7-6.3-2.8c0,0-0.1,0-0.1,0
			c-2.4,0-4.6,0.9-6.3,2.6l-8.1,8.1c-1.7,1.7-2.6,4-2.6,6.4c0,2.4,1,4.7,2.8,6.3L278,298.4z M433,99.5l-37.7-37.8
			c-1.1,2.5-2.1,4.9-2.8,7.3l35.5,35.5L433,99.5z M242.9,35c5.9,1.3,10,1.1,15.8-3.2c0.7-0.5,1.3-1,2-1.5c5.4-4.2,12-9.3,21.6-7.6
			C280.8,9.9,270,0.2,257,0.2c-11.1,0-20.5,7.1-24,17c-1.2,3.6-1,7.1,0.7,10.2C235.9,31.7,240.5,34.5,242.9,35z M83.3,124.2
			c4.6,0.3,7.8,0,10.4-0.3l11-10.9l-5.1-5.1L83.3,124.2z M61.8,118.8c2.5,1.1,4.9,2.1,7.3,2.8l35.5-35.5L99.5,81L61.8,118.8z
			 M473.3,59.2l-36.8-36.8c-2.3,0.9-4.5,2-6.8,3.3l38.5,38.5L473.3,59.2z M479.7,233c-9.9,3.5-16.9,12.9-16.9,24
			c0,13.5,10.5,24.6,23.8,25.4c1.9-8.1-2.2-13.4-6.5-18.9c-0.5-0.7-1.1-1.4-1.6-2.1c-3.6-4.8-4.9-8.9-4.9-13.2
			c0-2.1,0.3-4.2,0.8-6.5C474.9,239.6,476.7,236,479.7,233z M459.8,99.5l-54.1-54.1c-1.6,1.9-3.1,3.8-4.4,5.7l53.4,53.4L459.8,99.5z
			 M406.1,99.5l-16.3-16.3c-0.3,4.6,0,7.8,0.3,10.4l11,11L406.1,99.5z M473.3,86.1l-53.6-53.6c-1.8,1.4-3.7,3-5.5,4.6l54.1,54.1
			L473.3,86.1z M51.2,112.7l53.4-53.4l-5.1-5.1l-54.1,54.1C47.4,109.8,49.3,111.3,51.2,112.7z M513.8,257c0-11.1-7.1-20.5-17-24
			c-3.6-1.2-7.1-1-10.2,0.7c-4.3,2.3-7,6.9-7.6,9.2c-1.3,5.9-1.1,10,3.2,15.8c0.5,0.7,1,1.3,1.5,2c4.2,5.4,9.3,12,7.6,21.6
			C504,280.8,513.8,270,513.8,257z M473.3,32.4l-13.4-13.4c0,0-4.2-0.7-10.1,0l18.5,18.5L473.3,32.4z M293.3,220.8l-10-10l50.5-47.7
			c17.8-17.8,23.7-40.8,30-65c3.6-13.9,7.3-28.1,13.4-41.4c3.9-9.3,10-19,19.4-28.5c38.2-38.2,77.8-32.9,100-10.7
			c22.2,22.2,27.6,61.8-10.7,100c-9.5,9.5-19.2,15.6-28.5,19.4c-13.3,6.1-27.5,9.8-41.4,13.4c-24.3,6.3-47.2,12.2-65,30l-47.7,50.5
			L293.3,220.8z M382.6,87.1c0.1,17,6.4,29.5,10.7,33.8c4.3,4.3,16.8,10.6,33.8,10.7c7.3,0,16.5-1.1,26.4-5.3
			c8.9-4.2,17.1-9.4,24.4-16.8c18-18,24.8-35.3,24.8-50.1c0-13.9-5.9-25.6-14.1-33.8c-8.2-8.2-19.9-14.1-33.8-14.1
			c-14.8,0-32.1,6.8-50.1,24.8c-7.3,7.3-12.6,15.6-16.8,24.4C383.7,70.6,382.5,79.8,382.6,87.1z M353.3,157.1l1.9,1.9l1.9,1.9
			c15.7-10.4,33.5-15.6,51.1-20.2c-10.4-2.7-18.5-7.2-22.9-11.6c0,0,0,0,0,0c0,0,0,0,0,0c-4.5-4.4-9-12.5-11.6-22.9
			C368.9,123.6,363.7,141.4,353.3,157.1z M485.9,396.6c38.2,38.2,32.9,77.8,10.7,100c-22.2,22.2-61.8,27.6-100-10.7
			c-9.5-9.5-15.6-19.2-19.4-28.5c-6.1-13.3-9.8-27.5-13.4-41.4c-6.3-24.3-12.2-47.2-30-65l-50.5-47.7l10-10l10-10l47.7,50.5
			c17.8,17.8,40.8,23.7,65,30c13.9,3.6,28.1,7.3,41.4,13.4C466.6,381,476.4,387.1,485.9,396.6z M385.1,385.2
			C385.1,385.2,385.1,385.2,385.1,385.2C385.1,385.2,385.1,385.2,385.1,385.2c4.5-4.5,12.6-9,23-11.7c-17.6-4.6-35.4-9.8-51.1-20.2
			l-1.9,1.9l-1.9,1.9c10.4,15.7,15.6,33.5,20.2,51.1C376.1,397.7,380.6,389.6,385.1,385.2z M502.5,454.7c0-14.8-6.8-32.1-24.8-50.1
			c-7.3-7.3-15.6-12.6-24.4-16.8c-9.9-4.2-19.2-5.4-26.4-5.3c-17,0.1-29.5,6.4-33.8,10.7c-4.3,4.3-10.6,16.8-10.7,33.8
			c0,7.3,1.1,16.5,5.3,26.4c4.2,8.9,9.4,17.1,16.8,24.4c18,18,35.3,24.8,50.1,24.8c13.9,0,25.6-5.9,33.8-14.1
			C496.6,480.4,502.5,468.6,502.5,454.7z M271.1,479c-5.9-1.3-10-1.1-15.8,3.2c-0.7,0.5-1.3,1-2,1.5c-5.4,4.2-12,9.3-21.6,7.6
			c1.5,12.6,12.3,22.4,25.3,22.4c11.1,0,20.5-7.1,24-17c1.2-3.6,1-7.1-0.7-10.2C278.1,482.3,273.5,479.5,271.1,479z M430.7,389.8
			c-4.6-0.3-7.8,0-10.4,0.3l-11,11l5.1,5.1L430.7,389.8z M250.4,480.1c0.7-0.5,1.4-1.1,2.1-1.6c4.8-3.6,8.9-4.9,13.2-4.9
			c2.1,0,4.2,0.3,6.5,0.8c2.2,0.5,5.8,2.2,8.9,5.3c-3.5-9.9-12.9-16.9-24-16.9c-13.5,0-24.6,10.5-25.4,23.8
			C239.7,488.4,244.9,484.4,250.4,480.1z M452.2,395.2c-2.5-1.1-4.9-2.1-7.3-2.8l-35.5,35.5l5.1,5.1L452.2,395.2z M220.7,293.2
			l10,10L180.2,351c-17.8,17.8-23.7,40.8-30,65c-3.6,13.9-7.3,28.1-13.4,41.4c-3.9,9.3-10,19-19.4,28.5
			c-38.2,38.2-77.8,32.9-100,10.7c-22.2-22.2-27.6-61.8,10.7-100c9.5-9.5,19.2-15.6,28.5-19.4c13.3-6.1,27.5-9.8,41.4-13.4
			c24.3-6.3,47.2-12.2,65-30l47.7-50.5L220.7,293.2z M131.4,426.9c-0.1-17-6.4-29.5-10.7-33.8c-4.3-4.3-16.8-10.6-33.8-10.7
			c-7.3,0-16.5,1.1-26.4,5.3c-8.9,4.2-17.1,9.4-24.4,16.8c-18,18-24.8,35.3-24.8,50.1c0,13.9,5.9,25.6,14.1,33.8
			c8.2,8.2,19.9,14.1,33.8,14.1c14.8,0,32.1-6.8,50.1-24.8c7.3-7.3,12.6-15.6,16.8-24.4C130.3,443.4,131.5,434.2,131.4,426.9z
			 M160.7,356.9l-1.9-1.9l-1.9-1.9c-15.7,10.4-33.5,15.6-51.1,20.2c10.4,2.7,18.5,7.2,22.9,11.6c0,0,0,0,0,0c0,0,0,0,0,0
			c4.5,4.4,9,12.5,11.6,22.9C145.1,390.4,150.3,372.6,160.7,356.9z M454.8,473.3l36.8-36.8c-0.9-2.3-2-4.5-3.3-6.8l-38.5,38.5
			L454.8,473.3z M462.8,401.3l-53.4,53.4l5.1,5.1l54.1-54.1C466.6,404.2,464.7,402.7,462.8,401.3z M422.8,468.2l5.1,5.1l53.6-53.6
			c-1.4-1.8-3-3.7-4.6-5.5L422.8,468.2z M107.9,414.5l16.3,16.3c0.3-4.6,0-7.8-0.3-10.4l-10.9-11L107.9,414.5z M32.4,40.7L18.9,54.2
			c0,0-0.7,4.2,0,10.1l18.5-18.5L32.4,40.7z M481.6,473.3l13.4-13.4c0,0,0.7-4.2,0-10.1l-18.5,18.5L481.6,473.3z M28.1,117.4
			c-38.2-38.2-32.9-77.8-10.7-100C39.7-4.9,79.3-10.2,117.5,28c9.5,9.5,15.6,19.2,19.4,28.5c6.1,13.3,9.8,27.5,13.4,41.4
			c6.3,24.3,12.2,47.2,30,65l50.5,47.7l-10,10l-10,10L163,180.2c-17.8-17.8-40.8-23.7-65-30c-13.9-3.6-28.1-7.3-41.4-13.4
			C47.4,133,37.6,126.9,28.1,117.4z M128.9,128.8C128.9,128.8,128.9,128.8,128.9,128.8C128.9,128.8,128.9,128.8,128.9,128.8
			c-4.5,4.5-12.6,9-23,11.7c17.6,4.6,35.4,9.8,51.1,20.2l1.9-1.9l1.9-1.9c-10.4-15.7-15.6-33.5-20.2-51.1
			C137.9,116.3,133.4,124.4,128.9,128.8z M11.5,59.3c0,14.8,6.8,32.1,24.8,50.1c7.3,7.3,15.6,12.6,24.4,16.8
			c9.9,4.2,19.2,5.4,26.4,5.3c17-0.1,29.5-6.4,33.8-10.7c4.3-4.3,10.6-16.8,10.7-33.8c0-7.3-1.1-16.5-5.3-26.4
			c-4.2-8.9-9.4-17.1-16.8-24.4c-18-18-35.3-24.8-50.1-24.8c-13.9,0-25.6,5.9-33.8,14.1C17.4,33.6,11.5,45.4,11.5,59.3z M81,414.5
			l37.8,37.8c1.1-2.5,2.1-4.9,2.8-7.3l-35.5-35.5L81,414.5z M51.2,257c0-13.5-10.5-24.6-23.8-25.4c-1.9,8.1,2.2,13.4,6.5,18.9
			c0.5,0.7,1.1,1.4,1.6,2.1c3.6,4.8,4.9,8.9,4.9,13.2c0,2.1-0.3,4.2-0.8,6.5c-0.5,2.2-2.2,5.8-5.3,8.9
			C44.2,277.5,51.2,268.1,51.2,257z M59.2,40.7L22.5,77.5c0.9,2.3,2,4.5,3.3,6.8l38.5-38.5L59.2,40.7z M91.2,45.8l-5.1-5.1
			L32.5,94.4c1.4,1.8,3,3.7,4.6,5.5L91.2,45.8z M0.2,257c0,11.1,7.1,20.5,17,24c3.6,1.2,7.1,1,10.2-0.7c4.3-2.3,7-6.9,7.6-9.2
			c1.3-5.9,1.1-10-3.2-15.8c-0.5-0.7-1-1.3-1.5-2c-4.2-5.4-9.3-12-7.6-21.6C10,233.2,0.2,244,0.2,257z M40.7,427.9l53.6,53.6
			c1.8-1.4,3.7-3,5.5-4.6l-54.1-54.1L40.7,427.9z M54.2,414.5l54.1,54.1c1.6-1.9,3.1-3.8,4.4-5.7l-53.4-53.4L54.2,414.5z
			 M40.7,454.8l36.8,36.8c2.3-0.9,4.5-2,6.8-3.3l-38.5-38.5L40.7,454.8z M40.7,481.6l13.4,13.4c0,0,4.2,0.7,10.1,0l-18.5-18.5
			L40.7,481.6z"/>
	</g>
</g>
</svg>
