<?xml version="1.0" encoding="utf-8"?>
<!-- Generator: Adobe Illustrator 27.8.1, SVG Export Plug-In . SVG Version: 6.00 Build 0)  -->
<svg version="1.1" id="Layer_1" xmlns="http://www.w3.org/2000/svg" xmlns:xlink="http://www.w3.org/1999/xlink" x="0px" y="0px"
	 viewBox="0 0 514 514" style="enable-background:new 0 0 514 514;" xml:space="preserve">
<style type="text/css">
	.st0{clip-path:url(#SVGID_00000136386418832564498760000011563189390399321010_);}
</style>
<g>
	<defs>
		<rect id="SVGID_1_" x="-103.2" y="-103.2" width="720" height="720"/>
	</defs>
	<clipPath id="SVGID_00000106850150326942122060000018326839911215741855_">
		<use xlink:href="#SVGID_1_"  style="overflow:visible;"/>
	</clipPath>
	<g style="clip-path:url(#SVGID_00000106850150326942122060000018326839911215741855_);">
		<path d="M458.6,47.4l-71.8,71.8l8.1,8.1l71.8-71.8L458.6,47.4z"/>
		<path d="M35.5,121.2c9.2,9.2,20.7,14.8,32.7,16.9l69.9-69.9c-2-11.9-7.6-23.4-16.9-32.6L109.8,24C86.1,0.3,47.7,0.3,24,24
			s-23.7,62,0,85.7L35.5,121.2z M47.8,55.3c10.2,0,18.4,8.2,18.4,18.4c0,10.2-8.2,18.4-18.4,18.4c-10.2,0-18.4-8.2-18.4-18.4
			C29.4,63.5,37.6,55.3,47.8,55.3z"/>
		<path d="M138.8,83.7l-55,55c6.2-0.5,12.3-2,18.1-4.4c5.4-2.1,11.5-0.8,15.6,3.3l30.1,30.1c3.1,3.1,8.2,3.1,11.3,0l8.9-8.9
			c3.1-3.1,3.1-8.2,0-11.3l-30.1-30.1c-4.1-4.1-5.5-10.3-3.3-15.7C136.8,96,138.3,89.8,138.8,83.7z"/>
		<path d="M119.1,386.8l-71.8,71.8l8.1,8.1l71.8-71.8L119.1,386.8z"/>
		<path d="M375.2,430.3l55-55c-6.2,0.5-12.3,2-18.1,4.4c-5.4,2.1-11.5,0.8-15.6-3.3l-30.1-30.1c-3.1-3.1-8.2-3.1-11.3,0l-8.9,8.9
			c-3.1,3.1-3.1,8.2,0,11.3l30.1,30.1c4.1,4.1,5.5,10.3,3.3,15.7C377.2,418,375.8,424.2,375.2,430.3z"/>
		<path d="M478.5,392.8c-9.2-9.2-20.7-14.8-32.7-16.9l-69.9,69.9c2,12,7.6,23.4,16.9,32.6l11.5,11.5c23.7,23.7,62.1,23.7,85.8,0
			c23.7-23.7,23.7-62,0-85.7L478.5,392.8z M466.3,458.7c-10.2,0-18.4-8.2-18.4-18.4c0-10.2,8.2-18.4,18.4-18.4
			c10.2,0,18.4,8.2,18.4,18.4C484.6,450.5,476.4,458.7,466.3,458.7z"/>
		<path d="M307.7,497.9L177.4,367.6l92.4-92.6l73.2,73.4l5.1-5.1l-73.2-73.4l0,0l92.4-92.6l130.5,130.5L437.6,368
			c4.9,0.1,9.6,0.8,14.2,1.9l62.2-62.2L375.4,169.1l23.1-23.1l-30.8-30.8l-23.1,23.1L206.3,0l-62,62c1.2,4.6,1.8,9.4,2,14.2
			l60.1-60.1l130.3,130.3l-92.4,92.6L171,165.7l-5.1,5.1l73.2,73.4l0,0l-92.4,92.7L16.2,206.3L76.4,146c-4.9-0.1-9.6-0.8-14.2-1.9
			L0,206.3l138.6,138.6L115.5,368l30.8,30.8l23.1-23.1L307.7,514l62.1-62.1c-1.2-4.6-1.8-9.4-2-14.2L307.7,497.9z M367.7,125.3
			l20.7,20.6l-18,18.1l-20.7-20.7L367.7,125.3z M341.6,151.5l20.7,20.7L344,190.5l-20.7-20.6L341.6,151.5z M318.3,174.9l20.7,20.6
			l-19.7,19.7l-20.6-20.7L318.3,174.9z M293.6,199.6l20.6,20.7L294.6,240l-20.6-20.6L293.6,199.6z M268.9,224.4l20.6,20.6
			l-19.7,19.7l-20.6-20.7L268.9,224.4z M244.2,249.2l20.6,20.7l-19.7,19.7l-20.7-20.6L244.2,249.2z M219.5,274l20.7,20.6l-19.7,19.7
			l-20.6-20.7L219.5,274z M194.7,298.7l20.6,20.7l-19.7,19.7L175,318.5L194.7,298.7z M146.3,388.7L125.6,368l18-18.1l20.7,20.7
			L146.3,388.7z M151.7,341.9l18.3-18.3l20.7,20.7l-18.3,18.3L151.7,341.9z"/>
	</g>
</g>
</svg>
