<?xml version="1.0" encoding="utf-8"?>
<!-- Generator: Adobe Illustrator 27.8.1, SVG Export Plug-In . SVG Version: 6.00 Build 0)  -->
<svg version="1.1" id="Layer_1" xmlns="http://www.w3.org/2000/svg" xmlns:xlink="http://www.w3.org/1999/xlink" x="0px" y="0px"
	 viewBox="0 0 514 514" style="enable-background:new 0 0 514 514;" xml:space="preserve">
<style type="text/css">
	.st0{clip-path:url(#SVGID_00000183227463560007934470000004219332359482192009_);}
</style>
<g>
	<defs>
		<rect id="SVGID_1_" x="-103" y="-103" width="720" height="720"/>
	</defs>
	<clipPath id="SVGID_00000078044135109584438140000010793226150213670329_">
		<use xlink:href="#SVGID_1_"  style="overflow:visible;"/>
	</clipPath>
	<g style="clip-path:url(#SVGID_00000078044135109584438140000010793226150213670329_);">
		<path d="M348.4,157.6L458.6,47.4l8.1,8.1L356.4,165.6L348.4,157.6z M251.3,34v55.7h11.4V34c53.2,1.3,103.2,21.2,142.7,56.5
			l5.1-5.1c-39.4-35.3-91-57.2-147.7-58.5V0h-11.4v26.8C194.6,28.2,143,50.1,103.6,85.4l5.1,5.1C148.1,55.1,198.1,35.3,251.3,34z
			 M90.4,405.4C55.1,365.9,35.3,315.9,34,262.7h55.7v-11.4H34c1.3-53.2,21.2-103.2,56.5-142.7l-5.1-5.1
			c-35.3,39.4-57.2,91-58.5,147.7H0v11.4h26.8c1.4,56.7,23.3,108.3,58.5,147.7L90.4,405.4z M348.4,356.4l110.2,110.2l8.1-8.1
			L356.4,348.4L348.4,356.4z M374.4,356.3l5.1,5.1c51.2-60,51.2-148.7,0-208.7l-5.1,5.1C422.9,214.9,422.9,299.1,374.4,356.3z
			 M157.7,139.6c57.2-48.4,141.4-48.4,198.5,0l5.1-5.1c-60-51.2-148.7-51.2-208.7,0L157.7,139.6z M356.3,374.4
			c-57.2,48.4-141.4,48.4-198.5,0l-5.1,5.1c60,51.2,148.7,51.2,208.7,0L356.3,374.4z M139.6,157.7l-5.1-5.1
			c-51.2,60-51.2,148.7,0,208.7l5.1-5.1C91.1,299.1,91.1,214.9,139.6,157.7z M487.2,251.3c-1.4-56.7-23.3-108.3-58.5-147.7l-5.1,5.1
			c35.3,39.5,55.1,89.5,56.5,142.7h-55.7v11.4H480c-1.3,53.2-21.2,103.2-56.5,142.7l5.1,5.1c35.3-39.4,57.2-91,58.5-147.7H514v-11.4
			L487.2,251.3L487.2,251.3z M262.7,480v-55.7h-11.4V480c-53.2-1.3-103.2-21.2-142.7-56.5l-5.1,5.1c39.4,35.3,91,57.2,147.7,58.5
			V514h11.4v-26.8c56.7-1.4,108.3-23.3,147.7-58.5l-5.1-5.1C365.9,458.9,315.9,478.7,262.7,480z M157.6,165.6l8.1-8.1L55.4,47.4
			l-8.1,8.1L157.6,165.6z M157.6,348.4L47.4,458.6l8.1,8.1l110.2-110.2L157.6,348.4z M345.4,345.4H168.6V168.6h176.8V345.4z
			 M284.1,257c0-15-12.1-27.2-27.2-27.2c-15,0-27.2,12.1-27.2,27.2c0,15,12.2,27.2,27.2,27.2C272,284.2,284.1,272,284.1,257z"/>
	</g>
</g>
</svg>
