<?xml version="1.0" encoding="utf-8"?>
<!-- Generator: Adobe Illustrator 27.8.1, SVG Export Plug-In . SVG Version: 6.00 Build 0)  -->
<svg version="1.1" id="Layer_1" xmlns="http://www.w3.org/2000/svg" xmlns:xlink="http://www.w3.org/1999/xlink" x="0px" y="0px"
	 viewBox="0 0 514 514" style="enable-background:new 0 0 514 514;" xml:space="preserve">
<style type="text/css">
	.st0{clip-path:url(#SVGID_00000081639669889903718930000011999232041626151353_);}
</style>
<g>
	<defs>
		<rect id="SVGID_1_" x="-103" y="-103" width="720" height="720"/>
	</defs>
	<clipPath id="SVGID_00000145780996857272549500000007846795015275327638_">
		<use xlink:href="#SVGID_1_"  style="overflow:visible;"/>
	</clipPath>
	<g style="clip-path:url(#SVGID_00000145780996857272549500000007846795015275327638_);">
		<path d="M386.7,381.7c66.9-69.6,66.9-179.7,0-249.3l25.9-25.9c26.4,25.2,62.1,40.6,101.4,40.6v-11.4c-36.1,0-69-14.2-93.3-37.3
			l41.2-41.2h15.9L514,20.6h-20.6V0l-36.5,36.2v15.9l-41.2,41.2C392.6,69,378.4,36.1,378.4,0h-11.4c0,39.3,15.5,75,40.6,101.4
			l-25.9,25.9c-69.6-66.9-179.7-66.9-249.3,0l-25.9-25.9C131.6,75,147.1,39.3,147.1,0h-11.4c0,36.1-14.2,69-37.3,93.3L57.1,52.1
			V36.2L20.6,0v20.6H0l36.2,36.5h15.9l41.2,41.2C69,121.4,36.1,135.6,0,135.6v11.4c39.3,0,75-15.5,101.4-40.6l25.9,25.9
			c-66.9,69.6-66.9,179.7,0,249.3l-25.9,25.9C75,382.4,39.3,366.9,0,366.9v11.4c36.1,0,69,14.2,93.3,37.3l-41.2,41.2H36.2L0,493.4
			h20.6V514l36.5-36.2v-15.9l41.2-41.2c23.1,24.3,37.3,57.2,37.3,93.3h11.4c0-39.3-15.5-75-40.6-101.4l25.9-25.9
			c69.6,66.9,179.7,66.9,249.3,0l25.9,25.9c-25.2,26.4-40.6,62.1-40.6,101.4h11.4c0-36.1,14.2-69,37.3-93.3l41.2,41.2v15.9
			l36.5,36.2v-20.6H514l-36.2-36.5h-15.9l-41.2-41.2c24.3-23.1,57.2-37.3,93.3-37.3v-11.4c-39.3,0-75,15.5-101.4,40.6L386.7,381.7z
			 M373.6,135.4l-10.1,10.1c-59.5-56.9-153.4-56.9-213,0l-10.1-10.1C205.5,72.9,308.5,72.9,373.6,135.4z M270.2,270l16.4,11.6
			c-1.5,1.8-3.2,3.5-5,5L270,270.2c-7.2,7.1-18.8,7.1-26.1,0l-11.6,16.4c-1.8-1.5-3.5-3.2-5-5l16.4-11.6c-7.1-7.2-7.1-18.8,0-26.1
			l-16.4-11.6c1.5-1.8,3.2-3.5,5-5l11.6,16.4c7.2-7.1,18.8-7.1,26.1,0l11.6-16.4c1.8,1.5,3.5,3.2,5,5L270.2,244
			C277.3,251.2,277.3,262.8,270.2,270z M281.6,227.3c-14.2-11.8-35-11.8-49.2,0l-13.2-13.2c21.5-19,54-19,75.5,0L281.6,227.3z
			 M227.3,232.4c-11.8,14.2-11.8,35,0,49.2l-13.2,13.2c-19-21.5-19-54,0-75.5L227.3,232.4z M232.4,286.7c14.2,11.8,35,11.8,49.2,0
			l13.2,13.2c-21.5,19-54,19-75.5,0L232.4,286.7z M286.7,281.6c11.8-14.2,11.8-35,0-49.2l13.2-13.2c19,21.5,19,54,0,75.5
			L286.7,281.6z M205.1,200L192,186.9c36.7-34.1,93.5-34.1,130.1,0L308.9,200C279.5,173.2,234.5,173.2,205.1,200z M200,205.1
			c-26.8,29.4-26.8,74.5,0,103.9L186.9,322c-34.1-36.7-34.1-93.5,0-130.1L200,205.1z M205.1,314c29.4,26.8,74.5,26.8,103.9,0
			l13.1,13.1c-36.7,34.1-93.5,34.1-130.1,0L205.1,314z M314,308.9c26.8-29.4,26.8-74.5,0-103.9l13.1-13.1
			c34.1,36.7,34.1,93.5,0,130.1L314,308.9z M177.8,172.8l-13.1-13.1c51.7-49.1,132.9-49.1,184.6,0l-13.1,13.1
			C291.7,130.9,222.3,130.9,177.8,172.8z M172.8,177.8c-41.8,44.5-41.8,113.9,0,158.4l-13.1,13.1c-49.1-51.7-49.1-132.9,0-184.6
			L172.8,177.8z M177.8,341.2c44.5,41.8,113.9,41.8,158.4,0l13.1,13.1c-51.7,49.1-132.9,49.1-184.6,0L177.8,341.2z M341.2,336.2
			c41.8-44.5,41.8-113.9,0-158.4l13.1-13.1c49.1,51.7,49.1,132.9,0,184.6L341.2,336.2z M135.4,140.4l10.1,10.1
			c-56.9,59.5-56.9,153.4,0,213l-10.1,10.1C72.9,308.5,72.9,205.5,135.4,140.4z M140.4,378.6l10.1-10.1c59.5,56.9,153.4,56.9,213,0
			l10.1,10.1C308.5,441.1,205.5,441.1,140.4,378.6z M378.6,373.6l-10.1-10.1c56.9-59.5,56.9-153.4,0-213l10.1-10.1
			C441.1,205.5,441.1,308.5,378.6,373.6z"/>
	</g>
</g>
</svg>
