<?xml version="1.0" encoding="utf-8"?>
<!-- Generator: Adobe Illustrator 27.8.1, SVG Export Plug-In . SVG Version: 6.00 Build 0)  -->
<svg version="1.1" id="Layer_1" xmlns="http://www.w3.org/2000/svg" xmlns:xlink="http://www.w3.org/1999/xlink" x="0px" y="0px"
	 viewBox="0 0 514 514" style="enable-background:new 0 0 514 514;" xml:space="preserve">
<style type="text/css">
	.st0{clip-path:url(#SVGID_00000106830150623712687740000016676931818566270873_);}
</style>
<g>
	<defs>
		<rect id="SVGID_1_" x="-103" y="-103" width="720" height="720"/>
	</defs>
	<clipPath id="SVGID_00000062895915857517379590000003009357135022207621_">
		<use xlink:href="#SVGID_1_"  style="overflow:visible;"/>
	</clipPath>
	<g style="clip-path:url(#SVGID_00000062895915857517379590000003009357135022207621_);">
		<path d="M72.2,94.4l-5-5C98.3,58.3,117.4,29.7,136.6,0h8.5C125.7,30.1,105.4,61.2,72.2,94.4z M108.3,130.5
			c34.9-34.4,58.1-69.6,80.6-103.7C194.7,17.9,200.6,9,206.7,0h-8.6c-5.2,7.7-10.2,15.3-15.2,22.9c-23.3,35.4-45.5,69-79.6,102.6
			L108.3,130.5z M175.4,197.6l5.1,5.1c36.5-35,65-76.7,92.7-117.2c19.7-28.8,39.9-58.3,63-85.5h-9.3c-21.7,26.2-40.9,54.1-59.6,81.5
			C239.8,121.7,211.4,163.1,175.4,197.6z M139.3,161.6l5.1,5.1C180,131.9,205.9,93.5,231,56.2c12.5-18.6,25.3-37.6,39.3-56.2h-8.9
			c-12.9,17.4-24.7,34.9-36.3,52.2C200.1,89.2,174.5,127.3,139.3,161.6z M227.5,358.1c1.1,0.3,2.1,0.7,3.1,1.3
			c1.1,0.7,2.2,1.5,3.1,2.4c21.3-29.4,43.7-57.7,68.8-81.5l-5.1-5.1C271.8,299.5,249.1,328.3,227.5,358.1z M334.6,65.8
			c-4.6,6.4-51,68.3-51,68.3c-3,5-1.4,11.4,3.5,14.4c2.2,1.3,5,0.6,6.3-1.6l15.5-25.6l25.5,25.5c-20.9,23-60.8,69.4-71.8,99.9l0,0
			c63.4-50.6,119.1-124,168.3-188.8l0,0c-20.8,13.3-54.9,44.1-88.8,80.5L315,111.3L333,81.4c2.1-3.5,6.7-4.6,10.2-2.5l8-13.2
			C345.5,62.3,339,59.7,334.6,65.8z M283.4,154.6c-1.1-0.7-2.2-1.5-3.1-2.4c-21.3,29.4-43.7,57.7-68.8,81.5l5.1,5.1
			c25.6-24.3,48.3-53.1,69.9-82.9C285.4,155.6,284.4,155.2,283.4,154.6z M405,0h-10c-16.6,17.3-32,36.4-46.8,56.3
			c2.4,0.9,4.6,2.1,6.5,3.2C370.6,38.3,387.1,18,405,0z M405.7,383.5c-34.9,34.4-58.1,69.6-80.6,103.7c-5.9,8.9-11.8,17.8-17.9,26.8
			h8.6c5.2-7.7,10.2-15.3,15.2-22.9c23.3-35.4,45.5-69,79.6-102.6L405.7,383.5z M338.6,316.4l-5.1-5.1c-36.5,35-65,76.7-92.7,117.2
			c-19.7,28.8-39.9,58.3-63,85.5h9.3c21.7-26.2,40.9-54.1,59.6-81.5C274.2,392.3,302.6,350.9,338.6,316.4z M368.9,514h8.5
			c19.1-29.7,38.3-58.3,69.4-89.4l-5-5C408.6,452.8,388.3,483.9,368.9,514z M374.7,352.4l-5.1-5.1c-35.7,34.7-61.5,73.1-86.6,110.4
			c-12.5,18.6-25.3,37.6-39.3,56.2h8.9c12.9-17.4,24.7-34.9,36.3-52.2C313.9,424.8,339.5,386.7,374.7,352.4z M74,449.1
			c-3.7,4.8-7.3,9.6-10.9,14.3c-1.3-0.2-2.7-0.6-3.9-1.5l-4.8-3.2l3.2-4.7c53.5-78.1,103-137.8,150.3-181.1l-7.8-7.8
			c-17.1,17-71,68.3-129.5,97l-2.9,1.4l-1.7-2.8C24.3,291.2,8.9,212.6,3.3,159c-6-58.1-2.1-100.4-2-100.8L2,50.7l214.6,214.6
			c7.6-6.7,15.2-13,22.7-18.8l3.9-3.1l9,8.7l-3.9,3C182.1,306.8,124.7,382.4,74,449.1z M155,219.8L7.6,72.4c-0.7,16.8-1.1,48,2.9,86
			c5.2,50.4,19.3,123,56.2,189C103.5,281.5,142.1,234.8,155,219.8z M195.3,260.1l-35.2-35.2C146.8,240.3,108,287.5,71.2,354
			C127.4,325.4,178.9,276.5,195.3,260.1z M109,514h10c16.6-17.3,32-36.4,46.8-56.3c-2.4-0.9-4.6-2.1-6.5-3.2
			C143.4,475.7,126.9,496,109,514z M179.4,448.2c4.6-6.4,51-68.3,51-68.3c3-5,1.4-11.4-3.5-14.4c-2.2-1.3-5-0.6-6.3,1.6l-15.5,25.6
			l-25.5-25.5c20.9-23,60.8-69.4,71.8-99.9l0,0c-63.4,50.6-119.1,124-168.3,188.8l0,0c20.8-13.4,54.9-44.1,88.8-80.5l27.1,27.1
			L181,432.6c-2.1,3.5-6.7,4.6-10.2,2.5l-8,13.2C168.5,451.7,175,454.3,179.4,448.2z M512.7,455.8l-0.7,7.5L297.4,248.7
			c-7.6,6.7-15.2,13-22.7,18.8l-3.9,3.1l-9-8.7l3.9-3c66.2-51.6,123.6-127.3,174.3-194c3.7-4.8,7.3-9.6,10.9-14.3
			c1.3,0.2,2.7,0.6,3.9,1.5l4.8,3.2l-3.2,4.7c-53.5,78.1-103,137.8-150.3,181.1l7.8,7.8c17.1-17,71-68.3,129.5-97l2.9-1.4l1.7,2.8
			c41.9,69.6,57.3,148.2,62.8,201.8C516.7,413.1,512.7,455.4,512.7,455.8z M359,294.2l147.4,147.4c0.7-16.8,1.1-48-2.9-86
			c-5.2-50.4-19.3-123-56.2-189C410.5,232.5,371.9,279.2,359,294.2z M318.7,253.9l35.2,35.2c13.2-15.3,52.1-62.6,88.9-129.1
			C386.6,188.6,335.1,237.5,318.7,253.9z"/>
	</g>
</g>
</svg>
