<?xml version="1.0" encoding="utf-8"?>
<!-- Generator: Adobe Illustrator 27.8.1, SVG Export Plug-In . SVG Version: 6.00 Build 0)  -->
<svg version="1.1" id="Layer_1" xmlns="http://www.w3.org/2000/svg" xmlns:xlink="http://www.w3.org/1999/xlink" x="0px" y="0px"
	 viewBox="0 0 514 514" style="enable-background:new 0 0 514 514;" xml:space="preserve">
<style type="text/css">
	.st0{clip-path:url(#SVGID_00000063617511028124866520000005808864299614391937_);}
</style>
<g>
	<defs>
		<rect id="SVGID_1_" x="-103" y="-103" width="720" height="720"/>
	</defs>
	<clipPath id="SVGID_00000041997511941420972240000013510769893934647195_">
		<use xlink:href="#SVGID_1_"  style="overflow:visible;"/>
	</clipPath>
	<g style="clip-path:url(#SVGID_00000041997511941420972240000013510769893934647195_);">
		<path d="M514,257l-90.7-90.7l-5.1,5.1l23.2,23.2L322.1,314l-28.3-28.3l200-200l-65.5-65.5l-200,200L55.4,47.4l-8.1,8.1l77.1,77.1
			L0,257l90.7,90.7l5.1-5.1l-23.2-23.2L191.9,200l28.3,28.3l-200.1,200l65.5,65.5l200-200l172.8,172.8l8.1-8.1l-77.1-77.1L514,257z
			 M67.4,314.3L10.1,257l119.4-119.4l57.3,57.4L67.4,314.3z M287.2,282.2L267.1,262l20.1-20.1l20.1,20.1L287.2,282.2z M90.7,388
			l20.1-20.1L131,388l-20.1,20.1L90.7,388z M105.8,413.2l-20.1,20.1l-20.1-20.1l20.1-20.1L105.8,413.2z M115.9,362.8l20.1-20.1
			l20.1,20.1L136.1,383L115.9,362.8z M141.1,337.6l20.1-20.1l20.1,20.1l-20.1,20.1L141.1,337.6z M166.3,312.4l20.1-20.1l20.1,20.1
			l-20.1,20.1L166.3,312.4z M191.5,287.2l20.1-20.1l20.1,20.1l-20.1,20.1L191.5,287.2z M216.7,262l20.1-20.1L257,262l-20.1,20.1
			L216.7,262z M241.9,236.8l20.1-20.1l20.1,20.1L262.1,257L241.9,236.8z M408.2,110.9L388,131l-20.1-20.1L388,90.7L408.2,110.9z
			 M393.1,85.7l20.1-20.1l20.1,20.1l-20.1,20.1L393.1,85.7z M383,136.1l-20.1,20.1l-20.1-20.1l20.1-20.1L383,136.1z M357.8,161.3
			l-20.1,20.1l-20.1-20.1l20.1-20.1L357.8,161.3z M332.6,186.5l-20.1,20.1l-20.1-20.1l20.1-20.1L332.6,186.5z M307.4,211.6
			l-20.1,20.1l-20.1-20.1l20.1-20.1L307.4,211.6z M312.4,257l-20.1-20.1l20.1-20.1l20.1,20.1L312.4,257z M337.6,231.8l-20.1-20.1
			l20.1-20.1l20.1,20.1L337.6,231.8z M362.8,206.6l-20.1-20.1l20.1-20.1l20.1,20.1L362.8,206.6z M388,181.4l-20.1-20.1l20.1-20.1
			l20.1,20.1L388,181.4z M413.2,156.2l-20.1-20.1l20.1-20.1l20.1,20.1L413.2,156.2z M438.4,131l-20.1-20.1l20.1-20.1l20.1,20.1
			L438.4,131z M483.7,85.7l-20.1,20.1l-20.1-20.1l20.1-20.1L483.7,85.7z M458.6,60.5l-20.1,20.1l-20.1-20.1l20.1-20.1L458.6,60.5z
			 M30.3,428.3L428.3,30.2l5.1,5.1L35.3,433.3L30.3,428.3z M40.3,438.4l20.1-20.1l20.1,20.1l-20.1,20.1L40.3,438.4z M85.7,483.7
			l-20.1-20.1l20.1-20.1l20.1,20.1L85.7,483.7z M110.9,458.5l-20.1-20.1l20.1-20.1l20.1,20.1L110.9,458.5z M136.1,433.3l-20.1-20.1
			l20.1-20.1l20.1,20.1L136.1,433.3z M161.3,408.1L141.1,388l20.1-20.1l20.1,20.1L161.3,408.1z M186.5,383l-20.1-20.1l20.1-20.1
			l20.1,20.1L186.5,383z M211.7,357.8l-20.1-20.1l20.1-20.1l20.1,20.1L211.7,357.8z M236.9,332.6l-20.1-20.1l20.1-20.1l20.1,20.1
			L236.9,332.6z M262.1,307.4l-20.1-20.1l20.1-20.1l20.1,20.1L262.1,307.4z M327.1,319.1l119.4-119.4l57.3,57.4L384.5,376.4
			L327.1,319.1z"/>
		<path d="M228.3,154.3c42.6,0,77.1-34.5,77.1-77.1c0-42.6-34.5-77.1-77.1-77.1s-77.1,34.5-77.1,77.1
			C151.1,119.7,185.7,154.3,228.3,154.3z M293.6,51.9c3,7.8,4.7,16.3,4.7,25.2c0,37.5-29.7,68.2-66.8,69.9
			c-7.6-3-24.3-11.8-26.1-31.3c-1-11,2.7-21.1,6.3-28.1c30.6,5.2,54.8-9.6,64-23C282.5,54.8,289.4,52.3,293.6,51.9z M228.3,7.1
			c18.2,0,34.7,7,47.2,18.3c-7.8-0.3-19.4,2.8-32.4,18.2c-23.3,27.6-52.7,21.8-52.7,21.8c-4.6-23.1-10-32-13.8-35.4
			C189.4,16,207.8,7.1,228.3,7.1z M159.6,63.5c9.9,4.1,22.1,26.8,24.8,31.9c-4.7,7.9-8.2,19.1-3.7,32.9
			c-13.8-12.8-22.4-31-22.4-51.3C158.3,72.5,158.8,67.9,159.6,63.5z"/>
		<path d="M285.7,359.7c-42.6,0-77.1,34.5-77.1,77.1c0,42.6,34.5,77.1,77.1,77.1s77.1-34.5,77.1-77.1
			C362.8,394.3,328.3,359.7,285.7,359.7z M220.4,462.1c-3-7.8-4.7-16.3-4.7-25.2c0-37.5,29.7-68.2,66.8-69.9
			c7.6,3,24.3,11.8,26.1,31.3c1,11-2.7,21.1-6.3,28.1c-30.6-5.2-54.8,9.6-64,23C231.5,459.2,224.6,461.6,220.4,462.1z M285.7,506.8
			c-18.2,0-34.7-7-47.2-18.3c7.8,0.3,19.4-2.8,32.4-18.2c23.3-27.6,52.7-21.8,52.7-21.8c4.6,23.1,10,32,13.8,35.4
			C324.6,498,306.2,506.8,285.7,506.8z M354.4,450.4c-9.9-4.1-22.1-26.8-24.8-31.9c4.7-7.9,8.2-19.1,3.7-32.9
			c13.8,12.8,22.4,31,22.4,51.3C355.7,441.5,355.2,446,354.4,450.4z"/>
	</g>
</g>
</svg>
