<?xml version="1.0" encoding="utf-8"?>
<!-- Generator: Adobe Illustrator 27.8.1, SVG Export Plug-In . SVG Version: 6.00 Build 0)  -->
<svg version="1.1" id="Layer_1" xmlns="http://www.w3.org/2000/svg" xmlns:xlink="http://www.w3.org/1999/xlink" x="0px" y="0px"
	 viewBox="0 0 514 514" style="enable-background:new 0 0 514 514;" xml:space="preserve">
<style type="text/css">
	.st0{clip-path:url(#SVGID_00000081635243808685318610000001992812114256137351_);}
</style>
<g>
	<defs>
		<rect id="SVGID_1_" x="-103" y="-103" width="720" height="720"/>
	</defs>
	<clipPath id="SVGID_00000082352442973829584320000018324948655637531566_">
		<use xlink:href="#SVGID_1_"  style="overflow:visible;"/>
	</clipPath>
	<g style="clip-path:url(#SVGID_00000082352442973829584320000018324948655637531566_);">
		<path d="M93.6,274.2c2,0,3.6-1.6,3.6-3.6c0-2-1.6-3.6-3.6-3.6c-2,0-3.6,1.6-3.6,3.6C90,272.6,91.6,274.2,93.6,274.2z"/>
		<path d="M93.6,227.2c2,0,3.6-1.6,3.6-3.6c0-2-1.6-3.6-3.6-3.6c-2,0-3.6,1.6-3.6,3.6C90,225.6,91.6,227.2,93.6,227.2z"/>
		<path d="M96.9,300c2,0,3.6-1.6,3.6-3.6c0-2-1.6-3.6-3.6-3.6c-2,0-3.6,1.6-3.6,3.6C93.3,298.4,94.9,300,96.9,300z"/>
		<path d="M118.8,271c2,0,3.6-1.6,3.6-3.6c0-2-1.6-3.6-3.6-3.6c-2,0-3.6,1.6-3.6,3.6C115.2,269.4,116.8,271,118.8,271z"/>
		<path d="M115.3,248.9c2,0,3.6-1.6,3.6-3.6c0-2-1.6-3.6-3.6-3.6c-2,0-3.6,1.6-3.6,3.6C111.7,247.3,113.3,248.9,115.3,248.9z"/>
		<path d="M152.3,213.8c2,0,3.6-1.6,3.6-3.6c0-2-1.6-3.6-3.6-3.6c-2,0-3.6,1.6-3.6,3.6C148.7,212.2,150.3,213.8,152.3,213.8z"/>
		<path d="M135.2,250.8c2,0,3.6-1.6,3.6-3.6c0-2-1.6-3.6-3.6-3.6c-2,0-3.6,1.6-3.6,3.6C131.6,249.2,133.2,250.8,135.2,250.8z"/>
		<path d="M116.6,230.4c2,0,3.6-1.6,3.6-3.6c0-2-1.6-3.6-3.6-3.6c-2,0-3.6,1.6-3.6,3.6C113.1,228.8,114.7,230.4,116.6,230.4z"/>
		<path d="M104.5,194.6c2,0,3.6-1.6,3.6-3.6c0-2-1.6-3.6-3.6-3.6c-2,0-3.6,1.6-3.6,3.6C100.9,193,102.5,194.6,104.5,194.6z"/>
		<path d="M125.2,297.2c2,0,3.6-1.6,3.6-3.6c0-2-1.6-3.6-3.6-3.6c-2,0-3.6,1.6-3.6,3.6C121.6,295.6,123.2,297.2,125.2,297.2z"/>
		<path d="M127.5,201.3c2,0,3.6-1.6,3.6-3.6c0-2-1.6-3.6-3.6-3.6s-3.6,1.6-3.6,3.6C123.9,199.7,125.5,201.3,127.5,201.3z"/>
		<path d="M82.8,246c2,0,3.6-1.6,3.6-3.6c0-2-1.6-3.6-3.6-3.6c-2,0-3.6,1.6-3.6,3.6C79.2,244.4,80.8,246,82.8,246z"/>
		<path d="M144.5,183c2,0,3.6-1.6,3.6-3.6c0-2-1.6-3.6-3.6-3.6c-2,0-3.6,1.6-3.6,3.6C141,181.4,142.6,183,144.5,183z"/>
		<path d="M228.3,154.3c42.6,0,77.1-34.5,77.1-77.1S270.9,0,228.3,0s-77.1,34.5-77.1,77.1S185.7,154.3,228.3,154.3z M228.3,147.1
			c-7,0-13.8-1.1-20.2-3c10.9-13.9,22.1-35.1,23.6-64.8c10.2-5.2,20-8.4,29.2-10.2l0,0c0.1,0.5,9.5,42.4-18.1,76.3
			C238.1,146.6,233.3,147.1,228.3,147.1z M298.3,77.1c0,29.5-18.3,54.7-44.2,65c21.3-32.9,14.8-69.4,13.9-74.1
			c11.3-1.4,21.4-0.8,29.7,0.6C298.1,71.5,298.3,74.3,298.3,77.1z M296.4,61.1C279,58.6,255,59.6,228.5,73
			c-9.6-6.2-17.3-13.2-23.4-20.2l0,0c0.4-0.3,31.9-29.4,75.1-22.5C288,38.9,293.7,49.4,296.4,61.1z M228.3,7.1
			c16.4,0,31.4,5.7,43.3,15.1c-39.1-2-67.5,21.9-71,25c-6.9-9.1-11.4-18.1-14.3-26C198,12.4,212.5,7.1,228.3,7.1z M180.4,26.2
			c6.6,16.4,19.4,36.6,44.2,52.8c-0.6,11.4-2.7,21.5-5.8,30.4l0,0c-0.5-0.1-41.4-13-57-53.9C165.4,44.2,171.9,34.2,180.4,26.2z
			 M159,67c17.8,34.9,52.7,47.6,57.2,49.1c-4.4,10.5-10.1,18.9-15.4,25.5c-25-10.7-42.5-35.5-42.5-64.4
			C158.3,73.7,158.6,70.3,159,67z"/>
		<path d="M172.1,223.5c2,0,3.6-1.6,3.6-3.6c0-2-1.6-3.6-3.6-3.6c-2,0-3.6,1.6-3.6,3.6C168.5,221.9,170.1,223.5,172.1,223.5z"/>
		<path d="M166.1,245.4c2,0,3.6-1.6,3.6-3.6c0-2-1.6-3.6-3.6-3.6c-2,0-3.6,1.6-3.6,3.6C162.5,243.8,164.1,245.4,166.1,245.4z"/>
		<path d="M151.2,271.2c2,0,3.6-1.6,3.6-3.6c0-2-1.6-3.6-3.6-3.6c-2,0-3.6,1.6-3.6,3.6C147.6,269.6,149.2,271.2,151.2,271.2z"/>
		<path d="M431.2,275.2c2,0,3.6-1.6,3.6-3.6c0-2-1.6-3.6-3.6-3.6c-2,0-3.6,1.6-3.6,3.6C427.7,273.6,429.3,275.2,431.2,275.2z"/>
		<path d="M347.9,275.8c2,0,3.6-1.6,3.6-3.6c0-2-1.6-3.6-3.6-3.6c-2,0-3.6,1.6-3.6,3.6C344.4,274.2,346,275.8,347.9,275.8z"/>
		<path d="M75.2,284.8c2,0,3.6-1.6,3.6-3.6c0-2-1.6-3.6-3.6-3.6c-2,0-3.6,1.6-3.6,3.6C71.6,283.2,73.2,284.8,75.2,284.8z"/>
		<path d="M341.9,297.6c2,0,3.6-1.6,3.6-3.6c0-2-1.6-3.6-3.6-3.6c-2,0-3.6,1.6-3.6,3.6C338.4,296,340,297.6,341.9,297.6z"/>
		<path d="M378.8,270.4c2,0,3.6-1.6,3.6-3.6c0-2-1.6-3.6-3.6-3.6c-2,0-3.6,1.6-3.6,3.6C375.2,268.8,376.8,270.4,378.8,270.4z"/>
		<path d="M361.7,307.3c2,0,3.6-1.6,3.6-3.6s-1.6-3.6-3.6-3.6c-2,0-3.6,1.6-3.6,3.6S359.7,307.3,361.7,307.3z"/>
		<path d="M362.8,249.9c2,0,3.6-1.6,3.6-3.6c0-2-1.6-3.6-3.6-3.6s-3.6,1.6-3.6,3.6C359.2,248.3,360.8,249.9,362.8,249.9z"/>
		<path d="M285.7,359.7c-42.6,0-77.1,34.5-77.1,77.1c0,42.6,34.5,77.1,77.1,77.1s77.1-34.5,77.1-77.1
			C362.9,394.3,328.3,359.7,285.7,359.7z M285.7,366.9c7,0,13.8,1.1,20.2,3c-10.9,13.9-22.1,35.1-23.6,64.8
			c-10.2,5.2-20,8.4-29.2,10.2l0,0c-0.1-0.5-9.5-42.4,18.1-76.3C275.9,367.4,280.7,366.9,285.7,366.9z M215.7,436.9
			c0-29.5,18.3-54.7,44.2-65c-21.3,32.9-14.8,69.4-13.9,74.1c-11.3,1.4-21.4,0.8-29.7-0.6C215.9,442.5,215.7,439.7,215.7,436.9z
			 M217.6,452.9c17.5,2.5,41.4,1.6,67.9-11.9c9.6,6.2,17.3,13.2,23.4,20.2l0,0c-0.4,0.3-31.9,29.4-75.1,22.5
			C226,475.1,220.3,464.6,217.6,452.9z M285.7,506.9c-16.4,0-31.4-5.7-43.3-15.1c39.1,2,67.5-21.9,71-25c6.9,9.1,11.4,18.1,14.4,26
			C316,501.6,301.5,506.9,285.7,506.9z M333.6,487.8c-6.6-16.4-19.4-36.6-44.2-52.8c0.6-11.4,2.7-21.5,5.8-30.4l0,0
			c0.5,0.1,41.4,13,57,53.9C348.6,469.8,342.1,479.8,333.6,487.8z M355,447c-17.8-34.9-52.7-47.6-57.2-49.1
			c4.4-10.5,10.1-18.9,15.4-25.5c25,10.7,42.5,35.5,42.5,64.4C355.7,440.3,355.4,443.7,355,447z"/>
		<path d="M459.6,261.1c2,0,3.6-1.6,3.6-3.6s-1.6-3.6-3.6-3.6c-2,0-3.6,1.6-3.6,3.6S457.6,261.1,459.6,261.1z"/>
		<path d="M452.9,283.1c2,0,3.6-1.6,3.6-3.6c0-2-1.6-3.6-3.6-3.6c-2,0-3.6,1.6-3.6,3.6C449.4,281.5,451,283.1,452.9,283.1z"/>
		<path d="M438.8,236.3c2,0,3.6-1.6,3.6-3.6c0-2-1.6-3.6-3.6-3.6c-2,0-3.6,1.6-3.6,3.6C435.2,234.7,436.8,236.3,438.8,236.3z"/>
		<path d="M514,257l-90.7-90.7l-5.1,5.1l85.6,85.6L384.5,376.4l-90.7-90.7l200-200l-65.5-65.5l-200,200L55.4,47.4l-8.1,8.1
			l77.1,77.1L0,257l90.7,90.7l5.1-5.1L10.1,257l119.4-119.4l90.7,90.7l-200,200l65.5,65.5l200-200l172.8,172.8l8.1-8.1l-77.1-77.1
			L514,257z M287.2,282.2l-20.1-20.1l20.1-20.1l20.1,20.1L287.2,282.2z M90.7,388l20.1-20.1L131,388l-20.1,20.1L90.7,388z
			 M105.8,413.2l-20.1,20.1l-20.1-20.1l20.1-20.1L105.8,413.2z M115.9,362.8l20.1-20.1l20.1,20.1L136.1,383L115.9,362.8z
			 M141.1,337.6l20.1-20.1l20.1,20.1l-20.1,20.1L141.1,337.6z M166.3,312.4l20.1-20.1l20.1,20.1l-20.1,20.1L166.3,312.4z
			 M191.5,287.2l20.1-20.1l20.1,20.1l-20.1,20.1L191.5,287.2z M216.7,262.1l20.1-20.1l20.1,20.1l-20.1,20.1L216.7,262.1z
			 M241.9,236.9l20.1-20.1l20.1,20.1L262.1,257L241.9,236.9z M408.2,110.9L388,131l-20.1-20.1L388,90.7L408.2,110.9z M393.1,85.7
			l20.1-20.1l20.1,20.1l-20.1,20.1L393.1,85.7z M383,136.1l-20.1,20.1l-20.1-20.1l20.1-20.1L383,136.1z M357.8,161.3l-20.1,20.1
			l-20.1-20.1l20.1-20.1L357.8,161.3z M332.6,186.5l-20.1,20.1l-20.1-20.1l20.1-20.1L332.6,186.5z M307.4,211.7l-20.1,20.1
			l-20.1-20.1l20.1-20.1L307.4,211.7z M312.4,257l-20.1-20.1l20.1-20.1l20.1,20.1L312.4,257z M337.6,231.8l-20.1-20.1l20.1-20.1
			l20.1,20.1L337.6,231.8z M362.8,206.6l-20.1-20.1l20.1-20.1l20.1,20.1L362.8,206.6z M388,181.4l-20.1-20.1l20.1-20.1l20.1,20.1
			L388,181.4z M413.2,156.2l-20.1-20.1l20.1-20.1l20.1,20.1L413.2,156.2z M438.4,131l-20.1-20.1l20.1-20.1l20.1,20.1L438.4,131z
			 M483.7,85.7l-20.1,20.1l-20.1-20.1l20.1-20.1L483.7,85.7z M458.6,60.5l-20.1,20.1l-20.1-20.1l20.1-20.1L458.6,60.5z M30.3,428.3
			L428.3,30.2l5.1,5.1L35.3,433.4L30.3,428.3z M40.3,438.4l20.1-20.1l20.1,20.1l-20.1,20.1L40.3,438.4z M85.7,483.7l-20.1-20.1
			l20.1-20.1l20.1,20.1L85.7,483.7z M110.9,458.6l-20.1-20.1l20.1-20.1l20.1,20.1L110.9,458.6z M136.1,433.4l-20.1-20.1l20.1-20.1
			l20.1,20.1L136.1,433.4z M161.3,408.2L141.1,388l20.1-20.1l20.1,20.1L161.3,408.2z M186.5,383l-20.1-20.1l20.1-20.1l20.1,20.1
			L186.5,383z M211.7,357.8l-20.1-20.1l20.1-20.1l20.1,20.1L211.7,357.8z M236.9,332.6l-20.1-20.1l20.1-20.1l20.1,20.1L236.9,332.6z
			 M262.1,307.4l-20.1-20.1l20.1-20.1l20.1,20.1L262.1,307.4z"/>
		<path d="M369.5,338.2c2,0,3.6-1.6,3.6-3.6s-1.6-3.6-3.6-3.6c-2,0-3.6,1.6-3.6,3.6S367.5,338.2,369.5,338.2z"/>
		<path d="M398.7,272.3c2,0,3.6-1.6,3.6-3.6c0-2-1.6-3.6-3.6-3.6c-2,0-3.6,1.6-3.6,3.6C395.1,270.7,396.7,272.3,398.7,272.3z"/>
		<path d="M420.4,246.9c2,0,3.6-1.6,3.6-3.6c0-2-1.6-3.6-3.6-3.6c-2,0-3.6,1.6-3.6,3.6C416.8,245.3,418.4,246.9,420.4,246.9z"/>
		<path d="M417.1,221.1c2,0,3.6-1.6,3.6-3.6s-1.6-3.6-3.6-3.6c-2,0-3.6,1.6-3.6,3.6S415.1,221.1,417.1,221.1z"/>
		<path d="M54.4,260c2,0,3.6-1.6,3.6-3.6c0-2-1.6-3.6-3.6-3.6c-2,0-3.6,1.6-3.6,3.6C50.8,258.4,52.4,260,54.4,260z"/>
		<path d="M61,238c2,0,3.6-1.6,3.6-3.6c0-2-1.6-3.6-3.6-3.6c-2,0-3.6,1.6-3.6,3.6C57.5,236.4,59.1,238,61,238z"/>
		<path d="M420.4,294c2,0,3.6-1.6,3.6-3.6c0-2-1.6-3.6-3.6-3.6c-2,0-3.6,1.6-3.6,3.6C416.8,292.4,418.4,294,420.4,294z"/>
		<path d="M395.2,250.2c2,0,3.6-1.6,3.6-3.6c0-2-1.6-3.6-3.6-3.6c-2,0-3.6,1.6-3.6,3.6C391.6,248.6,393.2,250.2,395.2,250.2z"/>
		<path d="M409.5,326.5c2,0,3.6-1.6,3.6-3.6c0-2-1.6-3.6-3.6-3.6c-2,0-3.6,1.6-3.6,3.6C406,324.9,407.6,326.5,409.5,326.5z"/>
		<path d="M397.4,290.8c2,0,3.6-1.6,3.6-3.6c0-2-1.6-3.6-3.6-3.6c-2,0-3.6,1.6-3.6,3.6C393.8,289.2,395.4,290.8,397.4,290.8z"/>
		<path d="M386.5,319.8c2,0,3.6-1.6,3.6-3.6c0-2-1.6-3.6-3.6-3.6c-2,0-3.6,1.6-3.6,3.6C382.9,318.2,384.5,319.8,386.5,319.8z"/>
		<path d="M388.8,223.9c2,0,3.6-1.6,3.6-3.6c0-2-1.6-3.6-3.6-3.6c-2,0-3.6,1.6-3.6,3.6C385.3,222.3,386.9,223.9,388.8,223.9z"/>
	</g>
</g>
</svg>
